<svg id="Capa_1" enable-background="new 0 0 512 512" height="512" viewBox="0 0 512 512" width="512" xmlns="http://www.w3.org/2000/svg"><g><g><g><path d="m7.5 462.29v-412.58c0-15.616 12.66-28.276 28.276-28.276h440.448c15.616 0 28.276 12.66 28.276 28.276v412.58c0 15.616-12.66 28.276-28.276 28.276h-440.448c-15.616 0-28.276-12.66-28.276-28.276z" fill="#fdfcfc"/></g></g><g><g><path d="m71.339 151.537v339.029h369.322v-339.029c0-4.959-4.02-8.978-8.978-8.978h-351.365c-4.959 0-8.979 4.019-8.979 8.978z" fill="#fdfcfc"/></g></g><g><g><path d="m431.683 142.559h-30c4.959 0 8.979 4.02 8.979 8.979v339.029h30v-339.03c-.001-4.959-4.021-8.978-8.979-8.978z" fill="#f1f1f1"/></g></g><g><g><path d="m431.683 142.559h-351.365c-4.959 0-8.979 4.02-8.979 8.979v29.185h369.322v-29.185c0-4.96-4.02-8.979-8.978-8.979z" fill="#ddebfd"/></g></g><g><g><path d="m431.683 142.559h-30c4.959 0 8.979 4.02 8.979 8.979v29.185h30v-29.185c-.001-4.96-4.021-8.979-8.979-8.979z" fill="#bed9fd"/></g></g><g><g><path d="m504.5 108.832v-59.122c0-15.616-12.66-28.276-28.276-28.276h-440.448c-15.616 0-28.276 12.66-28.276 28.276v59.122z" fill="#faf0b0"/></g></g><g><g><path d="m476.224 21.434h-30c15.616 0 28.276 12.66 28.276 28.276v412.58c0 15.616-12.66 28.276-28.276 28.276h30c15.616 0 28.276-12.66 28.276-28.276v-412.58c0-15.616-12.659-28.276-28.276-28.276z" fill="#f1f1f1"/></g></g><g><g><path d="m476.224 21.434h-30c15.616 0 28.276 12.66 28.276 28.276v59.122h30v-59.122c0-15.616-12.659-28.276-28.276-28.276z" fill="#f8e883"/></g></g><g><circle cx="378.604" cy="65.133" r="7.5"/><circle cx="418.518" cy="65.133" r="7.5"/><circle cx="458.432" cy="65.133" r="7.5"/><circle cx="110.5" cy="233.667" r="7.5"/><circle cx="110.5" cy="284.836" r="7.5"/><circle cx="110.5" cy="336.006" r="7.5"/><circle cx="110.5" cy="387.176" r="7.5"/><circle cx="110.5" cy="438.345" r="7.5"/><path d="m143 241.167h258c4.143 0 7.5-3.358 7.5-7.5s-3.357-7.5-7.5-7.5h-258c-4.143 0-7.5 3.358-7.5 7.5s3.357 7.5 7.5 7.5z"/><path d="m401 277.336h-258c-4.143 0-7.5 3.358-7.5 7.5s3.357 7.5 7.5 7.5h258c4.143 0 7.5-3.358 7.5-7.5s-3.357-7.5-7.5-7.5z"/><path d="m401 328.506h-258c-4.143 0-7.5 3.358-7.5 7.5s3.357 7.5 7.5 7.5h258c4.143 0 7.5-3.358 7.5-7.5s-3.357-7.5-7.5-7.5z"/><path d="m401 379.676h-258c-4.143 0-7.5 3.358-7.5 7.5s3.357 7.5 7.5 7.5h258c4.143 0 7.5-3.358 7.5-7.5s-3.357-7.5-7.5-7.5z"/><path d="m401 430.845h-258c-4.143 0-7.5 3.358-7.5 7.5s3.357 7.5 7.5 7.5h258c4.143 0 7.5-3.358 7.5-7.5s-3.357-7.5-7.5-7.5z"/><path d="m476.225 13.934h-276.78c-4.143 0-7.5 3.358-7.5 7.5s3.357 7.5 7.5 7.5h276.78c11.455 0 20.775 9.32 20.775 20.776v51.621h-482v-51.621c0-11.456 9.32-20.776 20.776-20.776h133.668c4.143 0 7.5-3.358 7.5-7.5s-3.357-7.5-7.5-7.5h-133.668c-19.727 0-35.776 16.049-35.776 35.776v412.58c0 19.727 16.049 35.776 35.776 35.776h440.448c19.727 0 35.775-16.049 35.775-35.776v-412.58c.001-19.727-16.048-35.776-35.774-35.776zm-397.385 174.288h189.284c4.143 0 7.5-3.358 7.5-7.5s-3.357-7.5-7.5-7.5h-189.284v-21.685c0-.815.663-1.479 1.478-1.479h351.365c.816 0 1.479.663 1.479 1.479v21.685h-135.038c-4.142 0-7.5 3.358-7.5 7.5s3.358 7.5 7.5 7.5h135.037v294.844h-354.321zm397.385 294.844h-28.064v-331.529c0-9.086-7.393-16.479-16.479-16.479h-351.365c-9.086 0-16.477 7.392-16.477 16.479v331.529h-28.064c-11.456 0-20.776-9.32-20.776-20.776v-345.958h482v345.958c0 11.456-9.32 20.776-20.775 20.776z"/></g></g></svg>