<svg id="Capa_1" enable-background="new 0 0 512 512" height="512" viewBox="0 0 512 512" width="512" xmlns="http://www.w3.org/2000/svg"><g><g><g><path d="m63.906 262.839h383.334c5.396 0 9.77 4.374 9.77 9.77v21.209h-402.874v-21.209c0-5.396 4.374-9.77 9.77-9.77z" fill="#c5bec6"/></g></g><g><g><path d="m447.24 262.839h-30c5.396 0 9.77 4.374 9.77 9.77v21.209h30v-21.209c0-5.396-4.374-9.77-9.77-9.77z" fill="#b5adb7"/></g></g><g><g><ellipse cx="253.214" cy="183.254" fill="#9ec8fc" rx="17.772" ry="17.772" transform="matrix(.635 -.772 .772 .635 -49.177 262.37)"/></g></g><g><g><path d="m36.504 293.817h438.993c16.018 0 29.004 12.985 29.004 29.004v68.481c0 16.018-12.985 29.004-29.004 29.004h-438.993c-16.018 0-29.004-12.985-29.004-29.004v-68.481c0-16.018 12.985-29.004 29.004-29.004z" fill="#e3e0e4"/></g></g><g><g><path d="m475.496 293.817h-30c16.018 0 29.004 12.985 29.004 29.004v68.481c0 16.018-12.985 29.004-29.004 29.004h30c16.018 0 29.004-12.985 29.004-29.004v-68.481c0-16.018-12.985-29.004-29.004-29.004z" fill="#d4cfd5"/></g></g><g><g><path d="m412.75 420.306h37v27.779c0 10.217-8.283 18.5-18.5 18.5-10.217 0-18.5-8.283-18.5-18.5z" fill="#c5bec6"/></g></g><g><g><path d="m62.25 420.306h37v28.779c0 10.217-8.283 17.5-18.5 17.5-10.217 0-18.5-7.283-18.5-17.5z" fill="#c5bec6"/></g></g><g><circle cx="449.75" cy="367.562" r="7.5"/><circle cx="403" cy="367.562" r="7.5"/><circle cx="356.25" cy="367.562" r="7.5"/><path d="m194.692 183.781c0 4.142 3.358 7.5 7.5 7.5s7.5-3.358 7.5-7.5c0-23.998 19.524-43.522 43.522-43.522s43.522 19.524 43.522 43.522c0 4.142 3.358 7.5 7.5 7.5s7.5-3.358 7.5-7.5c0-32.269-26.253-58.522-58.522-58.522-32.269.001-58.522 26.253-58.522 58.522z"/><path d="m342.294 183.781c0 4.142 3.358 7.5 7.5 7.5s7.5-3.358 7.5-7.5c0-57.39-46.69-104.08-104.079-104.08-57.39 0-104.08 46.69-104.08 104.08 0 4.142 3.358 7.5 7.5 7.5s7.5-3.358 7.5-7.5c0-49.119 39.961-89.08 89.08-89.08 49.118.001 89.079 39.962 89.079 89.08z"/><path d="m114.847 191.281c4.142 0 7.5-3.358 7.5-7.5 0-72.16 58.706-130.867 130.867-130.867s130.867 58.707 130.867 130.867c0 4.142 3.358 7.5 7.5 7.5s7.5-3.358 7.5-7.5c0-80.431-65.435-145.867-145.867-145.867s-145.867 65.436-145.867 145.867c0 4.142 3.358 7.5 7.5 7.5z"/><path d="m475.497 286.318h-10.987v-13.709c0-9.523-7.747-17.27-17.27-17.27h-186.526v-47.948c10.284-3.202 17.772-12.811 17.772-24.136 0-13.935-11.337-25.272-25.272-25.272s-25.272 11.337-25.272 25.272c0 11.325 7.488 20.934 17.773 24.136v47.948h-88.732c-4.142 0-7.5 3.358-7.5 7.5s3.358 7.5 7.5 7.5h290.257c1.251 0 2.27 1.018 2.27 2.27v13.709h-387.874v-13.709c0-1.251 1.019-2.27 2.27-2.27h63.076c4.142 0 7.5-3.358 7.5-7.5s-3.358-7.5-7.5-7.5h-63.076c-9.523 0-17.27 7.747-17.27 17.27v13.709h-10.133c-20.128 0-36.503 16.375-36.503 36.503v68.481c0 20.128 16.375 36.503 36.503 36.503h18.247v21.28c0 14.019 11.42 25 26 25s26-10.981 26-25v-21.28h74.25c4.142 0 7.5-3.358 7.5-7.5s-3.358-7.5-7.5-7.5h-144.497c-11.857 0-21.503-9.646-21.503-21.503v-16.241h222.078c4.142 0 7.5-3.358 7.5-7.5s-3.358-7.5-7.5-7.5h-222.078v-37.241c0-11.857 9.646-21.503 21.503-21.503h438.993c11.857 0 21.503 9.646 21.503 21.503v68.481c0 11.857-9.647 21.503-21.503 21.503h-264.496c-4.142 0-7.5 3.358-7.5 7.5s3.358 7.5 7.5 7.5h194.25v20.28c0 14.337 11.664 26 26 26s26-11.663 26-26v-20.28h18.247c20.128 0 36.503-16.375 36.503-36.503v-68.481c0-20.127-16.376-36.502-36.503-36.502zm-222.283-113.336c5.664 0 10.272 4.608 10.272 10.272s-4.608 10.272-10.272 10.272-10.272-4.608-10.272-10.272 4.608-10.272 10.272-10.272zm-161.464 276.104c0 6.565-5.534 10-11 10s-11-3.435-11-10v-21.28h22zm350.5-1c0 6.066-4.935 11-11 11s-11-4.934-11-11v-20.28h22z"/></g></g></svg>