<svg id="Capa_1" enable-background="new 0 0 512 512" height="512" viewBox="0 0 512 512" width="512" xmlns="http://www.w3.org/2000/svg"><g><g><g><path d="m462.047 366.339h-412.093v-215.591c0-23.46 19.018-42.479 42.479-42.479h327.136c23.46 0 42.479 19.018 42.479 42.479v215.591z" fill="#e3e0e4"/></g></g><g><g><path d="m419.568 108.269h-30c23.46 0 42.479 19.018 42.479 42.479v215.591h30v-215.591c0-23.461-19.018-42.479-42.479-42.479z" fill="#d4cfd5"/></g></g><g><g><path d="m84.58 362.618v-205.958c0-8.181 6.632-14.813 14.813-14.813h313.214c8.147 0 14.813 6.666 14.813 14.813v205.958z" fill="#ddebfd"/></g></g><g><g><path d="m412.607 141.846h-30c8.147 0 14.813 6.666 14.813 14.813v205.958h30v-205.957c0-8.148-6.666-14.814-14.813-14.814z" fill="#bed9fd"/></g></g><g><g><path d="m499.062 366.339h-486.124c-3.003 0-5.438 2.435-5.438 5.438v12.808c0 10.575 8.573 19.147 19.147 19.147h458.706c10.575 0 19.147-8.573 19.147-19.147v-12.808c0-3.004-2.434-5.438-5.438-5.438z" fill="#cdcdcd"/></g></g><g><g><path d="m499.062 366.339h-30c3.003 0 5.438 2.435 5.438 5.438v12.808c0 10.575-8.573 19.147-19.147 19.147h30c10.575 0 19.147-8.573 19.147-19.147v-12.808c0-3.003-2.434-5.438-5.438-5.438z" fill="#c5bec6"/></g></g><g><g><path d="m200.861 213.308c0 18.58-33.641 61.873-33.641 61.873s-33.641-43.294-33.641-61.873 15.062-33.641 33.641-33.641 33.641 15.061 33.641 33.641z" fill="#77d1b3"/></g></g><g><g><path d="m390.217 272.96c0 18.58-33.641 61.873-33.641 61.873s-33.641-43.294-33.641-61.873c0-18.58 15.062-33.641 33.641-33.641s33.641 15.061 33.641 33.641z" fill="#faf0b0"/></g></g><g><circle cx="167.723" cy="211.551" r="7.5"/><circle cx="356.576" cy="272.555" r="7.5"/><path d="m364.076 232.516v-28.466c0-4.142-3.357-7.5-7.5-7.5h-151.797c-6.43-14.354-20.841-24.384-37.56-24.384-22.685 0-41.141 18.456-41.141 41.141 0 18.718 25.353 53.539 33.641 64.422v21.491c0 4.142 3.358 7.5 7.5 7.5h161.115c8.666 14.825 19.07 28.533 22.32 32.714 1.421 1.828 3.607 2.898 5.922 2.898s4.501-1.07 5.922-2.898c5.882-7.569 35.22-46.344 35.22-66.476-.001-20.121-14.527-36.905-33.642-40.442zm-196.857-45.349c14.415 0 26.142 11.727 26.142 26.141 0 9.915-14.254 32.888-26.142 49.348-11.887-16.46-26.141-39.433-26.141-49.348 0-14.414 11.727-26.141 26.141-26.141zm7.5 104.554v-13.991c8.288-10.883 33.642-45.704 33.642-64.422 0-.589-.02-1.174-.045-1.757h140.76v20.966c-19.115 3.537-33.642 20.321-33.642 40.444 0 5.272 2.023 11.827 5.099 18.761h-145.814zm181.856 30.59c-5.751-7.959-12.05-17.441-17.027-26.236-.176-.379-.377-.744-.612-1.086-4.99-8.961-8.502-17.101-8.502-22.029 0-14.415 11.727-26.142 26.142-26.142 14.414 0 26.142 11.727 26.142 26.142-.001 9.916-14.256 32.89-26.143 49.351z"/><path d="m499.062 358.839h-29.516v-208.091c0-27.558-22.42-49.979-49.978-49.979h-245.235c-4.142 0-7.5 3.358-7.5 7.5s3.358 7.5 7.5 7.5h245.234c19.287 0 34.978 15.692 34.978 34.979v208.091h-19.625v-203.314c0-11.678-9.501-21.178-21.179-21.178h-315.483c-11.678 0-21.178 9.501-21.178 21.178v203.314h-19.626v-208.091c0-19.287 15.691-34.979 34.978-34.979h51.901c4.142 0 7.5-3.358 7.5-7.5s-3.358-7.5-7.5-7.5h-51.901c-27.558 0-49.978 22.421-49.978 49.979v208.091h-29.516c-7.134 0-12.938 5.804-12.938 12.938v12.808c0 14.693 11.954 26.647 26.647 26.647h197.686c4.142 0 7.5-3.358 7.5-7.5s-3.358-7.5-7.5-7.5h-197.686c-6.422 0-11.647-5.225-11.647-11.647v-10.746h482v10.746c0 6.422-5.225 11.647-11.647 11.647h-231.02c-4.142 0-7.5 3.358-7.5 7.5s3.358 7.5 7.5 7.5h231.02c14.693 0 26.647-11.954 26.647-26.647v-12.808c0-7.134-5.803-12.938-12.938-12.938zm-406.982-203.314c0-3.407 2.771-6.178 6.178-6.178h315.483c3.407 0 6.179 2.771 6.179 6.178v203.314h-327.84z"/></g></g></svg>