<svg id="Capa_1" enable-background="new 0 0 512 512" height="512" viewBox="0 0 512 512" width="512" xmlns="http://www.w3.org/2000/svg"><g><g><path d="m470.363 336.387c9.414 0 18.031-5.159 22.614-13.383 7.339-13.169 11.523-28.335 11.523-44.482 0-45.847-33.703-83.821-77.685-90.502-.284-57.98-47.361-104.896-105.408-104.896-51.483 0-94.32 36.913-103.553 85.711-12.607-11.129-29.157-17.895-47.295-17.895-26.769 0-50.087 14.718-62.346 36.494-3.015-.3-6.073-.458-9.167-.458-50.56 0-91.546 40.987-91.546 91.546 0 16.146 4.184 31.313 11.523 44.482 4.583 8.224 13.199 13.383 22.614 13.383z" fill="#fdfcfc"/></g></g><g><g><path d="m426.815 188.021c-.284-57.98-47.361-104.896-105.408-104.896-16.11 0-31.373 3.616-45.026 10.078 4.909-.701 9.922-1.078 15.026-1.078 58.046 0 105.123 46.917 105.408 104.896 43.982 6.681 77.685 44.654 77.685 90.502 0 16.146-4.184 31.313-11.523 44.482-.88 1.58-1.912 3.044-3.068 4.383h10.454c9.414 0 18.031-5.159 22.613-13.383 7.339-13.169 11.523-28.335 11.523-44.482.001-45.848-33.702-83.822-77.684-90.502z" fill="#f1f1f1"/></g></g><g><g><path d="m367.275 428.875h-221.888c-11.854 0-21.463-9.609-21.463-21.463v-124.433c0-8.942 7.249-16.19 16.19-16.19h232.432c8.942 0 16.19 7.249 16.19 16.19v124.434c.002 11.853-9.607 21.462-21.461 21.462z" fill="#f8e883"/></g></g><g><g><path d="m372.547 266.789h-30c8.942 0 16.19 7.249 16.19 16.19v124.434c0 11.853-9.609 21.463-21.463 21.463h30c11.853 0 21.463-9.609 21.463-21.463v-124.434c.001-8.941-7.248-16.19-16.19-16.19z" fill="#f7e365"/></g></g><path d="m487.817 213.671c-14.053-16.209-32.94-27.395-53.702-31.924-1.22-20.529-7.952-40.173-19.643-57.157-2.347-3.412-7.018-4.275-10.43-1.926-3.412 2.348-4.274 7.018-1.926 10.43 11.153 16.206 17.101 35.212 17.198 54.964.019 3.693 2.723 6.823 6.374 7.378 19.655 2.985 37.694 12.951 50.795 28.061 13.231 15.26 20.517 34.801 20.517 55.025 0 14.298-3.656 28.417-10.575 40.831-3.277 5.88-9.432 9.534-16.063 9.534h-74.125v-45.908c0-13.063-10.627-23.69-23.689-23.69h-232.433c-13.062 0-23.69 10.628-23.69 23.69v45.908h-74.788c-6.63 0-12.784-3.653-16.063-9.534-6.918-12.412-10.574-26.531-10.574-40.831 0-46.343 37.703-84.046 84.046-84.046 2.779 0 5.613.142 8.425.421 2.957.295 5.817-1.19 7.278-3.784 11.344-20.153 32.729-32.673 55.81-32.673 15.598 0 30.631 5.689 42.331 16.017 2.021 1.785 4.845 2.347 7.396 1.472 2.55-.874 4.436-3.051 4.937-5.7 8.729-46.127 49.181-79.605 96.184-79.605 21.807 0 42.44 7.012 59.672 20.28 3.283 2.528 7.992 1.914 10.518-1.367 2.527-3.282 1.915-7.991-1.367-10.518-19.877-15.305-43.676-23.394-68.822-23.394-50.235 0-93.98 33.164-108.133 80.37-12.673-8.156-27.476-12.554-42.716-12.554-26.871 0-51.878 13.744-66.378 36.17-1.72-.089-3.436-.134-5.135-.134-54.614-.001-99.046 44.431-99.046 99.045 0 16.85 4.313 33.494 12.472 48.132 5.924 10.629 17.1 17.232 29.165 17.232h74.788v63.526c0 15.97 12.992 28.963 28.962 28.963h12.885c4.143 0 7.5-3.358 7.5-7.5s-3.357-7.5-7.5-7.5h-12.885c-7.698 0-13.962-6.264-13.962-13.963v-119.225l102.957 88.957c6.257 5.407 14.102 8.109 21.949 8.109 7.846 0 15.694-2.704 21.95-8.109l102.956-88.957v119.226c0 7.699-6.264 13.963-13.962 13.963h-179.004c-4.143 0-7.5 3.358-7.5 7.5s3.357 7.5 7.5 7.5h179.004c15.97 0 28.962-12.993 28.962-28.963v-63.526h74.125c12.066 0 23.242-6.603 29.166-17.232 8.16-14.641 12.472-31.285 12.472-48.133 0-23.833-8.588-46.864-24.183-64.851zm-219.342 152.122c-6.922 5.981-17.362 5.982-24.286 0l-105.719-91.343c.533-.103 1.082-.161 1.645-.161h232.433c.563 0 1.112.058 1.645.161z"/></svg>