<svg id="Capa_1" enable-background="new 0 0 512 512" height="512" viewBox="0 0 512 512" width="512" xmlns="http://www.w3.org/2000/svg"><g><g><g><ellipse cx="256" cy="382.216" fill="#cd5668" rx="18.634" ry="18.633" transform="matrix(.16 -.987 .987 .16 -162.287 573.687)"/></g></g><g><g><ellipse cx="126.256" cy="382.216" fill="#cd5668" rx="18.634" ry="18.634" transform="matrix(.23 -.973 .973 .23 -274.744 417.28)"/></g></g><g><g><ellipse cx="385.745" cy="382.216" fill="#cd5668" rx="18.634" ry="18.634" transform="matrix(.707 -.707 .707 .707 -157.286 384.712)"/></g></g><g><g><path d="m371.583 247.707c5.076 0 9.722-2.782 12.193-7.216 3.957-7.1 6.213-15.278 6.213-23.984 0-24.72-18.172-45.195-41.887-48.798-.153-31.262-25.537-56.559-56.835-56.559-27.759 0-50.856 19.903-55.835 46.215-6.798-6.001-15.721-9.649-25.501-9.649-14.434 0-27.007 7.936-33.616 19.677-1.626-.162-3.274-.247-4.943-.247-27.261 0-49.361 22.1-49.361 49.361 0 8.706 2.256 16.884 6.213 23.984 2.471 4.434 7.117 7.216 12.193 7.216z" fill="#fdfcfc"/></g></g><g><g><path d="m348.103 167.709c-.153-31.262-25.537-56.559-56.835-56.559-13.151 0-25.251 4.472-34.878 11.971 4.742-1.283 9.729-1.971 14.878-1.971 31.298 0 56.682 25.297 56.835 56.559 23.714 3.602 41.887 24.077 41.887 48.798 0 7.59-1.717 14.777-4.778 21.2h6.372c5.076 0 9.722-2.782 12.193-7.216 3.957-7.1 6.213-15.278 6.213-23.984-.001-24.721-18.173-45.196-41.887-48.798z" fill="#f1f1f1"/></g></g><g><g><ellipse cx="256" cy="247.707" fill="#cd5668" rx="18.633" ry="18.634" transform="matrix(.924 -.383 .383 .924 -75.306 116.823)"/></g></g><g><path d="m140.418 255.207h49.861c4.143 0 7.5-3.358 7.5-7.5s-3.357-7.5-7.5-7.5h-49.861c-2.323 0-4.484-1.29-5.642-3.367-3.445-6.181-5.266-13.212-5.266-20.334 0-23.082 18.779-41.861 41.861-41.861 1.386 0 2.799.071 4.2.21 2.962.295 5.817-1.19 7.278-3.784 5.505-9.78 15.882-15.856 27.08-15.856 7.567 0 14.861 2.76 20.539 7.771 2.021 1.785 4.846 2.346 7.396 1.472 2.551-.874 4.436-3.051 4.937-5.7 4.397-23.241 24.78-40.109 48.466-40.109 6.452 0 12.723 1.225 18.638 3.64 3.832 1.566 8.213-.274 9.778-4.108 1.566-3.835-.273-8.213-4.108-9.779-7.723-3.154-15.901-4.753-24.308-4.753-27.145 0-50.963 16.993-60.231 41.69-6.477-3.344-13.703-5.124-21.106-5.124-14.997 0-28.997 7.342-37.579 19.439-.327-.006-.654-.009-.979-.009-31.354 0-56.861 25.508-56.861 56.861 0 9.671 2.476 19.227 7.162 27.635 3.804 6.826 10.986 11.066 18.745 11.066z"/><path d="m504.5 374.717h-93.723c-3.232-10.766-13.228-18.634-25.032-18.634s-21.8 7.868-25.032 18.634h-79.682c-2.518-8.388-9.143-15.014-17.532-17.532v-84.447c8.388-2.518 15.014-9.143 17.532-17.531h90.551c7.758 0 14.94-4.24 18.745-11.065 4.685-8.407 7.161-17.963 7.161-27.635 0-13.682-4.931-26.904-13.884-37.231-7.496-8.646-17.389-14.802-28.316-17.717-1.173-11.926-5.605-23.146-12.988-32.75-2.523-3.284-7.232-3.901-10.517-1.376-3.284 2.524-3.9 7.233-1.376 10.517 6.616 8.607 10.141 18.911 10.194 29.796.019 3.693 2.723 6.823 6.374 7.378 20.245 3.075 35.513 20.866 35.513 41.383 0 7.123-1.82 14.154-5.264 20.333-1.158 2.077-3.32 3.368-5.643 3.368h-90.551c-3.232-10.766-13.228-18.634-25.032-18.634s-21.799 7.868-25.031 18.634h-10.69c-4.143 0-7.5 3.358-7.5 7.5s3.357 7.5 7.5 7.5h10.69c2.518 8.388 9.143 15.013 17.531 17.531v84.447c-8.388 2.518-15.013 9.143-17.531 17.532h-79.682c-3.232-10.766-13.228-18.634-25.032-18.634s-21.8 7.868-25.032 18.634h-93.721c-4.143 0-7.5 3.358-7.5 7.5s3.357 7.5 7.5 7.5h93.724c3.232 10.765 13.228 18.633 25.032 18.633s21.8-7.868 25.032-18.633h79.682c3.232 10.765 13.227 18.633 25.031 18.633s21.8-7.868 25.032-18.633h79.682c3.232 10.765 13.228 18.633 25.032 18.633s21.8-7.868 25.032-18.633h93.721c4.143 0 7.5-3.358 7.5-7.5 0-4.143-3.357-7.501-7.5-7.501zm-259.633-127.01c0-6.139 4.994-11.134 11.133-11.134 6.14 0 11.134 4.995 11.134 11.134s-4.994 11.133-11.134 11.133c-6.139 0-11.133-4.994-11.133-11.133zm-118.611 145.643c-6.14 0-11.134-4.994-11.134-11.133s4.994-11.134 11.134-11.134 11.134 4.995 11.134 11.134-4.995 11.133-11.134 11.133zm129.744 0c-6.139 0-11.133-4.994-11.133-11.133s4.994-11.134 11.133-11.134c6.14 0 11.134 4.995 11.134 11.134s-4.994 11.133-11.134 11.133zm129.745 0c-6.14 0-11.134-4.994-11.134-11.133s4.994-11.134 11.134-11.134 11.134 4.995 11.134 11.134-4.994 11.133-11.134 11.133z"/></g></g></svg>