<svg id="Capa_1" enable-background="new 0 0 509.82 509.82" height="512" viewBox="0 0 509.82 509.82" width="512" xmlns="http://www.w3.org/2000/svg"><g><g><g><path d="m212.329 269.424h-127.432c-11.954 0-21.644 9.69-21.644 21.644v16.498h170.72v-16.498c0-11.953-9.69-21.644-21.644-21.644z" fill="#92e0c4"/></g></g><g><g><path d="m301.222 462.573h-215.323c-12.507 0-22.646-10.139-22.646-22.646v-132.36h237.969c12.507 0 22.646 10.139 22.646 22.646v109.714c0 12.507-10.139 22.646-22.646 22.646z" fill="#92e0c4"/></g></g><g><g><path d="m212.329 269.424h-30c11.954 0 21.644 9.69 21.644 21.644v16.498h30v-16.498c0-11.953-9.69-21.644-21.644-21.644z" fill="#77d1b3"/></g></g><g><g><path d="m301.222 307.567h-30c12.507 0 22.646 10.139 22.646 22.646v109.714c0 12.507-10.139 22.646-22.646 22.646h30c12.507 0 22.646-10.139 22.646-22.646v-109.714c0-12.507-10.139-22.646-22.646-22.646z" fill="#77d1b3"/></g></g><g><g><path d="m235.952 407.036h-84.783c-4.936 0-8.937-4.001-8.937-8.937v-26.059c0-4.936 4.001-8.937 8.937-8.937h84.783c4.936 0 8.937 4.001 8.937 8.937v26.06c0 4.935-4.001 8.936-8.937 8.936z" fill="#fdfcfc"/></g></g><g><g><path d="m235.952 363.104h-30c4.936 0 8.937 4.001 8.937 8.937v26.059c0 4.935-4.001 8.936-8.937 8.936h30c4.936 0 8.937-4.001 8.937-8.936v-26.059c0-4.936-4.001-8.937-8.937-8.937z" fill="#f1f1f1"/></g></g><g><g><ellipse cx="483.687" cy="381.895" fill="#df646e" rx="18.634" ry="18.634" transform="matrix(.208 -.978 .978 .208 9.476 775.496)"/></g></g><g><g><path d="m231.363 169.736c4.553 0 8.72-2.495 10.937-6.473 3.55-6.369 5.573-13.704 5.573-21.513 0-22.174-16.3-40.54-37.572-43.771-.137-28.042-22.906-50.733-50.98-50.733-24.9 0-45.618 17.853-50.083 41.454-6.097-5.382-14.102-8.655-22.874-8.655-12.947 0-24.225 7.118-30.153 17.65-1.458-.145-2.937-.222-4.434-.222-24.453 0-44.276 19.823-44.276 44.276 0 7.809 2.024 15.144 5.573 21.513 2.217 3.977 6.384 6.473 10.937 6.473h207.352z" fill="#fdfcfc"/></g></g><g><g><path d="m210.301 97.98c-.137-28.042-22.906-50.733-50.98-50.733-5.217 0-10.247.793-14.986 2.25 20.752 6.386 35.854 25.662 35.966 48.483 21.272 3.231 37.572 21.597 37.572 43.771 0 7.809-2.024 15.144-5.573 21.514-2.217 3.977-6.384 6.472-10.937 6.472h30c4.553 0 8.72-2.495 10.937-6.472 3.55-6.369 5.573-13.704 5.573-21.514 0-22.174-16.3-40.54-37.572-43.771z" fill="#f1f1f1"/></g></g><g><g><ellipse cx="134.403" cy="169.736" fill="#df646e" rx="18.634" ry="18.634" transform="matrix(.228 -.974 .974 .228 -61.5 261.913)"/></g></g><g><path d="m151.169 414.537h84.784c9.063 0 16.436-7.374 16.436-16.437v-26.059c0-9.063-7.373-16.437-16.436-16.437h-84.784c-9.063 0-16.437 7.374-16.437 16.437v26.059c0 9.063 7.374 16.437 16.437 16.437zm-1.437-42.496c0-.792.645-1.437 1.437-1.437h84.784c.792 0 1.436.645 1.436 1.437v26.059c0 .792-.645 1.437-1.436 1.437h-84.784c-.792 0-1.437-.645-1.437-1.437z"/><path d="m483.687 355.762c-11.804 0-21.8 7.868-25.031 18.634h-127.288v-44.183c0-16.623-13.523-30.146-30.146-30.146h-59.748v-8.998c0-16.07-13.074-29.144-29.145-29.144h-70.425v-67.156c8.388-2.518 15.014-9.143 17.532-17.532h71.928c7.239 0 13.94-3.955 17.488-10.321 4.267-7.656 6.522-16.358 6.522-25.165 0-23.295-15.924-43.751-37.918-49.892-3.195-29.241-28.1-52.112-58.134-52.112-24.378 0-45.806 15.082-54.441 37.094-5.719-2.806-12.044-4.295-18.516-4.295-13.566 0-26.239 6.574-34.101 17.431-28.824-.269-52.264 23.062-52.264 51.774 0 8.807 2.255 17.508 6.522 25.165 3.548 6.366 10.25 10.321 17.488 10.321h48.048c4.142 0 7.5-3.358 7.5-7.5s-3.358-7.5-7.5-7.5h-48.048c-1.803 0-3.484-1.005-4.386-2.624-3.025-5.429-4.624-11.606-4.624-17.862 0-20.278 16.498-36.776 36.776-36.776 1.216 0 2.458.062 3.691.185 2.963.288 5.818-1.19 7.278-3.784 4.802-8.53 13.852-13.829 23.618-13.829 6.599 0 12.96 2.407 17.911 6.777 2.022 1.784 4.845 2.347 7.396 1.472s4.435-3.051 4.937-5.7c3.876-20.482 21.84-35.349 42.714-35.349 23.858 0 43.363 19.411 43.48 43.27.018 3.693 2.722 6.824 6.374 7.378 17.786 2.702 31.199 18.331 31.199 36.356 0 6.257-1.599 12.434-4.624 17.862-.902 1.619-2.583 2.624-4.386 2.624h-71.928c-3.232-10.765-13.228-18.633-25.032-18.633s-21.8 7.868-25.031 18.633h-7.314c-4.142 0-7.5 3.358-7.5 7.5s3.358 7.5 7.5 7.5h7.314c2.518 8.388 9.143 15.014 17.531 17.532v67.156h-42.006c-16.07 0-29.145 13.074-29.145 29.144v148.859c0 16.623 13.523 30.146 30.146 30.146h25.11c4.142 0 7.5-3.358 7.5-7.5s-3.358-7.5-7.5-7.5h-25.11c-8.352 0-15.146-6.794-15.146-15.146v-124.86h230.469c8.352 0 15.146 6.795 15.146 15.146v109.714c0 8.352-6.794 15.146-15.146 15.146h-160.213c-4.142 0-7.5 3.358-7.5 7.5s3.358 7.5 7.5 7.5h160.213c16.623 0 30.146-13.523 30.146-30.146v-50.532h127.288c3.232 10.765 13.228 18.633 25.031 18.633 14.41 0 26.133-11.723 26.133-26.133 0-14.411-11.723-26.134-26.133-26.134zm-360.417-186.026c0-6.139 4.994-11.133 11.133-11.133s11.134 4.994 11.134 11.133-4.995 11.134-11.134 11.134-11.133-4.994-11.133-11.134zm-38.372 107.188h127.431c7.799 0 14.145 6.345 14.145 14.144v8.998h-155.721v-8.998c0-7.798 6.345-14.144 14.145-14.144zm398.789 116.105c-6.139 0-11.133-4.994-11.133-11.133s4.994-11.134 11.133-11.134 11.133 4.995 11.133 11.134-4.994 11.133-11.133 11.133z"/></g></g></svg>