<svg id="Capa_1" enable-background="new 0 0 512 512" height="512" viewBox="0 0 512 512" width="512" xmlns="http://www.w3.org/2000/svg"><g><g><g><path d="m210.998 256h-158.495c-24.854 0-45.003-20.148-45.003-45.002v-158.495c0-24.854 20.149-45.003 45.003-45.003h158.495c24.854 0 45.002 20.149 45.002 45.003v158.495c0 24.854-20.148 45.002-45.002 45.002z" fill="#9ec8fc"/></g></g><g><g><path d="m459.498 256h-158.495c-24.855 0-45.003-20.148-45.003-45.002v-158.495c0-24.854 20.148-45.003 45.003-45.003h158.495c24.854 0 45.003 20.148 45.003 45.003v158.495c-.001 24.854-20.149 45.002-45.003 45.002z" fill="#e27f86"/></g></g><g><g><path d="m210.998 504.5h-158.495c-24.854 0-45.003-20.148-45.003-45.002v-158.495c0-24.854 20.149-45.003 45.003-45.003h158.495c24.854 0 45.002 20.149 45.002 45.003v158.495c0 24.854-20.148 45.002-45.002 45.002z" fill="#f8e883"/></g></g><g><g><path d="m459.498 504.5h-158.495c-24.854 0-45.003-20.148-45.003-45.003v-158.494c0-24.854 20.148-45.003 45.003-45.003h158.495c24.854 0 45.003 20.148 45.003 45.003v158.495c-.001 24.854-20.149 45.002-45.003 45.002z" fill="#92e0c4"/></g></g><g><g><path d="m210.998 7.5h-30c24.854 0 45.002 20.148 45.002 45.003v158.495c0 24.854-20.148 45.002-45.002 45.002h30c24.854 0 45.002-20.148 45.002-45.002v-158.495c0-24.855-20.148-45.003-45.002-45.003z" fill="#80b6fc"/></g></g><g><g><path d="m459.498 7.5h-30c24.854 0 45.003 20.148 45.003 45.003v158.495c0 24.854-20.148 45.003-45.003 45.003h30c24.854 0 45.003-20.148 45.003-45.003v-158.495c-.001-24.855-20.149-45.003-45.003-45.003z" fill="#df646e"/></g></g><g><g><path d="m210.998 256h-30c24.854 0 45.002 20.148 45.002 45.003v158.495c0 24.854-20.148 45.003-45.003 45.003h30c24.854 0 45.003-20.148 45.003-45.003v-158.495c0-24.855-20.148-45.003-45.002-45.003z" fill="#f7e365"/></g></g><g><g><path d="m459.498 256h-30c24.854 0 45.003 20.148 45.003 45.003v158.495c0 24.854-20.148 45.003-45.003 45.003h30c24.854 0 45.003-20.148 45.003-45.003v-158.495c-.001-24.855-20.149-45.003-45.003-45.003z" fill="#77d1b3"/></g></g><path d="m512 210.998v-158.495c0-28.95-23.552-52.503-52.502-52.503h-158.496c-19.077 0-35.807 10.232-45.002 25.493-9.194-15.261-25.924-25.493-45.002-25.493h-158.495c-28.95 0-52.503 23.552-52.503 52.503v70.716c0 4.142 3.358 7.5 7.5 7.5s7.5-3.358 7.5-7.5v-70.716c0-20.679 16.824-37.503 37.503-37.503h158.495c20.679 0 37.503 16.824 37.503 37.502v50.828c-38.024 1.846-72.442 17.651-98.233 42.388h-32.768c-4.142 0-7.5 3.358-7.5 7.5s3.358 7.5 7.5 7.5h19.069c-19.444 24.322-31.631 54.684-33.238 87.782h-50.828c-20.679 0-37.503-16.823-37.503-37.502v-57.779c0-4.142-3.358-7.5-7.5-7.5s-7.5 3.358-7.5 7.5v57.779c0 19.078 10.231 35.808 25.493 45.002-15.262 9.194-25.493 25.925-25.493 45.003v158.495c0 28.95 23.553 52.502 52.503 52.502h158.495c19.078 0 35.809-10.231 45.003-25.493 9.194 15.262 25.924 25.493 45.001 25.493h27.779c4.143 0 7.5-3.358 7.5-7.5s-3.357-7.5-7.5-7.5h-27.779c-20.679 0-37.502-16.824-37.502-37.502v-50.828c38.024-1.846 72.443-17.651 98.233-42.388h32.767c4.143 0 7.5-3.358 7.5-7.5s-3.357-7.5-7.5-7.5h-19.068c19.444-24.322 31.63-54.685 33.238-87.782h50.827c20.68 0 37.503 16.824 37.503 37.502v158.495c0 20.68-16.823 37.503-37.502 37.503h-100.716c-4.143 0-7.5 3.358-7.5 7.5s3.357 7.5 7.5 7.5h100.716c28.95 0 52.503-23.553 52.503-52.502v-158.495c0-19.078-10.231-35.808-25.493-45.002 15.261-9.195 25.492-25.925 25.492-45.003zm-188.937-50.279h32.471c22.108 23.085 36.286 53.819 38.116 87.782h-92.647c-20.679 0-37.502-16.824-37.502-37.502v-92.647c28.082 1.513 53.957 11.467 75.126 27.368h-15.563c-4.143 0-7.5 3.358-7.5 7.5s3.356 7.499 7.499 7.499zm-134.125 190.563h-32.471c-22.108-23.085-36.286-53.819-38.116-87.782h92.646c20.679 0 37.503 16.824 37.503 37.502v92.647c-28.082-1.513-53.957-11.467-75.126-27.367h15.563c4.142 0 7.5-3.358 7.5-7.5s-3.357-7.5-7.499-7.5zm49.07-95.282c7.365-4.437 13.556-10.628 17.993-17.993 4.437 7.365 10.628 13.556 17.993 17.993-7.365 4.437-13.556 10.628-17.993 17.993-4.437-7.365-10.629-13.556-17.993-17.993zm-92.29-82.625v15.562c0 4.142 3.358 7.5 7.5 7.5s7.5-3.358 7.5-7.5v-32.47c23.085-22.108 53.819-36.286 87.782-38.116v92.647c0 20.679-16.824 37.502-37.503 37.502h-92.646c1.513-28.082 11.467-53.956 27.367-75.125zm65.28 323.625h-158.495c-20.679 0-37.503-16.823-37.503-37.502v-158.495c0-20.679 16.824-37.502 37.503-37.502h50.828c1.846 38.023 17.651 72.442 42.388 98.233v32.768c0 4.142 3.358 7.5 7.5 7.5s7.5-3.358 7.5-7.5v-19.069c24.322 19.444 54.685 31.631 87.782 33.238v50.828c0 20.678-16.824 37.501-37.503 37.501zm155.284-158.374v-15.563c0-4.142-3.357-7.5-7.5-7.5s-7.5 3.358-7.5 7.5v32.471c-23.085 22.108-53.819 36.285-87.781 38.115v-92.647c0-20.679 16.823-37.502 37.502-37.502h92.647c-1.513 28.083-11.468 53.958-27.368 75.126zm42.388-90.126c-1.846-38.024-17.651-72.443-42.388-98.234v-32.766c0-4.142-3.357-7.5-7.5-7.5s-7.5 3.358-7.5 7.5v19.068c-24.322-19.444-54.684-31.63-87.781-33.237v-50.828c-.001-20.679 16.823-37.503 37.501-37.503h158.495c20.679 0 37.503 16.824 37.503 37.503v158.495c0 20.679-16.824 37.502-37.503 37.502z"/></g></svg>