<svg id="Capa_1" enable-background="new 0 0 512 512" height="512" viewBox="0 0 512 512" width="512" xmlns="http://www.w3.org/2000/svg"><g><g><g><path d="m481.755 379.458h-451.51c-12.562 0-22.745-10.183-22.745-22.745v-275.15c0-12.562 10.183-22.745 22.745-22.745h451.511c12.561 0 22.745 10.183 22.745 22.745v275.15c-.001 12.562-10.184 22.745-22.746 22.745z" fill="#ddebfd"/></g></g><g><g><path d="m481.755 58.818h-30c12.561 0 22.745 10.183 22.745 22.745v275.15c0 12.561-10.183 22.745-22.745 22.745h30c12.561 0 22.745-10.183 22.745-22.745v-275.15c0-12.562-10.183-22.745-22.745-22.745z" fill="#bed9fd"/></g></g><g><g><path d="m7.5 316.178v40.535c0 12.561 10.183 22.745 22.745 22.745h451.511c12.561 0 22.745-10.183 22.745-22.745v-40.535z" fill="#e3e0e4"/></g></g><g><g><path d="m474.5 316.178v40.535c0 12.561-10.183 22.745-22.745 22.745h30c12.561 0 22.745-10.183 22.745-22.745v-40.535z" fill="#d4cfd5"/></g></g><g><g><path d="m322.178 453.182h-132.356l10-73.724h112.356z" fill="#e3e0e4"/></g></g><g><g><path d="m312.178 379.458h-30l10 73.724h30z" fill="#d4cfd5"/></g></g><g><g><path d="m289.73 216.184h145.357c4.315 0 7.813 3.498 7.813 7.813v29.748c0 4.315-3.498 7.813-7.813 7.813h-5.63c-2.833 0-5.45 1.511-6.866 3.964l-9.037 15.653c-2.761 4.782-9.664 4.782-12.425 0l-9.037-15.653c-1.416-2.453-4.034-3.964-6.867-3.964h-95.495c-4.315 0-7.813-3.498-7.813-7.813v-29.748c0-4.315 3.498-7.813 7.813-7.813z" fill="#d4cfd5"/></g></g><g><g><path d="m435.087 216.184h-30c4.315 0 7.813 3.498 7.813 7.813v24.118c0 7.424-6.019 13.443-13.443 13.443-2.833 0-5.45 1.511-6.866 3.964l-.25.432 8.788 15.221c2.761 4.782 9.664 4.782 12.425 0l9.037-15.653c1.416-2.453 4.034-3.964 6.866-3.964h5.63c4.315 0 7.813-3.498 7.813-7.813v-29.748c0-4.315-3.498-7.813-7.813-7.813z" fill="#c5bec6"/></g></g><g><g><path d="m435.087 115.178h-145.357c-4.315 0-7.813 3.498-7.813 7.813v29.748c0 4.315 3.498 7.813 7.813 7.813h5.63c2.833 0 5.45 1.511 6.866 3.964l9.037 15.653c2.761 4.782 9.664 4.782 12.425 0l9.037-15.653c1.416-2.453 4.034-3.964 6.866-3.964h95.495c4.315 0 7.813-3.498 7.813-7.813v-29.749c.001-4.314-3.497-7.812-7.812-7.812z" fill="#92e0c4"/></g></g><g><g><path d="m435.087 115.178h-30c4.315 0 7.813 3.498 7.813 7.813v29.748c0 4.315-3.498 7.813-7.813 7.813h30c4.315 0 7.813-3.498 7.813-7.813v-29.749c0-4.314-3.498-7.812-7.813-7.812z" fill="#77d1b3"/></g></g><g><circle cx="65.432" cy="126.871" r="7.5"/><circle cx="65.432" cy="168.754" r="7.5"/><circle cx="65.432" cy="210.637" r="7.5"/><circle cx="65.432" cy="252.52" r="7.5"/><path d="m274.417 253.745c0 8.443 6.869 15.313 15.313 15.313h95.495c.152 0 .294.082.371.214l9.037 15.653c2.652 4.594 7.402 7.337 12.707 7.337h.001c5.305 0 10.055-2.743 12.707-7.337l9.037-15.653c.076-.133.219-.215.372-.215h5.63c8.443 0 15.313-6.869 15.313-15.313v-29.748c0-8.443-6.869-15.313-15.313-15.313h-145.357c-8.443 0-15.313 6.869-15.313 15.313zm15-29.748c0-.172.14-.313.313-.313h145.357c.172 0 .313.14.313.313v29.748c0 .172-.14.313-.313.313h-5.63c-5.494 0-10.614 2.956-13.362 7.714l-8.754 15.163-8.754-15.163c-2.747-4.759-7.867-7.715-13.362-7.715h-95.495c-.172 0-.313-.14-.313-.313z"/><path d="m289.73 168.051h5.63c.153 0 .295.082.371.214l9.037 15.654c2.653 4.594 7.403 7.337 12.708 7.336 5.304 0 10.055-2.743 12.707-7.337l9.038-15.654c.076-.132.218-.214.371-.214h95.495c8.443 0 15.313-6.869 15.313-15.313v-29.747c0-8.444-6.869-15.313-15.313-15.313h-145.357c-8.443 0-15.313 6.869-15.313 15.313v29.748c0 8.444 6.87 15.313 15.313 15.313zm-.313-45.061c0-.172.14-.313.313-.313h145.357c.172 0 .313.14.313.313v29.748c0 .172-.14.313-.313.313h-95.495c-5.495 0-10.615 2.956-13.361 7.714l-8.755 15.164-8.754-15.164c-2.748-4.758-7.868-7.714-13.362-7.714h-5.63c-.172 0-.313-.14-.313-.313z"/><path d="m209.359 119.371h-112.807c-4.142 0-7.5 3.358-7.5 7.5s3.358 7.5 7.5 7.5h112.808c4.142 0 7.5-3.358 7.5-7.5-.001-4.142-3.359-7.5-7.501-7.5z"/><path d="m209.359 161.254h-112.807c-4.142 0-7.5 3.358-7.5 7.5s3.358 7.5 7.5 7.5h112.808c4.142 0 7.5-3.358 7.5-7.5-.001-4.142-3.359-7.5-7.501-7.5z"/><path d="m209.359 203.137h-112.807c-4.142 0-7.5 3.358-7.5 7.5s3.358 7.5 7.5 7.5h112.808c4.142 0 7.5-3.358 7.5-7.5-.001-4.142-3.359-7.5-7.501-7.5z"/><path d="m209.359 245.02h-112.807c-4.142 0-7.5 3.358-7.5 7.5s3.358 7.5 7.5 7.5h112.808c4.142 0 7.5-3.358 7.5-7.5-.001-4.142-3.359-7.5-7.501-7.5z"/><path d="m481.755 51.318h-340.23c-4.142 0-7.5 3.358-7.5 7.5s3.358 7.5 7.5 7.5h340.23c8.406 0 15.245 6.839 15.245 15.245v227.115h-244.441c-4.142 0-7.5 3.358-7.5 7.5s3.358 7.5 7.5 7.5h244.441v33.035c0 8.406-6.839 15.245-15.245 15.245h-451.51c-8.406 0-15.245-6.839-15.245-15.245v-33.035h207.559c4.142 0 7.5-3.358 7.5-7.5s-3.358-7.5-7.5-7.5h-207.559v-227.115c0-8.406 6.839-15.245 15.245-15.245h81.28c4.142 0 7.5-3.358 7.5-7.5s-3.358-7.5-7.5-7.5h-81.28c-16.677 0-30.245 13.568-30.245 30.245v275.15c0 16.677 13.568 30.245 30.245 30.245h160.991l-7.965 58.724h-23.571c-4.142 0-7.5 3.358-7.5 7.5s3.358 7.5 7.5 7.5h187.028c4.142 0 7.5-3.358 7.5-7.5s-3.358-7.5-7.5-7.5h-17.998l-7.965-58.724h160.991c16.677 0 30.245-13.568 30.245-30.245v-275.15c-.001-16.677-13.569-30.245-30.246-30.245zm-168.163 394.364h-115.184l7.965-58.724h99.254z"/></g></g></svg>