<svg id="Capa_1" enable-background="new 0 0 509.752 509.752" height="512" viewBox="0 0 509.752 509.752" width="512" xmlns="http://www.w3.org/2000/svg"><g><g><g><path d="m260.765 15.857 237.517 176.828c3.102 2.309 4.568 6.219 3.748 9.999l-31.887 285.366c-.984 4.535-4.996 7.771-9.637 7.771h-411.26c-4.64 0-8.653-3.236-9.637-7.771l-31.887-285.366c-.82-3.78.646-7.69 3.748-9.999l237.518-176.828c3.494-2.602 8.282-2.602 11.777 0z" fill="#bed9fd"/></g></g><g><g><path d="m498.282 192.685-237.517-176.828c-3.495-2.602-8.282-2.602-11.777 0l-9.111 6.783 228.406 170.045c3.102 2.309 4.568 6.22 3.748 9.999l-31.888 285.366c-.984 4.535-4.996 7.771-9.637 7.771h30c4.641 0 8.653-3.236 9.637-7.771l31.887-285.366c.82-3.78-.646-7.69-3.748-9.999z" fill="#9ec8fc"/></g></g><g><g><path d="m78.046 453.82-26.65-238.498 203.48-151.488 203.48 151.488-26.649 238.498z" fill="#fdfcfc"/></g></g><g><g><path d="m254.876 63.834-17.687 13.168 191.167 142.32-26.202 234.498h29.553l26.649-238.498z" fill="#f1f1f1"/></g></g><g><g><path d="m363.905 411.509h-218.058c-7.369 0-13.342-5.973-13.342-13.342v-92.462c0-7.369 5.973-13.342 13.342-13.342h218.058c7.369 0 13.342 5.973 13.342 13.342v92.462c0 7.369-5.973 13.342-13.342 13.342z" fill="#f8e883"/></g></g><g><g><path d="m363.905 292.363h-30c7.369 0 13.342 5.973 13.342 13.342v92.462c0 7.369-5.973 13.342-13.342 13.342h30c7.369 0 13.342-5.973 13.342-13.342v-92.462c0-7.368-5.973-13.342-13.342-13.342z" fill="#f7e365"/></g></g><g><g><path d="m186.732 322.67c9.489 0 19.061 5.971 19.061 16.933 0 17.751-25.277 23.559-25.277 31.003v.736h21.432c2.046 0 3.846 2.536 3.846 5.48 0 2.945-1.8 5.645-3.846 5.645h-29.121c-2.291 0-5.563-1.554-5.563-3.926v-7.935c0-12.843 25.768-20.205 25.768-30.594 0-2.618-1.636-5.808-6.217-5.808-3.271 0-6.135 1.636-6.135 6.135 0 2.372-2.536 4.663-6.708 4.663-3.272 0-5.726-1.473-5.726-6.626 0-9.98 9.161-15.706 18.486-15.706z"/></g><g><path d="m232.543 369.869h-19.142c-2.372 0-4.254-1.554-4.254-4.417 0-.654.163-1.554.655-2.454l18.895-37.057c1.228-2.372 3.272-3.272 5.317-3.272 2.209 0 6.381 1.881 6.381 4.826 0 .491-.164.982-.409 1.554l-14.479 29.04h7.035v-5.726c0-2.7 3.19-3.845 6.381-3.845 3.189 0 6.381 1.145 6.381 3.845v5.726h3.518c2.617 0 3.926 2.945 3.926 5.89s-1.963 5.89-3.926 5.89h-3.518v8.671c0 2.617-3.191 3.926-6.381 3.926s-6.381-1.309-6.381-3.926v-8.671z"/></g><g><path d="m294.551 323.651c0 .491-.082 1.064-.327 1.554l-28.794 58.98c-.573 1.227-2.127 2.045-3.682 2.045-2.781 0-4.581-2.29-4.581-4.335 0-.491.163-1.063.409-1.554l28.713-58.979c.654-1.391 1.963-2.045 3.435-2.045 2.291-.001 4.827 1.716 4.827 4.334z"/></g><g><path d="m340.361 336.821c0 2.126-1.309 5.317-2.618 7.771l-19.142 36.647c-.654 1.227-1.881 1.718-3.6 1.718-4.008 0-8.098-2.781-8.098-6.462 0-.736.163-1.391.572-2.127l20.123-34.848v-5.726h-14.642v5.48c0 2.209-3.108 3.927-6.463 3.927-3.436 0-6.299-1.718-6.299-3.927v-12.679c0-1.963 2.781-3.926 5.563-3.926h29.041c2.453 0 5.563 1.963 5.563 3.926z"/></g></g><g><path d="m502.761 186.669-237.518-176.828c-6.102-4.544-14.628-4.546-20.733 0l-237.518 176.828c-5.332 3.969-7.927 10.67-6.687 17.176l31.85 285.039c.029.254.07.506.124.756 1.72 7.927 8.854 13.681 16.967 13.681h124.406c4.143 0 7.5-3.358 7.5-7.5s-3.357-7.5-7.5-7.5h-124.406c-1.018 0-1.924-.667-2.24-1.617l-31.829-284.853c-.029-.254-.07-.507-.125-.758-.195-.902.156-1.841.898-2.393l237.518-176.828c.829-.618 1.989-.617 2.818.001l237.517 176.827c.741.552 1.094 1.492.897 2.394-.054.25-.095.502-.124.756l-31.83 284.853c-.316.95-1.222 1.617-2.239 1.617h-256.855c-4.143 0-7.5 3.358-7.5 7.5s3.357 7.5 7.5 7.5h256.854c8.111 0 15.246-5.754 16.966-13.681.054-.25.095-.503.124-.756l31.851-285.039c1.24-6.505-1.355-13.206-6.686-17.175z"/><path d="m439.161 454.653 26.648-238.499c.297-2.649-.836-5.257-2.975-6.849l-203.48-151.487c-2.658-1.979-6.299-1.979-8.957 0l-203.479 151.488c-2.139 1.592-3.271 4.2-2.975 6.849l26.649 238.499c.424 3.796 3.633 6.667 7.453 6.667h353.661c3.821-.001 7.03-2.872 7.455-6.668zm-354.406-8.333-25.427-227.553 195.548-145.583 195.549 145.583-25.427 227.553z"/><path d="m221.168 243.42c-2.891 2.967-2.828 7.715.139 10.606 1.458 1.42 3.346 2.127 5.232 2.127 1.952 0 3.903-.758 5.373-2.267 6.087-6.248 14.241-9.689 22.962-9.689 8.563 0 16.613 3.334 22.667 9.389 2.93 2.929 7.678 2.929 10.607 0s2.929-7.678 0-10.606c-8.888-8.888-20.705-13.782-33.274-13.782-12.802-.001-24.772 5.05-33.706 14.222z"/><path d="m313.121 228.611c2.93-2.929 2.93-7.677.001-10.606-15.559-15.559-36.244-24.127-58.248-24.127-22.52 0-43.548 8.916-59.21 25.105-2.88 2.977-2.801 7.725.176 10.605 1.456 1.409 3.336 2.11 5.214 2.11 1.961 0 3.92-.765 5.392-2.285 12.811-13.242 30.01-20.535 48.429-20.535 17.997 0 34.916 7.008 47.641 19.733 2.928 2.929 7.677 2.93 10.605 0z"/><path d="m183.077 206.976c18.979-19.664 44.477-30.494 71.797-30.494 27.323 0 52.822 10.831 71.802 30.497 1.472 1.525 3.433 2.292 5.397 2.292 1.875 0 3.752-.699 5.207-2.103 2.98-2.877 3.065-7.625.189-10.605-21.831-22.622-51.164-35.081-82.595-35.081-31.428 0-60.759 12.457-82.59 35.077-2.877 2.98-2.792 7.729.189 10.605 2.979 2.876 7.727 2.792 10.604-.188z"/><path d="m377.247 284.863h-146.192c-4.143 0-7.5 3.358-7.5 7.5s3.357 7.5 7.5 7.5h138.692v104.146h-229.742v-104.146h61.05c4.143 0 7.5-3.358 7.5-7.5s-3.357-7.5-7.5-7.5h-68.55c-4.143 0-7.5 3.358-7.5 7.5v119.146c0 4.142 3.357 7.5 7.5 7.5h244.742c4.143 0 7.5-3.358 7.5-7.5v-119.146c0-4.142-3.357-7.5-7.5-7.5z"/></g></g></svg>