<svg id="Capa_1" enable-background="new 0 0 509.936 509.936" height="512" viewBox="0 0 509.936 509.936" width="512" xmlns="http://www.w3.org/2000/svg"><g><g><g><path d="m278.861 502.436h102.132c14.846 0 26.882-12.035 26.882-26.882v-249.616c0-2.58-2.092-4.672-4.672-4.672h-119.669c-2.581 0-4.672 2.092-4.672 4.672v276.498z" fill="#a59da7"/></g></g><g><g><path d="m403.202 221.265h-30c2.581 0 4.672 2.092 4.672 4.672v249.616c0 14.846-12.035 26.882-26.882 26.882h30c14.846 0 26.882-12.035 26.882-26.882v-249.615c.001-2.581-2.091-4.673-4.672-4.673z" fill="#968d97"/></g></g><g><g><path d="m231.075 502.436h-102.132c-14.846 0-26.882-12.035-26.882-26.882v-249.616c0-2.58 2.092-4.672 4.672-4.672h119.669c2.58 0 4.672 2.092 4.672 4.672v276.498z" fill="#a59da7"/></g></g><g><g><circle cx="252.639" cy="130.249" fill="#9ec8fc" r="22.395"/></g></g><g><g><path d="m335.775 502.436h-166.267v-360.453c0-2.58 2.092-4.672 4.672-4.672h156.923c2.581 0 4.673 2.092 4.673 4.673v360.452z" fill="#e3e0e4"/></g></g><g><g><path d="m331.103 137.311h-30c2.581 0 4.673 2.092 4.673 4.672v360.453h30v-360.453c-.001-2.581-2.092-4.672-4.673-4.672z" fill="#d4cfd5"/></g></g><g><g><path d="m169.508 383.019h166.268v119.417h-166.268z" fill="#fdfcfc"/></g></g><g><g><path d="m305.775 383.019h30v119.417h-30z" fill="#f1f1f1"/></g></g><g><path d="m407.875 254.058c4.142 0 7.5-3.358 7.5-7.5v-20.822c0-6.601-5.37-11.971-11.971-11.971h-60.128v-71.783c0-6.712-5.461-12.172-12.173-12.172h-48.579c-.236-16.282-13.547-29.457-29.884-29.457s-29.648 13.175-29.884 29.457h-48.576c-6.712 0-12.172 5.46-12.172 12.172v71.783h-55.476c-6.601 0-11.971 5.37-11.971 11.971v106.114c0 4.142 3.358 7.5 7.5 7.5s7.5-3.358 7.5-7.5v-103.084h52.446v24.171h-24.937c-4.142 0-7.5 3.358-7.5 7.5s3.358 7.5 7.5 7.5h24.937v25.566h-24.937c-4.142 0-7.5 3.358-7.5 7.5s3.358 7.5 7.5 7.5h24.937v25.565h-24.937c-4.142 0-7.5 3.358-7.5 7.5s3.358 7.5 7.5 7.5h24.937v25.565h-24.937c-4.142 0-7.5 3.358-7.5 7.5s3.358 7.5 7.5 7.5h24.937v25.566h-24.937c-4.142 0-7.5 3.358-7.5 7.5s3.358 7.5 7.5 7.5h24.937v25.565h-24.937c-4.142 0-7.5 3.358-7.5 7.5s3.358 7.5 7.5 7.5h24.937v24.171h-34.225c-10.047 0-18.221-8.174-18.221-18.221v-114.863c0-4.142-3.358-7.5-7.5-7.5s-7.5 3.358-7.5 7.5v114.864c0 18.318 14.903 33.221 33.221 33.221h254.371c18.318 0 33.221-14.903 33.221-33.221v-200.157c0-4.142-3.358-7.5-7.5-7.5s-7.5 3.358-7.5 7.5v200.157c0 10.047-8.174 18.221-18.221 18.221h-38.878v-24.171h24.12c4.142 0 7.5-3.358 7.5-7.5s-3.358-7.5-7.5-7.5h-24.12v-25.565h24.12c4.142 0 7.5-3.358 7.5-7.5s-3.358-7.5-7.5-7.5h-24.12v-25.566h24.12c4.142 0 7.5-3.358 7.5-7.5s-3.358-7.5-7.5-7.5h-24.12v-25.565h24.12c4.142 0 7.5-3.358 7.5-7.5s-3.358-7.5-7.5-7.5h-24.12v-25.565h24.12c4.142 0 7.5-3.358 7.5-7.5s-3.358-7.5-7.5-7.5h-24.12v-25.566h24.12c4.142 0 7.5-3.358 7.5-7.5s-3.358-7.5-7.5-7.5h-24.12v-24.171h57.099v17.792c.001 4.141 3.359 7.499 7.501 7.499zm-155.236-138.704c8.065 0 14.638 6.448 14.873 14.457h-29.746c.235-8.01 6.808-14.457 14.873-14.457zm75.637 29.457v230.709h-151.268v-230.709zm-151.268 245.708h68.134v104.417h-68.134zm151.268 104.417h-68.134v-104.417h68.134z"/><path d="m221.254 77.287c-2.891 2.967-2.829 7.715.139 10.605 1.458 1.42 3.346 2.128 5.233 2.128 1.952 0 3.903-.758 5.373-2.267 5.444-5.588 12.737-8.665 20.537-8.665 7.658 0 14.857 2.982 20.272 8.397 2.93 2.929 7.677 2.928 10.607 0 2.929-2.929 2.928-7.678 0-10.607-8.249-8.248-19.215-12.79-30.879-12.79-11.881 0-22.991 4.687-31.282 13.199z"/><path d="m306.25 64.648c2.929-2.929 2.929-7.678 0-10.606-14.348-14.348-33.424-22.25-53.715-22.25-20.768 0-40.16 8.222-54.602 23.152-2.88 2.978-2.801 7.726.176 10.605 1.457 1.409 3.337 2.109 5.214 2.109 1.961 0 3.92-.765 5.392-2.285 11.591-11.982 27.154-18.582 43.821-18.582 16.285 0 31.594 6.341 43.109 17.856 2.928 2.93 7.677 2.93 10.605.001z"/><path d="m187.346 42.687c17.231-17.854 40.383-27.687 65.189-27.687 24.808 0 47.96 9.834 65.192 27.69 1.472 1.525 3.434 2.292 5.398 2.292 1.875 0 3.751-.699 5.207-2.103 2.98-2.876 3.065-7.625.189-10.605-20.085-20.812-47.071-32.274-75.986-32.274-28.914 0-55.898 11.46-75.982 32.27-2.877 2.98-2.793 7.729.188 10.605 2.98 2.876 7.728 2.791 10.605-.188z"/><path d="m206.649 183.412h29.615c4.142 0 7.5-3.358 7.5-7.5s-3.358-7.5-7.5-7.5h-29.615c-4.142 0-7.5 3.358-7.5 7.5s3.358 7.5 7.5 7.5z"/><path d="m269.019 183.412h29.615c4.142 0 7.5-3.358 7.5-7.5s-3.358-7.5-7.5-7.5h-29.615c-4.142 0-7.5 3.358-7.5 7.5s3.358 7.5 7.5 7.5z"/><path d="m206.649 218.812h29.615c4.142 0 7.5-3.358 7.5-7.5s-3.358-7.5-7.5-7.5h-29.615c-4.142 0-7.5 3.358-7.5 7.5s3.358 7.5 7.5 7.5z"/><path d="m269.019 218.812h29.615c4.142 0 7.5-3.358 7.5-7.5s-3.358-7.5-7.5-7.5h-29.615c-4.142 0-7.5 3.358-7.5 7.5s3.358 7.5 7.5 7.5z"/><path d="m206.649 254.211h29.615c4.142 0 7.5-3.358 7.5-7.5s-3.358-7.5-7.5-7.5h-29.615c-4.142 0-7.5 3.358-7.5 7.5s3.358 7.5 7.5 7.5z"/><path d="m269.019 254.211h29.615c4.142 0 7.5-3.358 7.5-7.5s-3.358-7.5-7.5-7.5h-29.615c-4.142 0-7.5 3.358-7.5 7.5s3.358 7.5 7.5 7.5z"/><path d="m206.649 289.61h29.615c4.142 0 7.5-3.358 7.5-7.5s-3.358-7.5-7.5-7.5h-29.615c-4.142 0-7.5 3.358-7.5 7.5 0 4.143 3.358 7.5 7.5 7.5z"/><path d="m269.019 289.61h29.615c4.142 0 7.5-3.358 7.5-7.5s-3.358-7.5-7.5-7.5h-29.615c-4.142 0-7.5 3.358-7.5 7.5 0 4.143 3.358 7.5 7.5 7.5z"/><path d="m206.649 325.01h29.615c4.142 0 7.5-3.358 7.5-7.5s-3.358-7.5-7.5-7.5h-29.615c-4.142 0-7.5 3.358-7.5 7.5s3.358 7.5 7.5 7.5z"/><path d="m269.019 325.01h29.615c4.142 0 7.5-3.358 7.5-7.5s-3.358-7.5-7.5-7.5h-29.615c-4.142 0-7.5 3.358-7.5 7.5s3.358 7.5 7.5 7.5z"/><path d="m206.649 360.409h29.615c4.142 0 7.5-3.358 7.5-7.5s-3.358-7.5-7.5-7.5h-29.615c-4.142 0-7.5 3.358-7.5 7.5s3.358 7.5 7.5 7.5z"/><path d="m269.019 360.409h29.615c4.142 0 7.5-3.358 7.5-7.5s-3.358-7.5-7.5-7.5h-29.615c-4.142 0-7.5 3.358-7.5 7.5s3.358 7.5 7.5 7.5z"/><path d="m220.618 422.684c-4.142 0-7.5 3.358-7.5 7.5v12.915c0 4.142 3.358 7.5 7.5 7.5s7.5-3.358 7.5-7.5v-12.915c0-4.142-3.357-7.5-7.5-7.5z"/><path d="m278.023 450.598c4.142 0 7.5-3.358 7.5-7.5v-12.915c0-4.142-3.358-7.5-7.5-7.5s-7.5 3.358-7.5 7.5v12.915c0 4.142 3.358 7.5 7.5 7.5z"/></g></g></svg>