<svg id="Capa_1" enable-background="new 0 0 509.745 509.745" height="512" viewBox="0 0 509.745 509.745" width="512" xmlns="http://www.w3.org/2000/svg"><g><g><g><path d="m421.996 502.245h-45.366c-8.171 0-14.795-6.624-14.795-14.795v-9.485c0-8.171 6.624-14.795 14.795-14.795h45.366c8.666 0 15.691 7.025 15.691 15.691v7.693c0 8.666-7.025 15.691-15.691 15.691z" fill="#968d97"/></g></g><g><g><path d="m198.766 306.78h-21.252v-121.825h21.252c11.177 0 20.238 9.061 20.238 20.238v81.348c0 11.178-9.061 20.239-20.238 20.239z" fill="#d4cfd5"/></g></g><g><g><path d="m156.237 152.554h-29.915v-130.096c0-8.261 6.697-14.958 14.958-14.958 8.261 0 14.958 6.697 14.958 14.958v130.096z" fill="#5392f9"/></g></g><g><g><path d="m177.515 138.754c0-2.756-2.32-4.965-5.071-4.799-56.007 3.389-100.387 49.858-100.387 106.717s44.38 103.328 100.387 106.717c2.751.167 5.071-2.043 5.071-4.799z" fill="#9ec8fc"/></g></g><g><g><path d="m172.444 133.955c-8.636.523-16.995 2.073-24.958 4.524.005.093.029.18.029.274v203.837c0 .094-.023.182-.029.274 7.963 2.451 16.322 4.001 24.958 4.524 2.751.167 5.071-2.043 5.071-4.798v-203.836c0-2.756-2.32-4.965-5.071-4.799z" fill="#80b6fc"/></g></g><g><g><circle cx="147.733" cy="194.955" fill="#18191b" r="7.5"/></g></g><g><g><circle cx="147.733" cy="237.795" fill="#18191b" r="7.5"/></g></g><g><g><circle cx="147.733" cy="280.635" fill="#18191b" r="7.5"/></g></g><path d="m421.996 455.669h-45.366c-9.8 0-18.137 6.358-21.119 15.164l-8.067-2.689c-36.006-12.002-67.884-28.603-94.749-49.342-27.985-21.605-50.738-47.909-67.68-78.188v-26.335h13.752c15.295 0 27.738-12.443 27.738-27.738v-.424c0-4.142-3.358-7.5-7.5-7.5s-7.5 3.358-7.5 7.5v.424c0 7.023-5.714 12.738-12.738 12.738h-13.752v-106.824h13.752c7.024 0 12.738 5.714 12.738 12.738v50.925c0 4.142 3.358 7.5 7.5 7.5s7.5-3.358 7.5-7.5v-50.925c0-15.295-12.443-27.738-27.738-27.738h-13.752v-38.701c0-3.381-1.413-6.65-3.876-8.969-2.455-2.311-5.786-3.52-9.147-3.316-2.781.168-5.533.437-8.254.8v-104.811c-.002-12.384-10.076-22.458-22.459-22.458s-22.458 10.074-22.458 22.458v42.77c0 4.142 3.358 7.5 7.5 7.5s7.5-3.358 7.5-7.5v-42.77c0-4.112 3.345-7.458 7.458-7.458 4.112 0 7.458 3.345 7.458 7.458v107.855c-5.127 1.403-10.107 3.153-14.915 5.223v-40.308c0-4.142-3.358-7.5-7.5-7.5s-7.5 3.358-7.5 7.5v48.074c0 .02.003.04.003.061-32.648 20.253-54.267 56.436-54.267 97.31 0 60.395 47.19 110.559 107.434 114.204.244.015.487.022.73.022 1.019 0 2.026-.141 3.005-.389 17.485 29.296 40.247 54.895 67.803 76.167 28.199 21.77 61.566 39.164 99.172 51.699l9.194 3.065c.787.262 1.586.387 2.372.387.023 0 .044-.005.067-.005v1.629c0 12.294 10.001 22.295 22.295 22.295h45.366c12.788 0 23.191-10.404 23.191-23.191v-7.693c.001-12.79-10.403-23.194-23.191-23.194zm-321.67-275.745c8.6 38.635 7.329 78.413-3.712 116.367-10.776-15.921-17.057-35.088-17.057-55.62 0-22.786 7.735-43.894 20.769-60.747zm7.651 130.281c15.586-46.504 17.17-95.974 4.574-143.454 15.491-13.945 35.402-23.118 57.464-25.093v198.029c-24.299-2.175-45.989-13.083-62.038-29.482zm322.211 176.348c0 4.517-3.675 8.191-8.191 8.191h-45.367c-4.022 0-7.295-3.273-7.295-7.295v-9.485c0-4.023 3.273-7.295 7.295-7.295h45.366c4.517 0 8.191 3.675 8.191 8.191v7.693z"/></g></svg>