<svg id="Capa_1" enable-background="new 0 0 512 512" height="512" viewBox="0 0 512 512" width="512" xmlns="http://www.w3.org/2000/svg"><g><g><g><path d="m481.756 457.957h-451.511c-12.562 0-22.745-10.183-22.745-22.745v-275.15c0-12.562 10.183-22.745 22.745-22.745h451.511c12.561 0 22.745 10.183 22.745 22.745v275.15c-.001 12.562-10.184 22.745-22.745 22.745z" fill="#fdfcfc"/></g></g><g><g><path d="m481.756 137.318h-30c12.561 0 22.745 10.183 22.745 22.745v275.15c0 12.562-10.183 22.745-22.745 22.745h30c12.561 0 22.745-10.183 22.745-22.745v-275.15c-.001-12.562-10.184-22.745-22.745-22.745z" fill="#f1f1f1"/></g></g><g><g><path d="m7.5 394.677v40.535c0 12.561 10.183 22.745 22.745 22.745h451.511c12.562 0 22.745-10.183 22.745-22.745v-40.535z" fill="#e3e0e4"/></g></g><g><g><path d="m474.5 394.677v40.535c0 12.562-10.183 22.745-22.745 22.745h30c12.562 0 22.745-10.183 22.745-22.745v-40.535z" fill="#d4cfd5"/></g></g><g><g><path d="m373.169 339.645h-234.338c-9.739 0-17.634-7.895-17.634-17.634v-35.263c0-9.739 7.895-17.634 17.634-17.634h234.338c9.739 0 17.634 7.895 17.634 17.634v35.263c0 9.739-7.895 17.634-17.634 17.634z" fill="#d4cfd5"/></g></g><g><g><path d="m373.169 269.114h-30c9.739 0 17.634 7.895 17.634 17.634v35.263c0 9.739-7.895 17.634-17.634 17.634h30c9.739 0 17.634-7.895 17.634-17.634v-35.263c0-9.739-7.895-17.634-17.634-17.634z" fill="#c5bec6"/></g></g><g><path d="m186.057 295.139-18.48 18.481" fill="#f6efee"/></g><g><path d="m167.577 295.139 18.48 18.481" fill="#f6efee"/></g><g><path d="m238.846 295.139-18.48 18.481" fill="#f6efee"/></g><g><path d="m220.366 295.139 18.48 18.481" fill="#f6efee"/></g><g><path d="m291.635 295.139-18.48 18.481" fill="#f6efee"/></g><g><path d="m273.155 295.139 18.48 18.481" fill="#f6efee"/></g><g><path d="m344.424 295.139-18.48 18.481" fill="#f6efee"/></g><g><path d="m325.944 295.139 18.48 18.481" fill="#f6efee"/></g><g><g><path d="m294.379 211.08h-86.191c-5.602 0-10.143-4.541-10.143-10.143v-70.834c0-5.602 4.541-10.143 10.143-10.143h86.191c5.602 0 10.143 4.541 10.143 10.143v70.834c0 5.602-4.541 10.143-10.143 10.143z" fill="#f8e883"/></g></g><g><g><path d="m294.379 119.96h-30c5.602 0 10.143 4.541 10.143 10.143v70.834c0 5.602-4.541 10.143-10.143 10.143h30c5.602 0 10.143-4.541 10.143-10.143v-70.834c0-5.602-4.541-10.143-10.143-10.143z" fill="#f7e365"/></g></g><g><path d="m162.273 318.923c1.464 1.464 3.384 2.197 5.303 2.197s3.839-.732 5.303-2.197l3.937-3.937 3.937 3.937c1.464 1.464 3.384 2.197 5.303 2.197 1.92 0 3.839-.732 5.303-2.197 2.929-2.929 2.929-7.678 0-10.607l-3.937-3.937 3.937-3.937c2.929-2.929 2.929-7.678 0-10.607s-7.678-2.929-10.606 0l-3.937 3.937-3.937-3.937c-2.929-2.929-7.678-2.929-10.606 0-2.929 2.929-2.929 7.678 0 10.607l3.937 3.937-3.937 3.937c-2.929 2.929-2.929 7.678 0 10.607z"/><path d="m215.063 318.923c1.464 1.464 3.384 2.197 5.303 2.197s3.839-.732 5.303-2.197l3.937-3.937 3.937 3.937c1.464 1.464 3.384 2.197 5.303 2.197s3.839-.732 5.303-2.197c2.929-2.929 2.929-7.678 0-10.607l-3.937-3.937 3.937-3.937c2.929-2.929 2.929-7.678 0-10.607s-7.678-2.929-10.606 0l-3.937 3.937-3.937-3.937c-2.929-2.929-7.678-2.929-10.606 0-2.929 2.929-2.929 7.678 0 10.607l3.937 3.937-3.937 3.937c-2.93 2.929-2.93 7.678 0 10.607z"/><path d="m267.851 318.923c1.465 1.465 3.384 2.197 5.304 2.197 1.919 0 3.839-.732 5.304-2.197l3.936-3.937 3.937 3.937c1.465 1.465 3.385 2.197 5.304 2.197s3.839-.732 5.304-2.197c2.929-2.929 2.929-7.678 0-10.607l-3.937-3.937 3.937-3.937c2.929-2.929 2.929-7.677 0-10.607-2.929-2.929-7.677-2.929-10.607 0l-3.937 3.937-3.936-3.937c-2.93-2.929-7.678-2.929-10.607 0s-2.929 7.678 0 10.607l3.937 3.937-3.937 3.937c-2.931 2.929-2.931 7.678-.002 10.607z"/><path d="m320.64 318.923c1.465 1.465 3.384 2.197 5.304 2.197 1.919 0 3.839-.732 5.304-2.197l3.937-3.937 3.936 3.937c1.465 1.465 3.385 2.197 5.304 2.197s3.839-.732 5.304-2.197c2.929-2.929 2.929-7.678 0-10.607l-3.937-3.937 3.937-3.937c2.929-2.929 2.929-7.677 0-10.607s-7.677-2.929-10.607 0l-3.936 3.937-3.937-3.937c-2.93-2.929-7.678-2.929-10.607 0s-2.929 7.678 0 10.607l3.937 3.937-3.937 3.937c-2.931 2.929-2.931 7.678-.002 10.607z"/><path d="m373.169 347.145c13.858 0 25.134-11.275 25.134-25.134v-35.264c0-13.859-11.275-25.134-25.134-25.134h-234.338c-13.859 0-25.134 11.275-25.134 25.134v35.264c0 13.859 11.275 25.134 25.134 25.134zm-244.472-25.134v-35.264c0-5.588 4.546-10.134 10.134-10.134h234.338c5.588 0 10.134 4.546 10.134 10.134v35.264c0 5.588-4.546 10.134-10.134 10.134h-234.338c-5.587 0-10.134-4.546-10.134-10.134z"/><path d="m251.284 147.201c-4.142 0-7.5 3.358-7.5 7.5v21.876c0 4.142 3.358 7.5 7.5 7.5 4.143 0 7.5-3.358 7.5-7.5v-21.876c0-4.142-3.358-7.5-7.5-7.5z"/><path d="m481.755 129.818h-169.747c-.153-9.529-7.888-17.24-17.427-17.348v-22.63c0-23.874-19.423-43.297-43.297-43.297s-43.297 19.423-43.297 43.297v22.63c-9.539.108-17.274 7.82-17.427 17.348h-78.366c-4.142 0-7.5 3.358-7.5 7.5s3.358 7.5 7.5 7.5h78.352v56.119c0 9.729 7.915 17.643 17.643 17.643h86.191c9.729 0 17.643-7.915 17.643-17.643v-56.119h169.733c8.406 0 15.245 6.839 15.245 15.245v227.115h-482.001v-227.115c0-8.406 6.839-15.245 15.245-15.245h51.949c4.142 0 7.5-3.358 7.5-7.5s-3.358-7.5-7.5-7.5h-51.949c-16.677 0-30.245 13.568-30.245 30.245v275.15c0 16.677 13.568 30.245 30.245 30.245h149.903c4.142 0 7.5-3.358 7.5-7.5s-3.358-7.5-7.5-7.5h-149.903c-8.406 0-15.245-6.839-15.245-15.245v-33.035h482v33.035c0 8.406-6.839 15.245-15.245 15.245h-271.607c-4.142 0-7.5 3.358-7.5 7.5s3.358 7.5 7.5 7.5h271.607c16.677 0 30.245-13.568 30.245-30.245v-275.15c0-16.677-13.568-30.245-30.245-30.245zm-258.769-39.978c0-15.603 12.694-28.297 28.297-28.297 15.602 0 28.297 12.694 28.297 28.297v22.62h-56.594zm74.036 111.097c0 1.458-1.186 2.643-2.643 2.643h-86.191c-1.458 0-2.643-1.186-2.643-2.643v-70.834c0-1.458 1.186-2.643 2.643-2.643h86.191c1.457 0 2.643 1.185 2.643 2.643z"/></g></g></svg>