<svg id="Capa_1" enable-background="new 0 0 510.161 510.161" height="512" viewBox="0 0 510.161 510.161" width="512" xmlns="http://www.w3.org/2000/svg"><g><g><g><path d="m387.406 55.482v-41.977c0-3.316 2.688-6.005 6.005-6.005h54.117c3.316 0 6.005 2.689 6.005 6.005v47.527h-66.126v-5.55" fill="#968d97"/></g></g><g><g><path d="m235.286 431.039h-161.279c-15.184 0-27.492-12.309-27.492-27.492v-236.248c0-34.873 28.27-63.144 63.144-63.144h89.977c34.873 0 63.144 28.27 63.144 63.144v236.247c-.002 15.184-12.31 27.493-27.494 27.493z" fill="#e3e0e4"/></g></g><g><g><path d="m199.635 104.156h-30c34.874 0 63.144 28.27 63.144 63.144v236.247c0 15.184-12.309 27.492-27.492 27.492h30c15.184 0 27.492-12.309 27.492-27.492v-236.248c-.001-34.873-28.271-63.143-63.144-63.143z" fill="#d4cfd5"/></g></g><g><g><ellipse cx="152.757" cy="328.095" fill="#9ec8fc" rx="22.41" ry="22.41" transform="matrix(.383 -.924 .924 .383 -208.82 343.668)"/></g></g><g><g><path d="m463.646 61.032h-86.353v49.424c0 15.327 12.425 27.752 27.752 27.752h30.849c15.327 0 27.752-12.425 27.752-27.752z" fill="#e3e0e4"/></g></g><g><g><path d="m433.646 61.032v49.424c0 15.327-12.425 27.752-27.752 27.752h28.928c15.327 0 27.752-12.425 27.752-27.752v-49.424z" fill="#d4cfd5"/></g></g><g><path d="m185.056 278.208c-8.627-8.627-20.098-13.378-32.298-13.378-12.427 0-24.046 4.903-32.719 13.805-2.891 2.967-2.828 7.715.139 10.605 1.458 1.42 3.346 2.128 5.232 2.128 1.952 0 3.903-.758 5.373-2.267 5.825-5.979 13.629-9.272 21.975-9.272 8.193 0 15.898 3.191 21.69 8.984 2.93 2.929 7.678 2.929 10.608 0 2.929-2.927 2.929-7.676 0-10.605z"/><path d="m209.16 264.711c2.929-2.929 2.929-7.678 0-10.606-15.065-15.065-35.096-23.362-56.401-23.362-21.807 0-42.168 8.633-57.333 24.31-2.88 2.977-2.801 7.725.176 10.605 1.456 1.409 3.336 2.109 5.214 2.109 1.961 0 3.92-.765 5.392-2.286 12.313-12.728 28.846-19.739 46.552-19.739 17.299 0 33.563 6.737 45.794 18.969 2.928 2.929 7.676 2.929 10.606 0z"/><path d="m221.867 243.829c1.472 1.525 3.433 2.292 5.398 2.292 1.874 0 3.752-.699 5.207-2.103 2.98-2.876 3.065-7.624.188-10.605-21.119-21.885-49.495-33.937-79.901-33.937-30.404 0-58.78 12.051-79.898 33.933-2.877 2.98-2.792 7.729.188 10.605 2.979 2.876 7.728 2.791 10.604-.188 18.267-18.927 42.808-29.35 69.105-29.35 26.298 0 50.841 10.424 69.109 29.353z"/><path d="m152.758 298.185c-16.492 0-29.91 13.418-29.91 29.91 0 16.493 13.418 29.91 29.91 29.91s29.91-13.418 29.91-29.91c0-16.493-13.418-29.91-29.91-29.91zm0 44.82c-8.222 0-14.91-6.689-14.91-14.91 0-8.222 6.689-14.91 14.91-14.91 8.222 0 14.91 6.689 14.91 14.91s-6.689 14.91-14.91 14.91z"/><path d="m456.206 68.532c.468 3.692 3.621 6.548 7.44 6.548 4.143 0 7.5-3.358 7.5-7.5v-6.548c0-4.142-3.357-7.5-7.5-7.5h-2.613v-40.027c0-7.447-6.059-13.505-13.505-13.505h-54.117c-7.446 0-13.505 6.058-13.505 13.505v40.027h-2.613c-4.143 0-7.5 3.358-7.5 7.5v49.424c0 19.438 15.814 35.252 35.252 35.252h9.195v333.523c0 8.783-7.147 15.929-15.93 15.929h-222.12c-8.783 0-15.93-7.146-15.93-15.929v-40.692h75.025c19.295 0 34.992-15.698 34.992-34.993v-236.247c0-38.953-31.69-70.644-70.644-70.644h-89.977c-38.953 0-70.644 31.69-70.644 70.644v130.795c0 4.142 3.357 7.5 7.5 7.5s7.5-3.358 7.5-7.5v-130.795c0-30.682 24.962-55.644 55.644-55.644h89.977c30.682 0 55.644 24.961 55.644 55.644v236.247c0 11.024-8.969 19.993-19.992 19.993h-161.278c-11.024 0-19.992-8.969-19.992-19.993v-75.452c0-4.142-3.357-7.5-7.5-7.5s-7.5 3.358-7.5 7.5v75.452c0 19.295 15.697 34.993 34.992 34.993h71.254v40.692c0 17.054 13.875 30.929 30.93 30.929h222.12c17.055 0 30.93-13.875 30.93-30.929v-333.523h6.654c19.438 0 35.252-15.814 35.252-35.252v-12.876c0-4.142-3.357-7.5-7.5-7.5s-7.5 3.358-7.5 7.5v12.877c0 11.167-9.085 20.252-20.252 20.252h-30.85c-11.167 0-20.252-9.085-20.252-20.252v-41.925zm-61.3-53.532h51.127v38.532h-51.127z"/><path d="m423.838 26.766h-8.881c-4.143 0-7.5 3.358-7.5 7.5s3.357 7.5 7.5 7.5h8.881c4.143 0 7.5-3.358 7.5-7.5s-3.358-7.5-7.5-7.5z"/></g></g></svg>