<svg id="Capa_1" enable-background="new 0 0 510.582 510.582" height="512" viewBox="0 0 510.582 510.582" width="512" xmlns="http://www.w3.org/2000/svg"><g><g><g><path d="m503.082 28.132v157.047c0 11.247-9.117 20.364-20.364 20.364h-235.56c-11.247 0-20.364-9.117-20.364-20.364v-157.047c0-11.247 9.117-20.364 20.364-20.364h235.56c11.247 0 20.364 9.118 20.364 20.364z" fill="#fdfcfc"/></g></g><g><g><path d="m283.788 325.403v157.047c0 11.247-9.117 20.364-20.364 20.364h-235.56c-11.247 0-20.364-9.117-20.364-20.364v-157.047c0-11.247 9.117-20.364 20.364-20.364h235.56c11.247 0 20.364 9.117 20.364 20.364z" fill="#fdfcfc"/></g></g><g><g><path d="m482.718 7.768h-30c11.247 0 20.364 9.117 20.364 20.364v157.047c0 11.247-9.117 20.364-20.364 20.364h30c11.247 0 20.364-9.118 20.364-20.364v-157.047c0-11.246-9.117-20.364-20.364-20.364z" fill="#f1f1f1"/></g></g><g><g><path d="m263.424 305.039h-30c11.247 0 20.364 9.117 20.364 20.364v157.047c0 11.247-9.117 20.364-20.364 20.364h30c11.247 0 20.364-9.117 20.364-20.364v-157.047c0-11.247-9.117-20.364-20.364-20.364z" fill="#f1f1f1"/></g></g><g><g><path d="m317.094 159.702h-34.102c-6.242 0-11.303-5.061-11.303-11.303v-89.615c0-6.243 5.061-11.303 11.303-11.303h34.102c6.243 0 11.303 5.061 11.303 11.303v89.615c0 6.242-5.061 11.303-11.303 11.303z" fill="#92e0c4"/></g></g><g><g><path d="m317.094 47.481h-30c6.243 0 11.303 5.061 11.303 11.303v89.615c0 6.243-5.061 11.303-11.303 11.303h30c6.243 0 11.303-5.061 11.303-11.303v-89.615c0-6.242-5.061-11.303-11.303-11.303z" fill="#77d1b3"/></g></g><g><circle cx="47.341" cy="349.061" r="7.5"/><circle cx="47.341" cy="383.627" r="7.5"/><circle cx="47.341" cy="418.193" r="7.5"/><circle cx="47.341" cy="452.759" r="7.5"/><circle cx="372.567" cy="50.871" r="7.5"/><circle cx="372.567" cy="85.437" r="7.5"/><circle cx="372.567" cy="120.002" r="7.5"/><circle cx="372.567" cy="154.568" r="7.5"/><path d="m75.781 356.561h63.18c4.142 0 7.5-3.358 7.5-7.5s-3.358-7.5-7.5-7.5h-63.18c-4.142 0-7.5 3.358-7.5 7.5s3.358 7.5 7.5 7.5z"/><path d="m138.961 376.127h-63.18c-4.142 0-7.5 3.358-7.5 7.5s3.358 7.5 7.5 7.5h63.18c4.142 0 7.5-3.358 7.5-7.5s-3.357-7.5-7.5-7.5z"/><path d="m138.961 410.693h-63.18c-4.142 0-7.5 3.358-7.5 7.5s3.358 7.5 7.5 7.5h63.18c4.142 0 7.5-3.358 7.5-7.5s-3.357-7.5-7.5-7.5z"/><path d="m138.961 445.259h-63.18c-4.142 0-7.5 3.358-7.5 7.5s3.358 7.5 7.5 7.5h63.18c4.142 0 7.5-3.358 7.5-7.5s-3.357-7.5-7.5-7.5z"/><path d="m464.188 43.371h-63.181c-4.142 0-7.5 3.358-7.5 7.5s3.358 7.5 7.5 7.5h63.181c4.142 0 7.5-3.358 7.5-7.5s-3.358-7.5-7.5-7.5z"/><path d="m464.188 77.937h-63.181c-4.142 0-7.5 3.358-7.5 7.5s3.358 7.5 7.5 7.5h63.181c4.142 0 7.5-3.358 7.5-7.5s-3.358-7.5-7.5-7.5z"/><path d="m464.188 112.503h-63.181c-4.142 0-7.5 3.358-7.5 7.5s3.358 7.5 7.5 7.5h63.181c4.142 0 7.5-3.358 7.5-7.5s-3.358-7.5-7.5-7.5z"/><path d="m464.188 147.069h-63.181c-4.142 0-7.5 3.358-7.5 7.5s3.358 7.5 7.5 7.5h63.181c4.142 0 7.5-3.358 7.5-7.5s-3.358-7.5-7.5-7.5z"/><path d="m482.718.268h-235.56c-15.364 0-27.864 12.5-27.864 27.864v79.108c-45.335 3.512-81.15 41.524-81.15 87.745v29.045l-7.397-7.042c-2.999-2.856-7.747-2.74-10.603.26-2.856 2.999-2.74 7.747.26 10.603l17.74 16.89v52.799h-47.208c-4.142 0-7.5 3.358-7.5 7.5s3.358 7.5 7.5 7.5h86.689v96.691c0 19.218 15.635 34.853 34.853 34.853s34.853-15.635 34.853-34.853v-59.721c0-.368-.035-.726-.087-1.08-.874-10.879-9.989-19.469-21.09-19.469-11.677 0-21.176 9.499-21.176 21.176v45.233c0 4.142 3.358 7.5 7.5 7.5s7.5-3.358 7.5-7.5v-45.233c0-3.406 2.771-6.176 6.176-6.176 3.406 0 6.176 2.771 6.176 6.176v59.094c0 10.947-8.906 19.853-19.853 19.853s-19.853-8.906-19.853-19.853v-96.691h70.799c7.093 0 12.864 5.77 12.864 12.864v157.046c0 7.093-5.771 12.864-12.864 12.864h-235.559c-7.093 0-12.864-5.771-12.864-12.864v-157.047c0-7.093 5.771-12.864 12.864-12.864h33.072c4.142 0 7.5-3.358 7.5-7.5s-3.358-7.5-7.5-7.5h-33.072c-15.364 0-27.864 12.499-27.864 27.864v157.047c0 15.364 12.5 27.864 27.864 27.864h235.56c15.364 0 27.864-12.5 27.864-27.864v-53.951h1.206c48.529 0 88.01-39.481 88.01-88.011v-38.381l7.397 7.042c2.999 2.857 7.748 2.741 10.604-.26 2.856-3 2.739-7.747-.261-10.603l-17.74-16.889v-68.353h102.213c15.364 0 27.864-12.5 27.864-27.864v-157.047c.001-15.365-12.498-27.865-27.863-27.865zm-289.763 297.271c1.664-9.276 9.776-16.343 19.523-16.343s17.859 7.067 19.523 16.343zm302.627-112.36c0 7.093-5.771 12.864-12.864 12.864h-182.675c-4.142 0-7.5 3.358-7.5 7.5s3.358 7.5 7.5 7.5h65.462v68.353l-17.739 16.889c-3 2.856-3.117 7.604-.26 10.603 1.474 1.548 3.451 2.329 5.433 2.329 1.858 0 3.719-.686 5.17-2.068l7.397-7.042v38.381c0 40.258-32.753 73.011-73.01 73.011h-1.206v-88.097c0-15.364-12.5-27.864-27.864-27.864h-16.27c-1.766-17.576-16.643-31.343-34.676-31.343s-32.91 13.767-34.676 31.343h-24.658v-52.798l17.74-16.89c3-2.856 3.117-7.604.26-10.603-2.856-3.001-7.604-3.117-10.603-.26l-7.397 7.042v-29.045c0-37.944 29.098-69.207 66.15-72.678v62.873c0 15.364 12.499 27.864 27.864 27.864h22.885c4.142 0 7.5-3.358 7.5-7.5s-3.358-7.5-7.5-7.5h-22.885c-7.093 0-12.864-5.771-12.864-12.864v-157.046c0-7.093 5.77-12.864 12.864-12.864h235.56c7.093 0 12.864 5.771 12.864 12.864v157.046z"/><path d="m317.094 39.981h-34.102c-10.368 0-18.803 8.435-18.803 18.803v89.615c0 10.368 8.435 18.803 18.803 18.803h34.102c10.368 0 18.803-8.435 18.803-18.803v-89.615c0-10.368-8.436-18.803-18.803-18.803zm3.803 108.418c0 2.097-1.706 3.803-3.803 3.803h-34.102c-2.097 0-3.803-1.706-3.803-3.803v-89.615c0-2.097 1.706-3.803 3.803-3.803h34.102c2.097 0 3.803 1.706 3.803 3.803z"/></g></g></svg>