<svg id="Capa_1" enable-background="new 0 0 512 512" height="512" viewBox="0 0 512 512" width="512" xmlns="http://www.w3.org/2000/svg"><g><g><ellipse cx="256" cy="287.332" fill="#cd5668" rx="18.634" ry="18.633" transform="matrix(.159 -.987 .987 .159 -68.435 494.305)"/></g></g><g><g><ellipse cx="101.255" cy="287.332" fill="#cd5668" rx="18.634" ry="18.634" transform="matrix(.228 -.974 .974 .228 -201.593 320.429)"/></g></g><g><g><ellipse cx="410.744" cy="287.332" fill="#cd5668" rx="18.634" ry="18.634" transform="matrix(.842 -.54 .54 .842 -90.127 267.373)"/></g></g><g><g><path d="m387.766 198.179c5.856 0 11.215-3.209 14.066-8.324 4.565-8.191 7.168-17.625 7.168-27.668 0-28.517-20.964-52.137-48.32-56.293-.177-36.064-29.459-65.246-65.564-65.246-32.023 0-58.668 22.96-64.411 53.313-7.842-6.922-18.136-11.131-29.418-11.131-16.65 0-31.155 9.155-38.779 22.699-1.876-.186-3.777-.285-5.702-.285-31.448 0-56.942 25.494-56.942 56.942 0 10.043 2.603 19.477 7.168 27.668 2.851 5.115 8.21 8.324 14.066 8.324h266.668z" fill="#fdfcfc"/></g></g><g><g><path d="m360.679 105.894c-.177-36.064-29.459-65.246-65.564-65.246-9.063 0-17.694 1.842-25.544 5.168 34.026 2.286 60.939 30.512 61.108 65.079 27.357 4.155 48.32 27.775 48.32 56.292 0 10.043-2.603 19.477-7.168 27.668-.682 1.224-1.512 2.336-2.454 3.324h18.388c5.856 0 11.215-3.209 14.066-8.324 4.565-8.191 7.168-17.625 7.168-27.668 0-28.518-20.963-52.137-48.32-56.293z" fill="#f1f1f1"/></g></g><g><g><path d="m430.232 376.959v-5.502c0-7.995-6.481-14.477-14.477-14.477h-53.974c-7.995 0-14.477 6.481-14.477 14.477v12.479 76.791c0 5.868 4.757 10.625 10.625 10.625h122.623c5.868 0 10.625-4.757 10.625-10.625v-66.167c0-5.868-4.757-10.625-10.625-10.625h-43.342c-3.854.001-6.978-3.123-6.978-6.976z" fill="#f8e883"/></g></g><g><g><path d="m480.552 383.936h-30c5.868 0 10.625 4.757 10.625 10.624v66.167c0 5.868-4.757 10.625-10.625 10.625h30c5.868 0 10.625-4.757 10.625-10.625v-66.167c0-5.867-4.757-10.624-10.625-10.624z" fill="#f7e365"/></g></g><g><g><path d="m78.142 444.457h43.353v26.895h-43.353z" fill="#c5bec6"/></g></g><g><g><path d="m31.534 438.45v-81.45c0-3.246 2.632-5.878 5.878-5.878h124.814c3.246 0 5.878 2.632 5.878 5.878v81.449c0 3.246-2.632 5.878-5.878 5.878h-124.814c-3.247.001-5.878-2.631-5.878-5.877z" fill="#e3e0e4"/></g></g><g><g><path d="m162.226 351.122h-30c3.246 0 5.878 2.632 5.878 5.878v81.449c0 3.246-2.632 5.878-5.878 5.878h30c3.246 0 5.878-2.632 5.878-5.878v-81.449c0-3.246-2.632-5.878-5.878-5.878z" fill="#d4cfd5"/></g></g><g><g><path d="m296.724 471.352h-81.449c-3.246 0-5.878-2.632-5.878-5.878v-108.336c0-3.246 2.632-5.878 5.878-5.878h81.449c3.246 0 5.878 2.632 5.878 5.878v108.335c.001 3.247-2.631 5.879-5.878 5.879z" fill="#fdfcfc"/></g></g><g><g><path d="m296.724 351.26h-30c3.246 0 5.878 2.632 5.878 5.878v108.335c0 3.247-2.632 5.878-5.878 5.878h30c3.246 0 5.878-2.632 5.878-5.878v-108.335c.001-3.246-2.631-5.878-5.878-5.878z" fill="#f1f1f1"/></g></g><g><path d="m121.096 205.679h67.488c4.142 0 7.5-3.358 7.5-7.5s-3.358-7.5-7.5-7.5h-67.488c-3.097 0-5.976-1.715-7.515-4.475-4.068-7.3-6.219-15.605-6.219-24.017 0-27.263 22.18-49.442 49.442-49.442 1.633 0 3.303.084 4.962.248 2.959.297 5.815-1.191 7.276-3.784 6.555-11.645 18.91-18.878 32.244-18.878 9.01 0 17.695 3.286 24.455 9.253 2.021 1.784 4.847 2.347 7.396 1.472 2.551-.875 4.436-3.051 4.937-5.7 5.176-27.354 29.166-47.207 57.042-47.207 31.86 0 57.908 25.921 58.064 57.783.018 3.693 2.722 6.824 6.374 7.378 23.914 3.632 41.947 24.645 41.947 48.877 0 8.412-2.15 16.717-6.219 24.017-1.539 2.761-4.418 4.476-7.515 4.476h-169.183c-4.142 0-7.5 3.358-7.5 7.5s3.358 7.5 7.5 7.5h169.182c8.532 0 16.433-4.665 20.617-12.173 5.31-9.527 8.116-20.357 8.116-31.319 0-15.507-5.588-30.492-15.734-42.195-8.674-10.005-20.179-17.068-32.874-20.283-3.314-37.226-34.755-66.561-72.776-66.561-31.277 0-58.667 19.867-68.853 48.58-7.602-4.17-16.179-6.398-24.976-6.398-17.13 0-33.108 8.489-42.761 22.438-.576-.016-1.149-.024-1.72-.024-35.533 0-64.442 28.909-64.442 64.442 0 10.961 2.807 21.792 8.116 31.319 4.184 7.508 12.085 12.173 20.617 12.173z"/><path d="m480.552 376.436h-42.82v-4.979c0-12.118-9.858-21.977-21.977-21.977h-53.975c-12.118 0-21.977 9.859-21.977 21.977v89.27c0 9.994 8.13 18.125 18.125 18.125h29.61c4.142 0 7.5-3.358 7.5-7.5s-3.358-7.5-7.5-7.5h-29.61c-1.723 0-3.125-1.402-3.125-3.125v-89.27c0-3.847 3.13-6.977 6.977-6.977h53.975c3.847 0 6.977 3.13 6.977 6.977v5.502c0 7.983 6.494 14.477 14.477 14.477h43.343c1.723 0 3.125 1.402 3.125 3.125v66.167c0 1.723-1.402 3.125-3.125 3.125h-53.013c-4.142 0-7.5 3.358-7.5 7.5s3.358 7.5 7.5 7.5h53.013c9.994 0 18.125-8.131 18.125-18.125v-66.167c0-9.994-8.131-18.125-18.125-18.125z"/><path d="m162.226 343.622h-124.814c-7.376 0-13.378 6.001-13.378 13.378v81.449c0 7.377 6.002 13.378 13.378 13.378h33.23v12.024h-4.418c-4.142 0-7.5 3.358-7.5 7.5s3.358 7.5 7.5 7.5h67.189c4.142 0 7.5-3.358 7.5-7.5s-3.358-7.5-7.5-7.5h-4.418v-12.024h33.23c7.377 0 13.378-6.001 13.378-13.378v-81.449c.001-7.376-6-13.378-13.377-13.378zm-48.231 120.23h-28.353v-12.024h28.353zm46.609-27.024h-121.57v-78.206h121.57z"/><path d="m296.725 343.76h-81.449c-7.377 0-13.378 6.001-13.378 13.378v108.335c0 7.376 6.001 13.378 13.378 13.378h81.449c7.377 0 13.378-6.002 13.378-13.378v-108.335c0-7.377-6.002-13.378-13.378-13.378zm-1.622 120.092h-78.206v-105.092h78.206z"/><path d="m242.257 387.911h27.485c4.142 0 7.5-3.358 7.5-7.5s-3.358-7.5-7.5-7.5h-27.485c-4.142 0-7.5 3.358-7.5 7.5s3.358 7.5 7.5 7.5z"/><path d="m242.257 418.806h27.485c4.142 0 7.5-3.358 7.5-7.5s-3.358-7.5-7.5-7.5h-27.485c-4.142 0-7.5 3.358-7.5 7.5s3.358 7.5 7.5 7.5z"/><path d="m242.257 449.701h27.485c4.142 0 7.5-3.358 7.5-7.5s-3.358-7.5-7.5-7.5h-27.485c-4.142 0-7.5 3.358-7.5 7.5s3.358 7.5 7.5 7.5z"/><path d="m504.5 279.832h-68.724c-3.232-10.765-13.228-18.633-25.031-18.633-11.804 0-21.8 7.868-25.032 18.633h-104.682c-3.232-10.765-13.228-18.633-25.031-18.633-11.804 0-21.8 7.868-25.032 18.633h-104.681c-3.232-10.765-13.228-18.633-25.032-18.633s-21.8 7.868-25.031 18.633h-68.724c-4.142 0-7.5 3.358-7.5 7.5s3.358 7.5 7.5 7.5h68.724c3.232 10.766 13.228 18.634 25.031 18.634s21.8-7.868 25.032-18.634h104.682c3.232 10.766 13.228 18.634 25.032 18.634s21.8-7.868 25.031-18.634h104.682c3.232 10.766 13.228 18.634 25.032 18.634s21.8-7.868 25.031-18.634h68.723c4.142 0 7.5-3.358 7.5-7.5s-3.358-7.5-7.5-7.5zm-403.245 18.634c-6.139 0-11.133-4.995-11.133-11.134s4.994-11.133 11.133-11.133 11.134 4.994 11.134 11.133-4.995 11.134-11.134 11.134zm154.745 0c-6.139 0-11.134-4.995-11.134-11.134s4.995-11.133 11.134-11.133 11.133 4.994 11.133 11.133-4.994 11.134-11.133 11.134zm154.745 0c-6.139 0-11.134-4.995-11.134-11.134s4.995-11.133 11.134-11.133 11.133 4.994 11.133 11.133-4.994 11.134-11.133 11.134z"/></g></svg>