<svg id="Capa_1" enable-background="new 0 0 509.053 509.053" height="512" viewBox="0 0 509.053 509.053" width="512" xmlns="http://www.w3.org/2000/svg"><g><g><path d="m495.675 8.171h-124.814c-3.246 0-5.878 2.632-5.878 5.878v81.449c0 3.247 2.632 5.878 5.878 5.878h124.814c3.246 0 5.878-2.632 5.878-5.878v-81.449c0-3.246-2.632-5.878-5.878-5.878z" fill="#bed9fd"/></g></g><g><g><path d="m495.675 8.171h-30c3.246 0 5.878 2.632 5.878 5.878v81.449c0 3.247-2.632 5.878-5.878 5.878h30c3.246 0 5.878-2.632 5.878-5.878v-81.449c0-3.246-2.632-5.878-5.878-5.878z" fill="#9ec8fc"/></g></g><g><g><ellipse cx="255.566" cy="253.876" fill="#d6995c" rx="75.639" ry="75.639" transform="matrix(.316 -.949 .949 .316 -66.099 416.044)"/></g></g><g><g><path d="m255.566 178.237c-5.136 0-10.151.517-15 1.493 34.588 6.959 60.639 37.508 60.639 74.146s-26.051 67.187-60.639 74.146c4.849.976 9.864 1.493 15 1.493 41.774 0 75.639-33.865 75.639-75.639 0-41.775-33.865-75.639-75.639-75.639z" fill="#c48958"/></g></g><g><g><ellipse cx="255.764" cy="253.876" fill="#f2d1a5" rx="34.507" ry="34.507" transform="matrix(.707 -.707 .707 .707 -104.606 255.211)"/></g></g><g><g><path d="m7.5 95.498v-81.449c0-3.246 2.632-5.878 5.878-5.878h124.814c3.247 0 5.878 2.632 5.878 5.878v81.449c0 3.247-2.632 5.878-5.878 5.878h-124.814c-3.246.001-5.878-2.631-5.878-5.878z" fill="#bed9fd"/></g></g><g><g><path d="m7.5 467.98v-81.449c0-3.246 2.632-5.878 5.878-5.878h124.814c3.247 0 5.878 2.632 5.878 5.878v81.449c0 3.247-2.632 5.878-5.878 5.878h-124.814c-3.246 0-5.878-2.632-5.878-5.878z" fill="#bed9fd"/></g></g><g><g><path d="m363.983 467.98v-81.449c0-3.246 2.632-5.878 5.878-5.878h124.814c3.246 0 5.878 2.632 5.878 5.878v81.449c0 3.247-2.632 5.878-5.878 5.878h-124.814c-3.247 0-5.878-2.632-5.878-5.878z" fill="#bed9fd"/></g></g><g><g><path d="m138.192 8.171h-30c3.247 0 5.878 2.632 5.878 5.878v81.449c0 3.247-2.632 5.878-5.878 5.878h30c3.247 0 5.878-2.632 5.878-5.878v-81.449c.001-3.246-2.631-5.878-5.878-5.878z" fill="#9ec8fc"/></g></g><g><g><path d="m138.192 380.652h-30c3.247 0 5.878 2.632 5.878 5.878v81.449c0 3.246-2.632 5.878-5.878 5.878h30c3.247 0 5.878-2.632 5.878-5.878v-81.449c.001-3.246-2.631-5.878-5.878-5.878z" fill="#9ec8fc"/></g></g><g><g><path d="m494.215 380.98h-27.618c2.302.797 3.957 2.978 3.957 5.551v81.449c0 3.246-2.632 5.878-5.878 5.878h-97.195c.603.209 1.247.328 1.921.328h124.814c3.246 0 5.878-2.632 5.878-5.878v-81.449c-.001-3.247-2.633-5.879-5.879-5.879z" fill="#9ec8fc"/></g></g><g><g><path d="m97.462 105.212v23.189h-43.353v-22.695" fill="#c5bec6"/></g></g><g><g><path d="m454.944 105.212v23.189h-43.353v-22.695" fill="#c5bec6"/></g></g><g><g><path d="m97.462 477.693v23.189h-43.353v-22.694" fill="#c5bec6"/></g></g><g><g><path d="m453.944 477.693v23.189h-43.353v-22.694" fill="#c5bec6"/></g></g><g><path d="m495.674 108.877c7.377 0 13.379-6.002 13.379-13.378v-81.45c0-7.377-6.002-13.378-13.379-13.378h-124.813c-7.377 0-13.378 6.002-13.378 13.378v43.91h-205.912v-43.91c0-7.377-6.001-13.378-13.378-13.378h-66.003c-4.142 0-7.5 3.358-7.5 7.5s3.358 7.5 7.5 7.5h64.38v78.206h-121.57v-78.206h27.19c4.142 0 7.5-3.358 7.5-7.5s-3.358-7.5-7.5-7.5h-28.812c-7.376 0-13.378 6.002-13.378 13.378v81.449c0 7.377 6.002 13.378 13.378 13.378h33.23v12.024h-4.418c-4.142 0-7.5 3.358-7.5 7.5s3.358 7.5 7.5 7.5h27.245v237.252h-56.057c-7.376 0-13.378 6.002-13.378 13.378v81.449c0 7.377 6.002 13.378 13.378 13.378h33.23v12.024h-4.418c-4.142 0-7.5 3.358-7.5 7.5s3.358 7.5 7.5 7.5h67.19c4.142 0 7.5-3.358 7.5-7.5s-3.358-7.5-7.5-7.5h-4.419v-12.024h33.231c7.377 0 13.378-6.001 13.378-13.378v-17.98h204.912v17.98c0 7.377 6.001 13.378 13.378 13.378h33.23v12.024h-4.418c-4.143 0-7.5 3.358-7.5 7.5s3.357 7.5 7.5 7.5h67.189c4.143 0 7.5-3.358 7.5-7.5s-3.357-7.5-7.5-7.5h-4.419v-12.024h33.23c7.377 0 13.379-6.001 13.379-13.378v-81.449c0-7.376-6.002-13.378-13.379-13.378h-55.367v-237.251h27.556c4.143 0 7.5-3.358 7.5-7.5s-3.357-7.5-7.5-7.5h-4.419v-12.024zm-123.191-93.206h121.57v78.205h-121.57zm-116.719 306.344c-37.572 0-68.139-30.567-68.139-68.139s30.567-68.139 68.139-68.139 68.14 30.567 68.14 68.139-30.568 68.139-68.14 68.139zm-194.155-213.138h28.353v12.024h-28.353zm47.771 27.024c4.142 0 7.5-3.358 7.5-7.5s-3.358-7.5-7.5-7.5h-4.419v-12.024h33.231c7.377 0 13.378-6.001 13.378-13.378v-22.54h96.693v98.132c-39.867 3.584-71.7 35.417-75.284 75.284h-88.544v-110.474zm-19.418 357.481h-28.353v-12.024h28.353zm46.609-27.024h-121.571v-78.206h121.571zm1.621-93.206h-53.757v-111.777h88.545c3.583 39.868 35.417 71.701 75.284 75.284v98.339h-96.693v-48.468c0-7.376-6.002-13.378-13.379-13.378zm308.252 120.23h-28.353v-12.024h28.353zm-28.584-120.23c-4.143 0-7.5 3.358-7.5 7.5s3.357 7.5 7.5 7.5h75.193v78.206h-121.57v-78.206h16.377c4.143 0 7.5-3.358 7.5-7.5s-3.357-7.5-7.5-7.5h-17.999c-7.377 0-13.378 6.001-13.378 13.378v48.469h-93.219v-98.339c39.868-3.583 71.701-35.417 75.285-75.284h85.758v111.777h-6.447zm6.447-126.776h-85.758c-3.583-39.868-35.417-71.701-75.285-75.284v-98.133h94.219v22.54c0 7.376 6.001 13.378 13.378 13.378h33.23v12.024h-4.418c-4.143 0-7.5 3.358-7.5 7.5s3.357 7.5 7.5 7.5h24.634zm23.137-125.475h-28.353v-12.024h28.353z"/><path d="m255.764 211.869c-23.163 0-42.006 18.844-42.006 42.006s18.844 42.007 42.006 42.007c23.163 0 42.007-18.844 42.007-42.007s-18.844-42.006-42.007-42.006zm0 69.013c-14.892 0-27.006-12.115-27.006-27.007s12.115-27.006 27.006-27.006c14.892 0 27.007 12.115 27.007 27.006 0 14.892-12.115 27.007-27.007 27.007z"/></g></svg>