<svg id="Capa_1" enable-background="new 0 0 512 512" height="512" viewBox="0 0 512 512" width="512" xmlns="http://www.w3.org/2000/svg"><g><g><g><path d="m481.755 379.458h-451.51c-12.562 0-22.745-10.183-22.745-22.745v-275.15c0-12.562 10.183-22.745 22.745-22.745h451.511c12.561 0 22.745 10.183 22.745 22.745v275.15c-.001 12.561-10.184 22.745-22.746 22.745z" fill="#ddebfd"/></g></g><g><g><path d="m481.755 58.818h-30c12.561 0 22.745 10.183 22.745 22.745v275.15c0 12.562-10.183 22.745-22.745 22.745h30c12.561 0 22.745-10.183 22.745-22.745v-275.15c0-12.562-10.183-22.745-22.745-22.745z" fill="#bed9fd"/></g></g><g><g><path d="m7.5 316.178v40.535c0 12.561 10.183 22.745 22.745 22.745h451.511c12.561 0 22.745-10.183 22.745-22.745v-40.535z" fill="#e3e0e4"/></g></g><g><g><path d="m474.5 316.177v40.535c0 12.562-10.183 22.745-22.745 22.745h30c12.561 0 22.745-10.183 22.745-22.745v-40.535z" fill="#d4cfd5"/></g></g><g><g><path d="m322.178 453.182h-132.356l10-73.724h112.356z" fill="#b5adb7"/></g></g><g><g><path d="m312.178 379.458h-30l10 73.724h30z" fill="#a59da7"/></g></g><g><g><path d="m322.936 163.773s-17.564-21.327-28.227-21.327h-33.226c-9.683 0-18.597 5.277-23.255 13.766l-27.954 50.948c-1.804 3.288.087 7.413 3.769 8.129 7.272 1.414 18.673 2 27.347-5.097 13.8-11.291 21.328-20.7 21.328-20.7l4.419 3.929c23.024 20.467 49.303 36.948 77.754 48.763l-.562-77.894c0-.002-21.045-.17-21.393-.517z" fill="#ffd4c6"/></g></g><g><g><path d="m343.866 246.37 46.775-8.2c4.335-.76 7.232-4.89 6.473-9.224l-16.988-96.897c-.76-4.335-4.89-7.232-9.224-6.473l-46.775 8.2c-4.335.76-7.232 4.89-6.473 9.224l16.988 96.897c.759 4.335 4.889 7.233 9.224 6.473z" fill="#92e0c4"/></g></g><g><g><path d="m343.865 246.37h.001l18.243-3.198z" fill="#61aab8"/></g></g><g><g><path d="m397.113 228.946-16.988-96.898c-.76-4.334-4.89-7.232-9.224-6.472l-46.775 8.2 18.476-3.239c4.335-.76 8.464 2.138 9.224 6.473l16.987 96.897c.76 4.335-2.138 8.464-6.473 9.224l28.299-4.961c4.336-.76 7.234-4.89 6.474-9.224z" fill="#77d1b3"/></g></g><g><g><path d="m308.565 217.714-50.26-43.333-11.174-20.533c-3.739-6.87-10.894-11.141-18.667-11.141h-26.671c-3.44 0-7.774 2.789-11.728 6.124l-36.895-.175v74.77h21.663l24.578 18.572c32.439 24.512 78.677 17.64 102.585-15.246z" fill="#ffd4c6"/></g></g><g><g><path d="m160.134 243.37-46.775-8.2c-4.335-.76-7.232-4.89-6.472-9.224l16.987-96.897c.76-4.335 4.89-7.232 9.224-6.473l46.775 8.2c4.335.76 7.232 4.89 6.473 9.224l-16.988 96.897c-.759 4.335-4.889 7.233-9.224 6.473z" fill="#92e0c4"/></g></g><g><g><path d="m179.874 130.776-21.476-3.765c.036.607.011 1.225-.099 1.85l-18.046 102.934c-.76 4.335-4.89 7.232-9.224 6.473l29.105 5.102c4.335.76 8.465-2.138 9.225-6.473l16.987-96.897c.76-4.334-2.138-8.464-6.472-9.224z" fill="#77d1b3"/></g></g><g><path d="m112.064 242.557 46.775 8.2c.902.158 1.806.236 2.703.236 3.15 0 6.22-.963 8.852-2.81 3.383-2.373 5.638-5.921 6.352-9.991l.607-3.462 17.536 13.251c14.077 10.637 30.826 16.225 48.135 16.225 3.972 0 7.976-.294 11.98-.89 21.138-3.141 39.725-14.283 52.47-31.387 6.547 3.83 13.255 7.394 20.103 10.696.947 3.467 3.049 6.469 6.028 8.559 2.632 1.847 5.701 2.81 8.852 2.81.896 0 1.801-.078 2.703-.236l46.776-8.2c8.4-1.473 14.037-9.506 12.565-17.907l-16.988-96.899c-1.474-8.4-9.503-14.036-17.906-12.564l-46.775 8.201c-7.32 1.283-12.537 7.547-12.786 14.695-5.732-4.07-10.863-6.139-15.336-6.139h-33.226c-6.294 0-12.329 1.742-17.533 4.872-.252-.198-.513-.387-.796-.556-4.443-2.652-9.523-4.054-14.69-4.054h-34.882c-1.344-5.893-6.096-10.711-12.413-11.818l-46.775-8.201c-8.397-1.473-16.433 4.163-17.907 12.565l-16.987 96.897c-1.475 8.401 4.162 16.434 12.563 17.907zm213.357-101.394 46.775-8.201c.027-.004.055-.007.081-.007.223 0 .422.161.461.387l16.987 96.897c.045.254-.126.498-.38.542l-46.775 8.2c-.053.01-.19.034-.35-.078-.158-.111-.183-.25-.191-.303l-16.988-96.897c-.045-.252.126-.495.38-.54zm-63.938 8.782h33.226c2.173 0 9.234 4.08 19.156 14.882l10.397 59.301c-18.74-9.999-36.236-22.174-52.142-36.313l-4.419-3.929c-1.535-1.365-3.565-2.036-5.611-1.865s-3.936 1.177-5.223 2.778c-.071.089-7.295 9.008-20.227 19.588-5.39 4.409-12.606 4.743-18.474 3.978l26.636-48.545c3.343-6.091 9.734-9.875 16.681-9.875zm-69.293.161c.383.06.773.101 1.174.101h35.101c1.435 0 2.855.234 4.211.675-.354.564-.7 1.134-1.023 1.722l-27.953 50.946c-2.003 3.65-2.143 8.08-.375 11.851 1.759 3.75 5.23 6.46 9.287 7.248 16.955 3.3 27.593-1.798 33.527-6.654 7.617-6.232 13.407-11.919 17.198-15.926 9.896 8.699 20.368 16.683 31.34 23.908-10.331 13.329-25.116 22.011-41.877 24.501-17.446 2.591-34.799-1.835-48.867-12.466l-23.669-17.885zm-60.929-19.762c.045-.255.286-.424.543-.382l46.775 8.201c.254.045.425.288.38.542l-16.988 96.898c-.009.052-.033.191-.191.302-.159.112-.297.087-.35.078l-46.774-8.2c-.255-.045-.426-.288-.381-.542z"/><path d="m481.756 51.318h-357.985c-4.143 0-7.5 3.358-7.5 7.5s3.357 7.5 7.5 7.5h357.985c8.405 0 15.244 6.839 15.244 15.245v227.115h-56.919c-4.143 0-7.5 3.358-7.5 7.5s3.357 7.5 7.5 7.5h56.919v33.036c0 8.406-6.839 15.245-15.244 15.245h-169.577-112.358-169.577c-8.405 0-15.244-6.839-15.244-15.245v-33.036h395.081c4.143 0 7.5-3.358 7.5-7.5s-3.357-7.5-7.5-7.5h-395.081v-227.115c0-8.406 6.839-15.245 15.244-15.245h63.526c4.143 0 7.5-3.358 7.5-7.5s-3.357-7.5-7.5-7.5h-63.526c-16.677 0-30.244 13.568-30.244 30.245v275.15c0 16.677 13.567 30.245 30.244 30.245h160.992l-7.965 58.724h-23.571c-4.143 0-7.5 3.358-7.5 7.5s3.357 7.5 7.5 7.5h30.121 132.357 24.55c4.143 0 7.5-3.358 7.5-7.5s-3.357-7.5-7.5-7.5h-17.998l-7.965-58.724h160.991c16.677 0 30.244-13.568 30.244-30.245v-275.15c0-16.677-13.567-30.245-30.244-30.245zm-168.163 394.364h-115.186l7.966-58.724h99.254z"/></g></g></svg>