<svg id="Capa_1" enable-background="new 0 0 509 509" height="512" viewBox="0 0 509 509" width="512" xmlns="http://www.w3.org/2000/svg"><g><g><g><path d="m483.027 411.911h-147.054c-10.202 0-18.473-8.271-18.473-18.473v-277.876c0-10.202 8.27-18.473 18.473-18.473h147.054c10.202 0 18.473 8.271 18.473 18.473v277.877c0 10.201-8.271 18.472-18.473 18.472z" fill="#fdfcfc"/></g></g><g><g><path d="m483.027 97.089h-30c10.202 0 18.473 8.271 18.473 18.473v277.877c0 10.202-8.271 18.473-18.473 18.473h30c10.202 0 18.473-8.271 18.473-18.473v-277.878c0-10.202-8.271-18.472-18.473-18.472z" fill="#f1f1f1"/></g></g><g><g><path d="m173.027 411.911h-147.054c-10.202 0-18.473-8.271-18.473-18.473v-277.876c0-10.202 8.27-18.473 18.473-18.473h147.054c10.202 0 18.473 8.271 18.473 18.473v277.877c-.001 10.201-8.271 18.472-18.473 18.472z" fill="#fdfcfc"/></g></g><g><g><path d="m173.027 97.089h-30c10.202 0 18.473 8.271 18.473 18.473v277.877c0 10.202-8.271 18.473-18.473 18.473h30c10.202 0 18.473-8.271 18.473-18.473v-277.878c-.001-10.202-8.271-18.472-18.473-18.472z" fill="#f1f1f1"/></g></g><g><g><path d="m7.5 363.748v29.69c0 10.202 8.27 18.473 18.473 18.473h147.054c10.202 0 18.473-8.271 18.473-18.473v-29.69z" fill="#5392f9"/></g></g><g><g><path d="m191.499 146.552v-30.991c0-10.202-8.271-18.473-18.473-18.473h-147.053c-10.202 0-18.473 8.271-18.473 18.473v30.991z" fill="#5392f9"/></g></g><g><g><path d="m161.499 363.748v29.69c0 10.202-8.271 18.473-18.473 18.473h30c10.202 0 18.473-8.271 18.473-18.473v-29.69z" fill="#4981f8"/></g></g><g><g><path d="m173.027 97.089h-30c10.202 0 18.473 8.271 18.473 18.473v30.991h30v-30.991c-.001-10.203-8.271-18.473-18.473-18.473z" fill="#4981f8"/></g></g><g><g><path d="m317.5 363.748v29.69c0 10.202 8.27 18.473 18.473 18.473h147.054c10.202 0 18.473-8.271 18.473-18.473v-29.69z" fill="#5392f9"/></g></g><g><g><path d="m501.5 146.552v-30.991c0-10.202-8.271-18.473-18.473-18.473h-147.054c-10.202 0-18.473 8.271-18.473 18.473v30.991z" fill="#5392f9"/></g></g><g><g><path d="m471.5 363.748v29.69c0 10.202-8.271 18.473-18.473 18.473h30c10.202 0 18.473-8.271 18.473-18.473v-29.69z" fill="#4981f8"/></g></g><g><g><path d="m483.027 97.089h-30c10.202 0 18.473 8.271 18.473 18.473v30.991h30v-30.991c0-10.203-8.271-18.473-18.473-18.473z" fill="#4981f8"/></g></g><g><g><path d="m99.5 227.853v-37.797c0-6.047 4.902-10.949 10.949-10.949h37.797c6.047 0 10.949 4.902 10.949 10.949v37.797c0 6.047-4.902 10.949-10.949 10.949h-37.797c-6.047 0-10.949-4.902-10.949-10.949z" fill="#faf0b0"/></g></g><g><g><path d="m369.629 227.853v-37.797c0-6.047 4.902-10.949 10.949-10.949h37.797c6.047 0 10.949 4.902 10.949 10.949v37.797c0 6.047-4.902 10.949-10.949 10.949h-37.797c-6.046 0-10.949-4.902-10.949-10.949z" fill="#faf0b0"/></g></g><g><g><path d="m54.786 321.512v-37.797c0-6.047 4.902-10.95 10.95-10.95h37.797c6.047 0 10.949 4.902 10.949 10.95v37.797c0 6.047-4.902 10.949-10.949 10.949h-37.797c-6.047.001-10.95-4.901-10.95-10.949z" fill="#faf0b0"/></g></g><g><path d="m173.027 89.589h-147.054c-14.322 0-25.973 11.651-25.973 25.973v277.876c0 14.321 11.651 25.973 25.973 25.973h147.054c14.321 0 25.973-11.651 25.973-25.973v-169.332c0-4.142-3.358-7.5-7.5-7.5s-7.5 3.358-7.5 7.5v51.16h-24.804c-4.142 0-7.5 3.358-7.5 7.5s3.358 7.5 7.5 7.5h24.804v65.982h-169v-58.908h9.023c4.142 0 7.5-3.358 7.5-7.5s-3.358-7.5-7.5-7.5h-9.023v-128.288h168.999v40.054c0 4.142 3.358 7.5 7.5 7.5s7.5-3.358 7.5-7.5v-78.545c0-14.321-11.651-25.972-25.972-25.972zm10.972 281.659v22.19c0 6.05-4.922 10.973-10.973 10.973h-147.053c-6.05 0-10.973-4.922-10.973-10.973v-22.19zm-168.999-232.196v-23.491c0-6.05 4.922-10.973 10.973-10.973h147.054c6.05 0 10.973 4.922 10.973 10.973v23.491z"/><path d="m483.027 89.589h-147.054c-14.322 0-25.973 11.651-25.973 25.973v277.876c0 14.321 11.651 25.973 25.973 25.973h147.054c14.321 0 25.973-11.651 25.973-25.973v-277.876c0-14.322-11.652-25.973-25.973-25.973zm-147.054 15h147.054c6.05 0 10.973 4.922 10.973 10.973v23.491h-169v-23.491c0-6.051 4.922-10.973 10.973-10.973zm147.054 299.822h-147.054c-6.05 0-10.973-4.922-10.973-10.973v-22.19h37.012c4.142 0 7.5-3.358 7.5-7.5s-3.358-7.5-7.5-7.5h-37.012v-202.196h169v38.128h-21.546c-4.142 0-7.5 3.358-7.5 7.5s3.358 7.5 7.5 7.5h21.546v68.086h-50.584c-4.142 0-7.5 3.358-7.5 7.5s3.358 7.5 7.5 7.5h50.584v65.982h-101.988c-4.142 0-7.5 3.358-7.5 7.5s3.358 7.5 7.5 7.5h101.988v22.19c0 6.05-4.923 10.973-10.973 10.973z"/><path d="m166.696 227.853v-37.797c0-10.173-8.276-18.45-18.449-18.45h-37.797c-10.173 0-18.449 8.276-18.449 18.45v11.398h-21.89c-4.142 0-7.5 3.358-7.5 7.5s3.358 7.5 7.5 7.5h21.889v11.399c0 10.173 8.276 18.45 18.449 18.45h37.797c10.173-.001 18.45-8.277 18.45-18.45zm-15 0c0 1.902-1.547 3.45-3.449 3.45h-37.797c-1.902 0-3.449-1.547-3.449-3.45v-37.797c0-1.902 1.547-3.45 3.449-3.45h37.797c1.902 0 3.449 1.547 3.449 3.45z"/><path d="m418.376 246.302c10.173 0 18.45-8.276 18.45-18.45v-37.797c0-10.173-8.276-18.45-18.45-18.45h-37.797c-10.173 0-18.45 8.276-18.45 18.45v37.797c0 10.173 8.276 18.45 18.45 18.45zm-41.247-18.449v-37.797c0-1.902 1.547-3.45 3.45-3.45h37.797c1.902 0 3.45 1.547 3.45 3.45v37.797c0 1.902-1.547 3.45-3.45 3.45h-37.797c-1.902-.001-3.45-1.548-3.45-3.45z"/><path d="m103.533 265.266h-37.797c-10.173 0-18.449 8.276-18.449 18.449v37.797c0 10.173 8.276 18.449 18.449 18.449h37.797c10.173 0 18.45-8.276 18.45-18.449v-1.399h29.634c4.142 0 7.5-3.358 7.5-7.5s-3.358-7.5-7.5-7.5h-29.634v-21.398c0-10.173-8.277-18.449-18.45-18.449zm3.45 56.246c0 1.902-1.547 3.449-3.45 3.449h-37.797c-1.902 0-3.449-1.547-3.449-3.449v-37.797c0-1.902 1.547-3.449 3.449-3.449h37.797c1.902 0 3.45 1.547 3.45 3.449z"/><path d="m283.828 231.245h-40.151l6.558-6.558c2.929-2.929 2.929-7.678 0-10.606-2.929-2.929-7.678-2.929-10.607 0l-19.361 19.361c-2.145 2.145-2.787 5.371-1.626 8.173s3.895 4.63 6.929 4.63h58.257c4.142 0 7.5-3.358 7.5-7.5s-3.357-7.5-7.499-7.5z"/><path d="m283.828 262.755h-58.257c-4.142 0-7.5 3.358-7.5 7.5s3.358 7.5 7.5 7.5h40.151l-6.558 6.558c-2.929 2.929-2.929 7.677 0 10.606 1.464 1.465 3.384 2.197 5.303 2.197s3.839-.732 5.303-2.197l19.361-19.361c2.145-2.145 2.787-5.371 1.626-8.173-1.161-2.803-3.895-4.63-6.929-4.63z"/><path d="m445.704 312.614c0-4.142-3.358-7.5-7.5-7.5h-60.761c-4.142 0-7.5 3.358-7.5 7.5s3.358 7.5 7.5 7.5h60.761c4.142 0 7.5-3.358 7.5-7.5z"/></g></g></svg>