<svg id="Capa_1" enable-background="new 0 0 511.101 511.101" height="512" viewBox="0 0 511.101 511.101" width="512" xmlns="http://www.w3.org/2000/svg"><g><g><g><path d="m378.092 205.975h-245.074c-11.853 0-21.463-9.609-21.463-21.463v-138.626c0-8.942 7.249-16.19 16.19-16.19h255.619c8.942 0 16.19 7.249 16.19 16.19v138.626c.001 11.853-9.608 21.463-21.462 21.463z" fill="#92e0c4"/></g></g><g><g><path d="m383.365 29.696h-30c8.942 0 16.19 7.249 16.19 16.19v138.626c0 11.854-9.609 21.463-21.463 21.463h30c11.854 0 21.463-9.609 21.463-21.463v-138.626c0-8.942-7.249-16.19-16.19-16.19z" fill="#77d1b3"/></g></g><g><g><path d="m97.461 455.216v26.189h-43.352v-25.694" fill="#c5bec6"/></g></g><g><g><path d="m7.5 445.503v-81.449c0-3.246 2.632-5.878 5.878-5.878h124.814c3.246 0 5.878 2.632 5.878 5.878v81.449c0 3.246-2.632 5.878-5.878 5.878h-124.814c-3.247 0-5.878-2.632-5.878-5.878z" fill="#bed9fd"/></g></g><g><g><path d="m277.231 455.216v26.189h-43.352v-25.694" fill="#c5bec6"/></g></g><g><g><path d="m187.27 445.503v-81.449c0-3.246 2.632-5.878 5.878-5.878h124.814c3.246 0 5.878 2.632 5.878 5.878v81.449c0 3.246-2.632 5.878-5.878 5.878h-124.814c-3.246 0-5.878-2.632-5.878-5.878z" fill="#bed9fd"/></g></g><g><g><path d="m456.992 455.216v26.189h-43.353v-25.694" fill="#c5bec6"/></g></g><g><g><path d="m367.03 445.503v-81.449c0-3.246 2.632-5.878 5.878-5.878h124.814c3.246 0 5.878 2.632 5.878 5.878v81.449c0 3.246-2.632 5.878-5.878 5.878h-124.814c-3.246 0-5.878-2.632-5.878-5.878z" fill="#bed9fd"/></g></g><g><g><path d="m138.192 358.175h-30c3.246 0 5.878 2.632 5.878 5.878v81.449c0 3.246-2.632 5.878-5.878 5.878h30c3.246 0 5.878-2.632 5.878-5.878v-81.449c0-3.246-2.632-5.878-5.878-5.878z" fill="#9ec8fc"/></g></g><g><g><path d="m317.41 358.636h-27.162c2.111.892 3.592 2.982 3.592 5.417v81.449c0 3.246-2.632 5.878-5.878 5.878h-97.652c.703.297 1.475.461 2.286.461h124.814c3.247 0 5.878-2.632 5.878-5.878v-81.449c0-3.246-2.632-5.878-5.878-5.878z" fill="#9ec8fc"/></g></g><g><g><path d="m497.722 358.636h-27.714c2.111.892 3.592 2.982 3.592 5.417v81.449c0 3.246-2.632 5.878-5.878 5.878h-97.1c.703.297 1.475.461 2.286.461h124.814c3.246 0 5.878-2.632 5.878-5.878v-81.449c.001-3.246-2.631-5.878-5.878-5.878z" fill="#9ec8fc"/></g></g><path d="m497.723 350.675h-58.601v-.086c0-37.503-30.512-68.014-68.015-68.014h-108.052v-69.101h115.038c15.97 0 28.962-12.993 28.962-28.962v-138.626c0-13.063-10.628-23.69-23.69-23.69h-154.339c-4.143 0-7.5 3.358-7.5 7.5s3.357 7.5 7.5 7.5h154.338c.706 0 1.389.094 2.046.253l-116.22 100.417c-7.773 6.717-19.498 6.717-27.271 0l-116.219-100.417c.657-.16 1.34-.253 2.046-.253h71.281c4.143 0 7.5-3.358 7.5-7.5s-3.357-7.5-7.5-7.5h-71.281c-13.063 0-23.69 10.628-23.69 23.69v138.626c0 15.97 12.993 28.962 28.963 28.962h115.037v69.101h-108.054c-37.503 0-68.014 30.511-68.014 68.014v.086h-58.61c-7.377 0-13.378 6.002-13.378 13.378v81.449c0 7.376 6.001 13.378 13.378 13.378h33.23v15.024h-4.418c-4.142 0-7.5 3.358-7.5 7.5s3.358 7.5 7.5 7.5h67.189c4.143 0 7.5-3.358 7.5-7.5s-3.357-7.5-7.5-7.5h-4.419v-15.024h33.231c6.883 0 12.569-5.224 13.3-11.916.052-.357.079-.723.079-1.095v-.367c0-4.142-3.357-7.5-7.5-7.5-3.585 0-6.583 2.516-7.324 5.878h-121.746v-78.206h121.57v50.195c0 4.142 3.357 7.5 7.5 7.5s7.5-3.358 7.5-7.5v-51.816c0-7.377-6.002-13.378-13.379-13.378h-51.203v-.086c0-29.232 23.782-53.014 53.014-53.014h108.053v53.1h-54.906c-7.377 0-13.379 6.001-13.379 13.378v81.449c0 7.376 6.002 13.378 13.379 13.378h33.23v15.024h-4.419c-4.143 0-7.5 3.358-7.5 7.5s3.357 7.5 7.5 7.5h67.189c4.143 0 7.5-3.358 7.5-7.5s-3.357-7.5-7.5-7.5h-4.418v-15.024h33.23c7.377 0 13.378-6.001 13.378-13.378v-81.449c0-7.377-6.001-13.378-13.378-13.378h-54.907v-53.1h108.053c29.232 0 53.015 23.782 53.015 53.014v.086h-51.214c-7.377 0-13.378 6.001-13.378 13.378v81.449c0 7.376 6.001 13.378 13.378 13.378h33.23v15.024h-4.418c-4.143 0-7.5 3.358-7.5 7.5s3.357 7.5 7.5 7.5h67.189c4.143 0 7.5-3.358 7.5-7.5s-3.357-7.5-7.5-7.5h-4.419v-15.024h33.231c7.377 0 13.378-6.001 13.378-13.378v-81.449c.002-7.376-5.999-13.378-13.376-13.378zm-378.668-166.163v-132.981l113.058 97.685c6.682 5.773 15.063 8.66 23.442 8.66s16.761-2.887 23.442-8.66l113.058-97.684v132.98c0 7.699-6.264 13.962-13.962 13.962h-245.075c-7.7 0-13.963-6.263-13.963-13.962zm-29.094 289.393h-28.353v-15.024h28.353zm179.77 0h-28.353v-15.024h28.353zm46.609-30.024h-121.57v-78.206h121.57zm133.151 30.024h-28.353v-15.024h28.353zm46.61-30.024h-121.571v-78.206h121.57v78.206z"/></g></svg>