<svg id="Capa_1" enable-background="new 0 0 512 512" height="512" viewBox="0 0 512 512" width="512" xmlns="http://www.w3.org/2000/svg"><g><g><g><path d="m481.755 379.458h-451.51c-12.562 0-22.745-10.183-22.745-22.745v-275.15c0-12.562 10.183-22.745 22.745-22.745h451.511c12.561 0 22.745 10.183 22.745 22.745v275.15c-.001 12.562-10.184 22.745-22.746 22.745z" fill="#ddebfd"/></g></g><g><g><path d="m481.755 58.818h-30c12.561 0 22.745 10.183 22.745 22.745v275.15c0 12.562-10.183 22.745-22.745 22.745h30c12.561 0 22.745-10.183 22.745-22.745v-275.15c0-12.561-10.183-22.745-22.745-22.745z" fill="#bed9fd"/></g></g><g><g><path d="m7.5 316.178v40.535c0 12.561 10.183 22.745 22.745 22.745h451.511c12.561 0 22.745-10.183 22.745-22.745v-40.535z" fill="#e3e0e4"/></g></g><g><g><path d="m474.5 316.178v40.535c0 12.562-10.183 22.745-22.745 22.745h30c12.561 0 22.745-10.183 22.745-22.745v-40.535z" fill="#d4cfd5"/></g></g><g><g><path d="m322.178 453.182h-132.356l10-73.724h112.356z" fill="#c5bec6"/></g></g><g><g><path d="m312.178 379.457h-30l10 73.725h30z" fill="#b5adb7"/></g></g><g><g><path d="m450.193 181.174-2.892.07c-.754-13.815-5.759-26.509-13.717-36.816l2.431-1.776c3.976-2.905 4.529-8.639 1.169-12.24-6.898-7.39-15.227-13.424-24.377-17.659-4.472-2.069-9.749.254-11.263 4.943l-1.199 3.713c-6.111-1.861-12.589-2.871-19.3-2.871-7.234 0-14.195 1.18-20.718 3.33l-1.339-4.105c-1.528-4.684-6.813-6.991-11.278-4.907-9.138 4.264-17.448 10.325-24.323 17.737-3.349 3.611-2.778 9.343 1.207 12.236l3.293 2.39c-7.993 10.68-12.826 23.843-13.162 38.1l-3.251.003c-4.918.005-8.735 4.301-8.157 9.185 1.197 10.117 4.356 19.815 9.343 28.679 2.412 4.287 8.032 5.506 12.007 2.608l1.751-1.277c7.988 11.564 19.547 20.47 33.071 25.13l-.37 1.141c-1.517 4.681 1.392 9.65 6.22 10.598 4.929.968 9.956 1.457 15.027 1.457h.005c5.096 0 10.147-.493 15.098-1.471 4.829-.954 7.734-5.924 6.212-10.606l-.237-.728c14.603-4.73 26.997-14.392 35.223-27.015l1.35.93c4.055 2.794 9.65 1.422 11.939-2.938 4.698-8.951 7.643-18.805 8.619-28.841.479-4.905-3.456-9.119-8.382-9zm-69.148 28.099c-13.44 0-24.375-10.934-24.375-24.375 0-13.44 10.934-24.375 24.375-24.375 13.44 0 24.374 10.935 24.374 24.375.001 13.441-10.934 24.375-24.374 24.375z" fill="#e3e0e4"/></g></g><g><g><path d="m450.193 181.174-2.892.07c-.754-13.815-5.759-26.509-13.717-36.817l2.431-1.776c3.977-2.905 4.529-8.639 1.169-12.24-6.898-7.391-15.227-13.424-24.377-17.659-4.472-2.069-9.749.254-11.263 4.943l-1.199 3.713c-6.111-1.861-12.589-2.871-19.3-2.871-4.066 0-8.04.385-11.904 1.093 28.75 8.6 49.71 35.24 49.71 66.787 0 34.888-25.628 63.79-59.085 68.909 1.128 2.022 3.094 3.572 5.573 4.059 4.929.969 9.956 1.457 15.027 1.457h.005c5.096 0 10.147-.493 15.098-1.471 4.829-.954 7.734-5.924 6.212-10.606l-.237-.728c14.603-4.73 26.997-14.392 35.223-27.015l1.35.93c4.055 2.794 9.65 1.422 11.939-2.938 4.698-8.951 7.643-18.805 8.619-28.841.48-4.904-3.456-9.118-8.382-8.999z" fill="#d4cfd5"/></g></g><g><g><path d="m160.352 261.566-20.748 13.106c-4.089 2.583-9.299 2.583-13.388 0l-20.748-13.106c-23.828-15.052-38.276-41.268-38.276-69.451v-64.828c0-10.238 8.299-18.537 18.537-18.537h94.362c10.238 0 18.537 8.299 18.537 18.537v64.828c0 28.183-14.448 54.4-38.276 69.451z" fill="#9ec8fc"/></g></g><g><g><path d="m180.091 108.75h-30c10.238 0 18.537 8.299 18.537 18.537v64.828c0 28.184-14.448 54.4-38.276 69.451l-12.442 7.86 8.306 5.247c4.089 2.583 9.299 2.583 13.388 0l20.748-13.106c23.828-15.052 38.276-41.268 38.276-69.451v-64.828c0-10.239-8.299-18.538-18.537-18.538z" fill="#80b6fc"/></g></g><g><path d="m59.692 127.287v64.828c0 30.937 15.615 59.271 41.77 75.792l20.748 13.106c3.25 2.053 6.974 3.08 10.7 3.08 3.724 0 7.45-1.027 10.699-3.08l20.748-13.106c26.155-16.522 41.771-44.856 41.771-75.792v-64.828c0-14.357-11.68-26.037-26.037-26.037h-94.362c-14.357 0-26.037 11.68-26.037 26.037zm131.436 0v64.828c0 25.76-13.002 49.353-34.781 63.111l-20.748 13.106c-1.634 1.032-3.744 1.031-5.377 0l-20.748-13.106c-21.779-13.758-34.781-37.351-34.781-63.111v-64.828c0-6.086 4.951-11.037 11.037-11.037h94.362c6.085 0 11.036 4.951 11.036 11.037z"/><path d="m123.947 204.288c1.457 1.451 3.372 2.185 5.293 2.185 1.742 0 3.488-.604 4.901-1.824l29.075-25.11c3.135-2.708 3.481-7.443.774-10.579-2.708-3.135-7.444-3.482-10.579-.774l-23.811 20.565-8.68-8.64c-2.935-2.922-7.684-2.912-10.606.024s-2.911 7.685.024 10.606z"/><path d="m481.755 51.318h-333.845c-4.142 0-7.5 3.358-7.5 7.5s3.358 7.5 7.5 7.5h333.846c8.406 0 15.245 6.839 15.245 15.245v227.115h-107.234c-4.142 0-7.5 3.358-7.5 7.5s3.358 7.5 7.5 7.5h107.233v33.035c0 8.406-6.839 15.245-15.245 15.245h-451.51c-8.406 0-15.245-6.839-15.245-15.245v-33.035h344.767c4.142 0 7.5-3.358 7.5-7.5s-3.358-7.5-7.5-7.5h-344.767v-227.115c0-8.406 6.839-15.245 15.245-15.245h87.665c4.142 0 7.5-3.358 7.5-7.5s-3.358-7.5-7.5-7.5h-87.665c-16.677 0-30.245 13.568-30.245 30.245v275.15c0 16.677 13.568 30.245 30.245 30.245h160.991l-7.965 58.724h-23.571c-4.142 0-7.5 3.358-7.5 7.5s3.358 7.5 7.5 7.5h187.028c4.142 0 7.5-3.358 7.5-7.5s-3.358-7.5-7.5-7.5h-17.998l-7.965-58.724h160.991c16.677 0 30.245-13.568 30.245-30.245v-275.15c-.001-16.677-13.569-30.245-30.246-30.245zm-168.163 394.364h-115.184l7.965-58.724h99.254z"/><path d="m381.045 216.773c17.576 0 31.875-14.299 31.875-31.874 0-17.576-14.299-31.875-31.875-31.875s-31.875 14.299-31.875 31.875c0 17.575 14.299 31.874 31.875 31.874zm0-48.749c9.305 0 16.875 7.57 16.875 16.875s-7.57 16.874-16.875 16.874-16.875-7.57-16.875-16.874c0-9.305 7.57-16.875 16.875-16.875z"/><path d="m299.724 181.106c-2.977 3.354-4.382 7.829-3.855 12.28 1.317 11.132 4.767 21.722 10.255 31.476 2.198 3.908 5.973 6.696 10.356 7.649 2.642.575 5.36.453 7.896-.315 7.285 8.692 16.55 15.677 26.886 20.265.174 2.387.891 4.73 2.13 6.837 2.275 3.869 6.103 6.583 10.503 7.447 5.394 1.06 10.936 1.598 16.479 1.598 5.563 0 11.131-.543 16.551-1.613 4.4-.869 8.226-3.587 10.498-7.458 1.131-1.927 1.825-4.051 2.067-6.224 11.583-4.858 21.812-12.651 29.611-22.558 2.395.561 4.918.559 7.357-.043 4.36-1.076 8.057-3.972 10.143-7.946 5.115-9.744 8.38-20.672 9.443-31.601.435-4.468-1.071-8.917-4.131-12.208-2.114-2.274-4.835-3.85-7.796-4.572-1.486-10.129-5.06-19.786-10.534-28.466 1.813-2.336 2.951-5.162 3.236-8.163.423-4.47-1.09-8.916-4.151-12.196-7.51-8.046-16.746-14.737-26.71-19.349-4.075-1.885-8.771-1.933-12.887-.131-3.149 1.378-5.734 3.739-7.396 6.686-10.089-2.041-20.629-1.939-30.686.31-1.664-3.063-4.316-5.515-7.562-6.924-4.122-1.788-8.82-1.726-12.887.172-9.951 4.644-19.167 11.363-26.65 19.433-3.051 3.29-4.55 7.74-4.113 12.21.333 3.402 1.764 6.577 4.03 9.064-5.459 9.014-8.886 19.027-10.102 29.517-3.06.757-5.853 2.425-7.981 4.823zm11.217 9.958c.216-.244.46-.244.54-.244l3.251-.003c4.07-.004 7.394-3.254 7.49-7.323.29-12.288 4.324-23.969 11.668-33.783 1.203-1.608 1.711-3.631 1.411-5.617-.301-1.985-1.385-3.767-3.011-4.947l-3.292-2.389c-.175-.127-.275-.302-.296-.519-.031-.318.129-.491.182-.548 6.179-6.662 13.784-12.209 21.995-16.04.07-.032.283-.13.573-.005.201.087.336.236.404.442l1.339 4.105c.618 1.895 1.965 3.465 3.743 4.366 1.778.899 3.842 1.055 5.734.431 11.478-3.782 23.977-3.912 35.486-.407 3.916 1.194 8.064-.975 9.322-4.871l1.199-3.713c.067-.207.202-.356.402-.444.291-.127.504-.029.573.003 8.222 3.805 15.845 9.327 22.044 15.97.053.057.214.23.184.547-.021.216-.12.391-.295.519l-2.431 1.776c-1.634 1.194-2.716 2.997-3 5.001-.285 2.003.252 4.037 1.489 5.639 7.309 9.468 11.516 20.755 12.165 32.642.221 4.048 3.657 7.211 7.671 7.089l2.892-.07c.22-.004.403.074.552.233.216.233.193.465.186.542-.877 9.018-3.573 18.037-7.795 26.081-.036.069-.146.278-.456.355-.211.052-.409.016-.588-.107l-1.35-.93c-1.666-1.147-3.724-1.573-5.708-1.181s-3.726 1.569-4.83 3.263c-7.379 11.323-18.477 19.837-31.25 23.975-1.893.613-3.465 1.954-4.37 3.727-.904 1.772-1.067 3.832-.453 5.724l.238.732c.067.206.045.406-.065.594-.161.274-.392.32-.468.335-8.903 1.759-18.316 1.765-27.23.013-.075-.015-.305-.06-.465-.333-.111-.188-.133-.388-.065-.597l.369-1.141c1.258-3.889-.829-8.068-4.693-9.399-11.796-4.064-22.217-11.984-29.343-22.301-1.149-1.664-2.922-2.793-4.915-3.131-.418-.071-.838-.106-1.256-.106-1.577 0-3.126.498-4.418 1.439l-1.751 1.276c-.064.048-.264.192-.581.122-.315-.068-.433-.277-.471-.347-4.512-8.02-7.349-16.728-8.432-25.882-.01-.081-.038-.321.176-.563z"/><path d="m260.714 274.165v-178.391c0-4.142-3.358-7.5-7.5-7.5s-7.5 3.358-7.5 7.5v178.391c0 4.142 3.358 7.5 7.5 7.5s7.5-3.358 7.5-7.5z"/></g></g></svg>