<svg id="Capa_1" enable-background="new 0 0 512 512" height="512" viewBox="0 0 512 512" width="512" xmlns="http://www.w3.org/2000/svg"><g><g><g><path d="m380.748 504.5h-249.497c-8.44 0-15.282-6.842-15.282-15.282v-466.436c0-8.44 6.842-15.282 15.282-15.282h249.496c8.44 0 15.282 6.842 15.282 15.282v466.436c.001 8.44-6.841 15.282-15.281 15.282z" fill="#edf6ff"/></g></g><g><g><path d="m380.748 7.5h-30c8.44 0 15.282 6.842 15.282 15.282v466.436c0 8.44-6.842 15.282-15.282 15.282h30c8.44 0 15.282-6.842 15.282-15.282v-466.436c0-8.44-6.842-15.282-15.282-15.282z" fill="#ddebfd"/></g></g><g><g><path d="m396.03 60v-37.218c0-8.44-6.842-15.282-15.282-15.282h-249.496c-8.44 0-15.282 6.842-15.282 15.282v37.218z" fill="#5392f9"/></g></g><g><g><path d="m396.03 452v37.218c0 8.44-6.842 15.282-15.282 15.282h-249.496c-8.44 0-15.282-6.842-15.282-15.282v-37.218z" fill="#5392f9"/></g></g><g><g><path d="m380.748 7.5h-30c8.44 0 15.282 6.842 15.282 15.282v37.218h30v-37.218c0-8.44-6.842-15.282-15.282-15.282z" fill="#4981f8"/></g></g><g><g><path d="m366.03 452v37.218c0 8.44-6.842 15.282-15.282 15.282h30c8.44 0 15.282-6.842 15.282-15.282v-37.218z" fill="#4981f8"/></g></g><g><g><path d="m340.096 98.842h-168.192c-9.28 0-16.804 7.523-16.804 16.804v18.916c0 9.28 7.523 16.803 16.804 16.803h12.659c1.268 0 2.439.676 3.073 1.775l13.458 23.31c1.366 2.366 4.781 2.366 6.147 0l13.458-23.31c.634-1.098 1.806-1.775 3.073-1.775h116.323c9.28 0 16.804-7.523 16.804-16.803v-18.916c0-9.28-7.523-16.804-16.803-16.804z" fill="#92e0c4"/></g></g><g><g><path d="m171.904 221.514h168.192c9.28 0 16.804 7.523 16.804 16.803v18.916c0 9.28-7.523 16.804-16.804 16.804h-12.659c-1.268 0-2.439.676-3.073 1.774l-13.458 23.31c-1.366 2.366-4.781 2.366-6.147 0l-13.458-23.31c-.634-1.098-1.806-1.774-3.073-1.774h-116.324c-9.28 0-16.804-7.523-16.804-16.804v-18.916c0-9.28 7.523-16.803 16.804-16.803z" fill="#f8e883"/></g></g><g><g><path d="m336.863 413.247h-161.727c-13.241 0-23.975-10.734-23.975-23.974 0-13.241 10.734-23.975 23.975-23.975h161.727c13.241 0 23.974 10.734 23.974 23.975 0 13.24-10.733 23.974-23.974 23.974z" fill="#fdfcfc"/></g></g><g><g><path d="m340.096 98.842h-30c9.28 0 16.804 7.523 16.804 16.804v18.916c0 9.28-7.523 16.804-16.804 16.804h30c9.28 0 16.804-7.523 16.804-16.804v-18.916c-.001-9.28-7.524-16.804-16.804-16.804z" fill="#77d1b3"/></g></g><g><g><path d="m340.096 221.514h-30c9.28 0 16.804 7.523 16.804 16.803v18.916c0 9.28-7.523 16.804-16.804 16.804h-12.659c-1.268 0-2.439.676-3.073 1.774l-1.532 2.653 11.927 20.657c1.366 2.366 4.781 2.366 6.147 0l13.458-23.31c.634-1.098 1.805-1.774 3.073-1.774h12.659c9.28 0 16.804-7.523 16.804-16.804v-18.916c-.001-9.28-7.524-16.803-16.804-16.803z" fill="#f7e365"/></g></g><g><g><path d="m336.863 365.298h-30c13.241 0 23.974 10.734 23.974 23.975s-10.734 23.975-23.974 23.975h30c13.241 0 23.974-10.734 23.974-23.975 0-13.242-10.733-23.975-23.974-23.975z" fill="#f1f1f1"/></g></g><g><circle cx="174.173" cy="318.246" r="7.5"/><circle cx="201.921" cy="318.246" r="7.5"/><circle cx="229.668" cy="318.246" r="7.5"/><path d="m171.904 158.866h10.377l12.318 21.334c1.967 3.408 5.634 5.525 9.569 5.525 3.934 0 7.601-2.117 9.568-5.525l12.317-21.334h114.042c13.401 0 24.304-10.903 24.304-24.304v-18.916c0-13.401-10.902-24.304-24.304-24.304h-168.191c-13.401 0-24.304 10.903-24.304 24.304v18.916c0 13.401 10.902 24.304 24.304 24.304zm-9.304-43.22c0-5.13 4.174-9.304 9.304-9.304h168.192c5.13 0 9.304 4.174 9.304 9.304v18.916c0 5.13-4.174 9.304-9.304 9.304h-116.323c-3.936 0-7.603 2.117-9.569 5.524l-10.037 17.384-10.036-17.383c-1.967-3.408-5.633-5.525-9.569-5.525h-12.659c-5.13 0-9.304-4.174-9.304-9.304v-18.916z"/><path d="m147.6 257.233c0 13.401 10.902 24.304 24.304 24.304h114.042l12.317 21.332c1.966 3.408 5.632 5.526 9.567 5.527h.002c3.935 0 7.601-2.117 9.568-5.525l12.317-21.335h10.378c13.401 0 24.304-10.902 24.304-24.304v-18.916c0-13.401-10.902-24.304-24.304-24.304h-168.191c-13.401 0-24.304 10.902-24.304 24.304zm15-18.916c0-5.13 4.174-9.304 9.304-9.304h168.192c5.13 0 9.304 4.174 9.304 9.304v18.916c0 5.13-4.174 9.304-9.304 9.304h-12.659c-3.935 0-7.602 2.117-9.568 5.524l-10.036 17.383-10.036-17.382c-1.968-3.408-5.634-5.525-9.569-5.525h-116.324c-5.13 0-9.304-4.174-9.304-9.304z"/><path d="m380.748 0h-249.497c-12.562 0-22.782 10.22-22.782 22.782v156.491c0 4.142 3.358 7.5 7.5 7.5s7.5-3.358 7.5-7.5v-113.773h265.061v381h-265.06v-237.227c0-4.142-3.358-7.5-7.5-7.5s-7.5 3.358-7.5 7.5v279.945c0 12.562 10.22 22.782 22.782 22.782h249.496c12.563 0 22.782-10.22 22.782-22.782v-466.436c0-12.562-10.22-22.782-22.782-22.782zm-257.278 50.5v-27.718c0-4.291 3.491-7.782 7.782-7.782h249.496c4.291 0 7.782 3.491 7.782 7.782v27.718zm257.278 446.5h-249.497c-4.291 0-7.782-3.491-7.782-7.782v-27.718h265.061v27.718c0 4.291-3.491 7.782-7.782 7.782z"/><path d="m175.136 420.747h161.727c17.355 0 31.475-14.119 31.475-31.474s-14.119-31.475-31.475-31.475h-77.195c-4.143 0-7.5 3.358-7.5 7.5s3.357 7.5 7.5 7.5h77.195c9.084 0 16.475 7.391 16.475 16.475s-7.391 16.474-16.475 16.474h-161.727c-9.084 0-16.474-7.39-16.474-16.474s7.39-16.475 16.474-16.475h54.532c4.142 0 7.5-3.358 7.5-7.5s-3.358-7.5-7.5-7.5h-54.532c-17.355 0-31.474 14.12-31.474 31.475 0 17.354 14.119 31.474 31.474 31.474z"/></g></g></svg>