<svg id="Capa_1" enable-background="new 0 0 512 512" height="512" viewBox="0 0 512 512" width="512" xmlns="http://www.w3.org/2000/svg"><g><g><g><path d="m99.084 45.549c-7.477 11.897-11.801 25.979-11.801 41.073 0 11.573 2.56 22.542 7.116 32.396-18.032 12.464-29.856 33.287-29.856 56.883 0 16.639 5.878 31.901 15.665 43.827-9.124 13.674-14.447 30.106-14.447 47.784 0 47.572 38.522 86.136 86.041 86.136h210.683c47.519 0 86.041-38.565 86.041-86.136 0-17.678-5.323-34.11-14.448-47.784 9.787-11.926 15.665-27.188 15.665-43.827 0-23.455-11.686-44.167-29.536-56.655 4.622-9.913 7.219-20.963 7.219-32.624 0-42.655-34.54-77.234-77.148-77.234-18.193 0-34.902 6.32-48.093 16.865-12.436-9.969-28.206-15.946-45.377-15.946-16.922 0-32.479 5.806-44.83 15.515-13.106-10.285-29.604-16.434-47.548-16.434-17.063 0-32.831 5.545-45.606 14.934" fill="#d6995c"/></g></g><g><g><path d="m118.824 24.322c-7.838 5.76-14.549 12.967-19.74 21.228" fill="#d6995c"/></g></g><g><g><path d="m181.976 25.823c4.621-3.633 9.691-6.718 15.114-9.158-9.919-4.657-20.979-7.276-32.66-7.276-5.142 0-10.163.515-15.023 1.475 12.112 2.392 23.209 7.613 32.569 14.959z" fill="#c48958"/></g></g><g><g><path d="m272.184 26.253c4.568-3.652 9.567-6.783 14.895-9.335-9.215-4.24-19.465-6.611-30.272-6.611-5.147 0-10.165.544-15.007 1.565 11.32 2.383 21.671 7.397 30.384 14.381z" fill="#c48958"/></g></g><g><g><path d="m449.741 175.902c0-23.455-11.686-44.167-29.536-56.655 4.622-9.913 7.219-20.963 7.219-32.624 0-42.655-34.54-77.234-77.148-77.234-5.127 0-10.13.519-14.975 1.475 35.414 7 62.124 38.252 62.124 75.759 0 11.662-2.597 22.711-7.219 32.624 17.85 12.489 29.536 33.2 29.536 56.655 0 16.639-5.878 31.901-15.665 43.827 9.124 13.674 14.448 30.106 14.448 47.784 0 47.572-38.522 86.136-86.041 86.136h30c47.519 0 86.041-38.564 86.041-86.136 0-17.678-5.323-34.11-14.448-47.784 9.786-11.926 15.664-27.189 15.664-43.827z" fill="#c48958"/></g></g><g><g><ellipse cx="144.335" cy="172.122" fill="#fee5d0" rx="34.619" ry="35.14"/></g></g><g><g><ellipse cx="368.704" cy="172.122" fill="#fee5d0" rx="34.618" ry="35.14"/></g></g><g><g><path d="m146.316 94.185c-.617 4.303-.943 8.701-.943 13.175v103.53c0 48.285 39.099 87.428 87.331 87.428h46.591c48.231 0 87.331-39.143 87.331-87.428v-103.53c0-4.474-.326-8.872-.943-13.175z" fill="#fee5d0"/></g></g><g><g><path d="m365.683 94.185h-30c.617 4.303.943 8.701.943 13.175v103.53c0 48.285-39.1 87.428-87.331 87.428h30c48.231 0 87.331-39.143 87.331-87.428v-103.53c0-4.475-.325-8.872-.943-13.175z" fill="#fedabc"/></g></g><g><g><g><path d="m216.5 224.342c0 4.142 3.358 7.5 7.5 7.5s7.5-3.358 7.5-7.5-3.358-7.5-7.5-7.5-7.5 3.358-7.5 7.5z"/></g></g><g><g><path d="m280.5 224.342c0 4.142 3.358 7.5 7.5 7.5s7.5-3.358 7.5-7.5-3.358-7.5-7.5-7.5-7.5 3.358-7.5 7.5z"/></g></g></g><g><g><path d="m355.695 19.001h-181.162c-30.159 12.388-52.715 35.759-52.715 78.63 0 37.574 30.426 68.033 67.958 68.033 24.282 0 45.576-12.759 57.594-31.936 14.358 24.367 40.844 40.718 71.149 40.718 45.592 0 82.552-37.001 82.552-82.644-.001-32.243-18.476-59.047-45.376-72.801z" fill="#d6995c"/></g></g><g><g><path d="m258.255 353.649h-2.225c-15.853 0-28.704-12.851-28.704-28.704v-78.669h59.633v78.669c0 15.853-12.852 28.704-28.704 28.704z" fill="#fee5d0"/></g></g><g><g><path d="m436.522 481.671h-358.761v-185.354c0-20.365 16.509-36.875 36.875-36.875h285.011c20.366 0 36.875 16.51 36.875 36.875z" fill="#e3e0e4"/></g></g><g><g><path d="m399.647 259.442h-30c20.365 0 36.875 16.509 36.875 36.875v185.353h30v-185.353c0-20.365-16.509-36.875-36.875-36.875z" fill="#d4cfd5"/></g></g><g><g><ellipse cx="257.142" cy="370.557" fill="#fdfcfc" rx="27.741" ry="27.772"/></g></g><g><g><path d="m487.625 502.612h-463.25c-9.32 0-16.875-7.555-16.875-16.875 0-9.32 7.555-16.875 16.875-16.875h463.25c9.32 0 16.875 7.555 16.875 16.875 0 9.32-7.555 16.875-16.875 16.875z" fill="#c48958"/></g></g><g><g><path d="m487.625 468.862h-30c9.32 0 16.875 7.555 16.875 16.875s-7.555 16.875-16.875 16.875h30c9.32 0 16.875-7.555 16.875-16.875s-7.555-16.875-16.875-16.875z" fill="#ba8254"/></g></g><g><path d="m257.142 405.829c19.432 0 35.241-15.823 35.241-35.272s-15.81-35.272-35.241-35.272-35.242 15.822-35.242 35.272c0 19.449 15.81 35.272 35.242 35.272zm0-55.544c11.161 0 20.241 9.094 20.241 20.272s-9.08 20.272-20.241 20.272-20.241-9.094-20.241-20.272c-.001-11.179 9.079-20.272 20.241-20.272z"/><path d="m487.625 461.362h-43.603v-148.324c.366-.42.703-.875.977-1.387 7.213-13.486 11.025-28.749 11.025-44.138 0-16.771-4.424-33.036-12.841-47.369 9.099-12.875 14.058-28.385 14.058-44.242 0-22.934-10.314-44.599-27.862-59.092 3.683-9.627 5.546-19.755 5.546-30.188 0-46.723-37.973-84.734-84.648-84.734-17.43 0-33.941 5.174-48.104 15.021-13.292-9.129-29.189-14.102-45.366-14.102-16.187 0-31.568 4.728-44.824 13.726-14.048-9.599-30.371-14.644-47.552-14.644-18.151 0-35.458 5.667-50.048 16.39-3.338 2.453-4.055 7.147-1.603 10.485 2.454 3.337 7.147 4.055 10.485 1.602 11.997-8.817 26.231-13.477 41.165-13.477 15.711 0 30.551 5.13 42.915 14.834 2.721 2.135 6.549 2.133 9.266-.004 11.578-9.101 25.477-13.912 40.195-13.912 14.948 0 29.018 4.944 40.686 14.298 2.74 2.196 6.635 2.198 9.375.006 12.456-9.959 27.467-15.223 43.409-15.223 38.404 0 69.648 31.283 69.648 69.734 0 10.272-2.192 20.182-6.517 29.455-1.539 3.3-.485 7.228 2.497 9.315 16.491 11.537 26.336 30.419 26.336 50.51 0 14.223-4.959 28.098-13.963 39.069-2.095 2.552-2.273 6.174-.44 8.921 8.627 12.927 13.187 28.011 13.187 43.621 0 3.665-.266 7.32-.772 10.935-6.889-15.592-22.492-26.506-40.605-26.506h-34.831c5.609-11.702 8.761-24.468 9.241-37.537 20.703-2.673 36.764-20.609 36.764-42.284 0-12.92-5.774-25.029-15.586-33.094 3.43-5.583 6.299-11.591 8.487-17.976 1.342-3.919-.747-8.183-4.665-9.525-3.92-1.343-8.185.746-9.526 4.665-10.398 30.358-38.937 50.755-71.013 50.755-26.443 0-51.23-14.188-64.687-37.026-1.33-2.257-3.74-3.656-6.359-3.692-2.61-.046-5.066 1.298-6.458 3.517-11.152 17.795-30.308 28.419-51.239 28.419-26.837 0-50.739-18.018-58.125-43.817-1.14-3.983-5.293-6.286-9.274-5.146s-6.286 5.293-5.146 9.274c1.648 5.758 3.966 11.2 6.836 16.264-13.398 7.436-21.851 21.677-21.851 37.383 0 21.309 15.521 39.018 35.719 42.149.463 13.116 3.619 25.93 9.248 37.672h-32.546c-18.128 0-33.741 10.931-40.622 26.543-.498-3.603-.755-7.262-.755-10.973 0-15.609 4.559-30.693 13.185-43.622 1.833-2.746 1.654-6.368-.44-8.92-9.004-10.97-13.962-24.845-13.962-39.069 0-20.234 9.951-39.192 26.62-50.714 3-2.074 4.073-6.006 2.543-9.316-4.263-9.221-6.424-19.062-6.424-29.249 0-13.171 3.684-25.994 10.652-37.082 2.203-3.507 1.147-8.137-2.36-10.341-3.504-2.203-8.136-1.148-10.341 2.359-8.473 13.482-12.951 29.065-12.951 45.063 0 10.327 1.829 20.364 5.445 29.915-17.751 14.494-28.185 36.26-28.185 59.364 0 15.857 4.958 31.368 14.057 44.242-8.416 14.333-12.84 30.598-12.84 47.369 0 14.954 3.61 29.833 10.44 43.026.408.788.947 1.46 1.562 2.032v148.791h-45.885c-13.44.001-24.375 10.935-24.375 24.376s10.935 24.375 24.375 24.375h463.25c13.44 0 24.375-10.935 24.375-24.375s-10.935-24.375-24.375-24.375zm-91.803-289.24c0 13.349-9.332 24.517-21.696 27.084v-36.496c4.41-3.462 8.504-7.333 12.214-11.579 5.986 5.225 9.482 12.859 9.482 20.991zm-278.606 0c0-10.78 6.098-20.47 15.613-25.018 1.6 1.835 3.282 3.593 5.045 5.263v46.596c-11.843-2.962-20.658-13.869-20.658-26.841zm35.658 38.768v-47.463c11.037 6.221 23.68 9.737 36.901 9.737 22.371 0 43.111-9.713 57.347-26.439 16.922 21.959 43.382 35.222 71.396 35.222 14.443 0 28.287-3.447 40.607-9.677v38.62c0 14.518-3.922 28.685-11.332 41.053h-183.587c-7.41-12.368-11.332-26.536-11.332-41.053zm334.751 284.222h-463.25c-5.169 0-9.375-4.205-9.375-9.375 0-5.169 4.206-9.375 9.375-9.375h145.064c4.143 0 7.5-3.358 7.5-7.5s-3.357-7.5-7.5-7.5h-84.177v-165.045c0-16.197 13.178-29.375 29.375-29.375h285.011c16.197 0 29.375 13.178 29.375 29.375v165.044h-229.584c-4.143 0-7.5 3.358-7.5 7.5s3.357 7.5 7.5 7.5h288.185c5.169 0 9.375 4.206 9.375 9.375.001 5.17-4.205 9.376-9.374 9.376z"/></g></g></svg>