<svg id="Capa_1" enable-background="new 0 0 512 512" height="512" viewBox="0 0 512 512" width="512" xmlns="http://www.w3.org/2000/svg"><g><g><g><ellipse cx="137.763" cy="165.478" fill="#fee5d0" rx="36.486" ry="37.036"/></g></g><g><g><ellipse cx="374.238" cy="165.478" fill="#fee5d0" rx="36.486" ry="37.036"/></g></g><g><g><path d="m138.857 131.464v74.873c0 50.891 41.209 92.145 92.043 92.145h49.105c50.834 0 92.043-41.255 92.043-92.145v-74.873z" fill="#fee5d0"/></g></g><g><g><path d="m342.048 131.464v74.873c0 50.891-41.209 92.145-92.043 92.145h30c50.834 0 92.043-41.255 92.043-92.145v-74.873z" fill="#fedabc"/></g></g><g><g><path d="m384.72 151.308h-257.439c-6.487 0-11.746-5.259-11.746-11.746v-42.588c0-6.487 5.259-11.746 11.746-11.746h257.439c6.487 0 11.746 5.259 11.746 11.746v42.589c-.001 6.486-5.259 11.745-11.746 11.745z" fill="#c5bec6"/></g></g><g><g><path d="m384.72 85.228h-30c6.487 0 11.746 5.259 11.746 11.746v42.589c0 6.487-5.259 11.746-11.746 11.746h30c6.487 0 11.746-5.259 11.746-11.746v-42.589c-.001-6.487-5.259-11.746-11.746-11.746z" fill="#b5adb7"/></g></g><g><g><path d="m296.119 9.388h-84.262c-39.741 0-71.957 32.216-71.957 71.957v3.883h228.176v-3.883c0-39.741-32.216-71.957-71.957-71.957z" fill="#a59da7"/></g></g><g><g><path d="m296.119 9.388h-30c39.741 0 71.957 32.216 71.957 71.957v3.883h30v-3.883c0-39.741-32.216-71.957-71.957-71.957z" fill="#968d97"/></g></g><g><g><g><path d="m210.658 216.516c0 4.142 3.358 7.5 7.5 7.5s7.5-3.358 7.5-7.5-3.358-7.5-7.5-7.5-7.5 3.358-7.5 7.5z"/></g></g><g><g><path d="m285.248 216.516c0 4.142 3.358 7.5 7.5 7.5s7.5-3.358 7.5-7.5-3.358-7.5-7.5-7.5-7.5 3.358-7.5 7.5z"/></g></g></g><g><g><path d="m435.381 481.836h-358.761v-185.354c0-20.365 16.51-36.875 36.875-36.875h285.011c20.366 0 36.875 16.51 36.875 36.875z" fill="#e3e0e4"/></g></g><g><g><path d="m398.506 259.607h-30c20.365 0 36.875 16.51 36.875 36.875v185.354h30v-185.354c0-20.366-16.51-36.875-36.875-36.875z" fill="#d4cfd5"/></g></g><g><g><ellipse cx="256" cy="370.721" fill="#fdfcfc" rx="27.741" ry="27.772"/></g></g><g><g><path d="m487.625 502.612h-463.25c-9.32 0-16.875-7.555-16.875-16.875 0-9.32 7.555-16.875 16.875-16.875h463.25c9.32 0 16.875 7.555 16.875 16.875 0 9.32-7.555 16.875-16.875 16.875z" fill="#c48958"/></g></g><g><g><path d="m487.625 468.862h-30c9.32 0 16.875 7.555 16.875 16.875s-7.555 16.875-16.875 16.875h30c9.32 0 16.875-7.555 16.875-16.875s-7.555-16.875-16.875-16.875z" fill="#ba8254"/></g></g><g><path d="m291.241 370.722c0-19.449-15.81-35.273-35.241-35.273s-35.241 15.823-35.241 35.273c0 19.449 15.81 35.272 35.241 35.272s35.241-15.823 35.241-35.272zm-55.482 0c0-11.178 9.08-20.273 20.241-20.273s20.241 9.094 20.241 20.273c0 11.178-9.08 20.272-20.241 20.272s-20.241-9.094-20.241-20.272z"/><path d="m487.625 461.362h-44.744v-164.88c0-24.468-19.906-44.375-44.375-44.375h-30.07c6.775-13.104 10.559-27.58 11.054-42.421 21.786-2.638 38.735-21.451 38.735-44.208 0-12.527-5.181-24.377-14.26-32.81v-35.694c0-10.612-8.634-19.246-19.245-19.246h-9.235c-1.899-42.14-36.766-75.84-79.365-75.84h-51.79c-4.143 0-7.5 3.358-7.5 7.5s3.357 7.5 7.5 7.5h51.79c34.327 0 62.473 26.976 64.356 60.84h-212.976c1.884-33.864 30.03-60.84 64.357-60.84h2.472c4.143 0 7.5-3.358 7.5-7.5s-3.357-7.5-7.5-7.5h-2.472c-42.6 0-77.468 33.7-79.366 75.84h-5.21c-10.612 0-19.246 8.634-19.246 19.246v36.11c-.684.365-1.324.839-1.889 1.43-7.977 8.349-12.37 19.345-12.37 30.964 0 22.144 16.3 40.917 37.636 44.061.475 14.893 4.259 29.421 11.057 42.568h-28.975c-24.469 0-44.375 19.907-44.375 44.375v62.79c0 4.142 3.357 7.5 7.5 7.5s7.5-3.358 7.5-7.5v-62.79c0-16.197 13.178-29.375 29.375-29.375h285.011c16.197 0 29.375 13.178 29.375 29.375v164.88h-343.76v-72.09c0-4.142-3.357-7.5-7.5-7.5s-7.5 3.358-7.5 7.5v72.09h-44.745c-13.44 0-24.375 10.934-24.375 24.375s10.935 24.375 24.375 24.375h463.25c13.44 0 24.375-10.935 24.375-24.375s-10.935-24.375-24.375-24.375zm-108.077-266.854v-35.7h5.172c6.098 0 11.533-2.86 15.061-7.3 2.237 4.243 3.444 9.026 3.444 13.969 0 14.438-10.222 26.481-23.677 29.031zm-11.472-101.78h16.643c2.341 0 4.245 1.905 4.245 4.246v42.589c0 2.341-1.904 4.246-4.245 4.246h-37.961v-51.08h21.318zm-65.656 51.08v-51.08h29.339v51.08zm-44.339 0v-51.08h29.339v51.08zm-44.339 0v-51.08h29.339v51.08zm-44.339 0v-51.08h29.339v51.08zm-46.368-46.834c0-2.341 1.905-4.246 4.246-4.246h12.618 14.504v51.08h-27.122c-2.341 0-4.246-1.905-4.246-4.246zm-14.259 68.503c0-4.948 1.198-9.721 3.442-13.97 3.529 4.44 8.964 7.301 15.063 7.301h4.076v35.478c-12.956-2.994-22.581-14.899-22.581-28.809zm50.148 85.288c-8.221-13.321-12.566-28.684-12.566-44.428v-47.529h218.191v47.529c0 15.746-4.346 31.11-12.567 44.43-.267.432-.483.881-.653 1.339h-191.75c-.171-.458-.388-.908-.655-1.341zm328.701 244.347h-463.25c-5.169 0-9.375-4.205-9.375-9.375 0-5.169 4.206-9.375 9.375-9.375h463.25c5.169 0 9.375 4.206 9.375 9.375s-4.206 9.375-9.375 9.375z"/></g></g></svg>