<svg id="Capa_1" enable-background="new 0 0 512 512" height="512" viewBox="0 0 512 512" width="512" xmlns="http://www.w3.org/2000/svg"><g><g><g><path d="m481.755 476.755h-451.51c-12.562 0-22.745-10.183-22.745-22.745v-335.15c0-12.562 10.183-22.745 22.745-22.745h451.511c12.561 0 22.745 10.183 22.745 22.745v335.15c-.001 12.562-10.184 22.745-22.746 22.745z" fill="#fdfcfc"/></g></g><g><g><path d="m481.755 96.115h-30c12.561 0 22.745 10.183 22.745 22.745v335.15c0 12.561-10.183 22.745-22.745 22.745h30c12.561 0 22.745-10.183 22.745-22.745v-335.15c0-12.561-10.183-22.745-22.745-22.745z" fill="#f1f1f1"/></g></g><g><g><path d="m7.5 413.475v40.535c0 12.561 10.183 22.745 22.745 22.745h451.511c12.561 0 22.745-10.183 22.745-22.745v-40.535z" fill="#e3e0e4"/></g></g><g><g><path d="m474.5 413.475v40.536c0 12.561-10.183 22.745-22.745 22.745h30c12.561 0 22.745-10.183 22.745-22.745v-40.536z" fill="#d4cfd5"/></g></g><g><g><path d="m322.128 221.769h131.25c7.242 0 13.113 5.871 13.113 13.113v14.761c0 7.242-5.871 13.113-13.113 13.113h-9.879c-.989 0-1.904.528-2.398 1.385l-10.502 18.191c-1.066 1.846-3.731 1.846-4.797 0l-10.502-18.192c-.495-.857-1.409-1.385-2.398-1.385h-90.774c-7.242 0-13.113-5.871-13.113-13.113v-14.761c0-7.242 5.87-13.112 13.113-13.112z" fill="#f8e883"/></g></g><g><g><path d="m453.378 318.769h-131.25c-7.242 0-13.113 5.871-13.113 13.113v14.761c0 7.242 5.871 13.113 13.113 13.113h9.879c.989 0 1.904.528 2.398 1.385l10.502 18.191c1.066 1.846 3.731 1.846 4.797 0l10.502-18.19c.495-.857 1.409-1.385 2.398-1.385h90.774c7.242 0 13.113-5.871 13.113-13.113v-14.761c0-7.244-5.871-13.114-13.113-13.114z" fill="#92e0c4"/></g></g><g><g><path d="m190.41 340.012c27.505 2.156 49.168 25.142 49.202 53.206l.027 15.103c.003 2.738-2.214 4.96-4.951 4.963l-152.746.186c-2.738.003-4.96-2.214-4.964-4.951l-.027-15.103c-.034-28.002 21.477-51 48.889-53.31" fill="#f8e883"/></g></g><g><g><path d="m239.612 393.219c-.034-28.065-21.698-51.051-49.202-53.207l-29.583.043c27.305 2.356 48.751 25.241 48.785 53.164l.027 15.103c.003 2.738-2.214 4.96-4.951 4.963l-123.106.149c.121.009.237.036.361.036l152.745-.185c2.738-.003 4.955-2.226 4.951-4.963z" fill="#f7e365"/></g></g><g><g><path d="m234.861 257.314.019 15.796c.048 39.854-32.22 72.201-72.074 72.249l-9.164.011c-39.854.048-72.201-32.22-72.249-72.074l-.059-48.942c-.05-41.372 33.448-74.951 74.819-75.001l3.667-.004c41.372-.05 74.951 33.447 75.001 74.819z" fill="#fee5d0"/></g></g><g><g><path d="m234.861 257.314-.04-33.146c-.05-41.372-33.629-74.869-75.001-74.819l-3.667.004c-4.459.006-8.819.423-13.063 1.175 35.047 6.224 61.687 36.799 61.732 73.64l.04 33.146.019 15.796c.044 36.364-26.821 66.464-61.8 71.496 3.449.502 6.973.769 10.562.764l9.164-.011c39.854-.048 72.123-32.396 72.074-72.249z" fill="#fedabc"/></g></g><g><g><path d="m234.836 237.297-.016-13.129c-.05-41.371-33.629-74.869-75-74.819l-3.667.004c-41.372.049-74.871 33.629-74.82 75.001l.016 12.943h46.799c12.52 0 24.659-4.308 34.378-12.201l21.298-17.297c.762-.619 1.887-.48 2.476.305l5.533 7.38c10.166 13.557 26.058 21.619 43.003 21.813z" fill="#a59da7"/></g></g><g><g><path d="m204.821 224.167.004 3.694c8.758 5.949 19.165 9.311 30.011 9.435l-.016-13.129c-.05-41.371-33.629-74.869-75-74.819l-3.667.004c-4.46.005-8.82.423-13.064 1.175 35.047 6.224 61.687 36.799 61.732 73.64z" fill="#968d97"/></g></g><g><g><path d="m455.757 187.12h-63.532c-5.928 0-10.734-4.806-10.734-10.734v-36.057c0-5.928 4.806-10.734 10.734-10.734h63.532c5.928 0 10.734 4.806 10.734 10.734v36.057c0 5.928-4.806 10.734-10.734 10.734z" fill="#bed9fd"/></g></g><g><g><path d="m453.378 221.769h-30c7.242 0 13.113 5.871 13.113 13.113v14.761c0 7.242-5.871 13.113-13.113 13.113h-9.879c-.102 0-.199.029-.299.04.87.096 1.656.577 2.099 1.345l10.502 18.19c1.066 1.846 3.731 1.846 4.797 0l10.502-18.19c.495-.857 1.409-1.385 2.398-1.385h9.879c7.242 0 13.113-5.871 13.113-13.113v-14.761c.001-7.243-5.87-13.113-13.112-13.113z" fill="#f7e365"/></g></g><g><g><path d="m453.378 318.769h-30c7.242 0 13.113 5.871 13.113 13.113v14.761c0 7.242-5.871 13.113-13.113 13.113h30c7.242 0 13.113-5.871 13.113-13.113v-14.761c0-7.243-5.871-13.113-13.113-13.113z" fill="#77d1b3"/></g></g><g><g><path d="m455.757 129.594h-30c5.928 0 10.734 4.806 10.734 10.734v36.057c0 5.928-4.806 10.734-10.734 10.734h30c5.928 0 10.734-4.806 10.734-10.734v-36.057c0-5.928-4.806-10.734-10.734-10.734z" fill="#9ec8fc"/></g></g><g><g><path d="m286.983 96.136h-61.966v-29.908c0-17.111 13.871-30.983 30.983-30.983 17.111 0 30.983 13.871 30.983 30.983z" fill="#e3e0e4"/></g></g><g><circle cx="256.034" cy="66.116" r="7.5"/><path d="m481.755 88.615h-187.272v-22.387c0-21.22-17.263-38.483-38.483-38.483s-38.483 17.263-38.483 38.483v22.387h-110.565c-4.142 0-7.5 3.358-7.5 7.5s3.358 7.5 7.5 7.5h374.803c8.406 0 15.245 6.839 15.245 15.245v287.115h-249.866l-.023-12.766c-.03-24.798-15.259-46.559-37.029-55.943 3.172-2.355 6.192-4.96 9.033-7.808 15.028-15.064 23.29-35.079 23.264-56.358l-.019-15.796s0 0 0-.001l-.04-33.146c-.055-45.408-37.013-82.31-82.409-82.31-.033 0-.068 0-.102 0l-3.667.004c-22.013.027-42.697 8.624-58.244 24.208-15.546 15.585-24.093 36.29-24.066 58.303l.059 48.942c.032 26.24 12.819 49.534 32.469 64.032-7.8 3.347-14.883 8.322-20.77 14.702-10.427 11.302-16.158 25.999-16.14 41.389l.022 12.546h-54.472v-287.113c0-8.406 6.839-15.245 15.245-15.245h46.708c4.142 0 7.5-3.358 7.5-7.5s-3.358-7.5-7.5-7.5h-46.708c-16.677 0-30.245 13.568-30.245 30.245v335.15c0 16.677 13.568 30.245 30.245 30.245h203.289c4.142 0 7.5-3.358 7.5-7.5s-3.358-7.5-7.5-7.5h-203.289c-8.406 0-15.245-6.839-15.245-15.245v-33.035h482v33.035c0 8.406-6.839 15.245-15.245 15.245h-218.221c-4.142 0-7.5 3.358-7.5 7.5s3.358 7.5 7.5 7.5h218.222c16.677 0 30.245-13.568 30.245-30.245v-335.15c-.001-16.677-13.569-30.245-30.246-30.245zm-249.238-22.387c0-12.949 10.534-23.483 23.483-23.483s23.483 10.534 23.483 23.483v22.387h-46.966zm-76.356 90.625 3.667-.004h.083c37.13 0 67.364 30.188 67.409 67.329l.006 4.893c-11.649-2.074-22.321-8.521-29.493-18.086l-5.533-7.378c-1.498-1.998-3.778-3.319-6.256-3.625-2.476-.307-5.011.422-6.949 1.996l-21.298 17.297c-8.355 6.786-18.885 10.523-29.65 10.523h-39.307l-.007-5.452c-.045-37.171 30.158-67.448 67.328-67.493zm-67.269 116.434-.034-28.49h39.29c14.198 0 28.086-4.929 39.106-13.879l16.642-13.517 1.936 2.582c9.994 13.327 25.137 22.074 41.513 24.268l.035 28.868c.021 17.272-6.686 33.518-18.883 45.746-12.198 12.228-28.428 18.974-45.7 18.995l-9.164.011c-.028 0-.051 0-.08 0-35.615 0-64.617-28.957-64.661-64.584zm36.468 74.413c8.771 3.331 18.269 5.171 28.192 5.171h.098l9.164-.011c9.85-.012 19.417-1.821 28.352-5.232 23.038 2.497 40.917 22.262 40.945 45.605l.022 12.556-147.66.179-.022-12.56c-.027-23.336 17.854-43.19 40.909-45.708z"/><path d="m301.515 234.881v14.761c0 11.366 9.247 20.613 20.613 20.613h88.043l9.136 15.825c1.829 3.167 5.236 5.135 8.894 5.135s7.065-1.968 8.894-5.135l9.137-15.825h7.147c11.366 0 20.613-9.247 20.613-20.613v-14.761c0-11.366-9.247-20.613-20.613-20.613h-131.252c-11.365.001-20.612 9.248-20.612 20.613zm157.476 0v14.761c0 3.095-2.518 5.613-5.613 5.613h-9.878c-3.658 0-7.065 1.968-8.893 5.135l-6.406 11.095-6.405-11.094c-1.829-3.168-5.236-5.135-8.894-5.135h-90.774c-3.095 0-5.613-2.518-5.613-5.613v-14.761c0-3.095 2.518-5.613 5.613-5.613h131.251c3.094 0 5.612 2.518 5.612 5.612z"/><path d="m301.515 346.643c0 11.366 9.247 20.613 20.613 20.613h7.148l9.137 15.825c1.829 3.167 5.236 5.135 8.894 5.135 3.657 0 7.065-1.968 8.893-5.135l9.137-15.825h88.043c11.366 0 20.613-9.247 20.613-20.613v-14.761c0-11.366-9.247-20.613-20.613-20.613h-131.253c-11.366 0-20.613 9.247-20.613 20.613v14.761zm15-14.762c0-3.095 2.518-5.613 5.613-5.613h131.251c3.095 0 5.613 2.518 5.613 5.613v14.761c0 3.095-2.518 5.613-5.613 5.613h-90.774c-3.658 0-7.065 1.968-8.894 5.135l-6.405 11.095-6.405-11.094c-1.829-3.168-5.236-5.135-8.894-5.135h-9.879c-3.095 0-5.613-2.518-5.613-5.613z"/><path d="m159.166 313.559h.031c6.583-.008 12.764-2.609 17.403-7.325 4.612-4.688 7.147-10.908 7.139-17.516-.005-4.139-3.362-7.491-7.5-7.491-.003 0-.006 0-.009 0-4.142.005-7.496 3.367-7.491 7.509.003 2.64-1.002 5.118-2.832 6.977-1.802 1.831-4.191 2.842-6.729 2.845-.004 0-.008 0-.012 0-2.533 0-4.92-1.004-6.723-2.828-1.834-1.855-2.846-4.33-2.849-6.97-.005-4.139-3.361-7.491-7.5-7.491-.002 0-.006 0-.009 0-4.142.005-7.496 3.367-7.491 7.509.008 6.607 2.558 12.822 7.181 17.498 4.645 4.698 10.819 7.284 17.391 7.283z"/><path d="m455.757 194.62c10.054 0 18.234-8.18 18.234-18.234v-36.057c0-10.055-8.18-18.234-18.234-18.234h-63.533c-10.054 0-18.234 8.18-18.234 18.234v36.057c0 10.055 8.18 18.234 18.234 18.234zm-66.767-18.234v-36.057c0-1.783 1.451-3.234 3.234-3.234h63.533c1.783 0 3.234 1.451 3.234 3.234v36.057c0 1.783-1.451 3.234-3.234 3.234h-63.533c-1.783 0-3.234-1.451-3.234-3.234z"/></g></g></svg>