<svg id="Capa_1" enable-background="new 0 0 512 512" height="512" viewBox="0 0 512 512" width="512" xmlns="http://www.w3.org/2000/svg"><g><g><g><path d="m210.997 256h-158.495c-24.854 0-45.002-20.148-45.002-45.003v-158.495c0-24.854 20.148-45.002 45.002-45.002h158.495c24.855 0 45.003 20.148 45.003 45.002v158.495c0 24.855-20.148 45.003-45.003 45.003z" fill="#ddebfd"/></g></g><g><g><path d="m459.497 256h-158.495c-24.854 0-45.002-20.148-45.002-45.003v-158.495c0-24.854 20.148-45.002 45.002-45.002h158.495c24.854 0 45.003 20.148 45.003 45.003v158.495c0 24.854-20.148 45.002-45.003 45.002z" fill="#ddebfd"/></g></g><g><g><path d="m210.997 504.5h-158.495c-24.854 0-45.002-20.148-45.002-45.003v-158.495c0-24.854 20.148-45.002 45.002-45.002h158.495c24.855 0 45.003 20.148 45.003 45.002v158.495c0 24.855-20.148 45.003-45.003 45.003z" fill="#ddebfd"/></g></g><g><g><path d="m459.497 504.5h-158.495c-24.854 0-45.003-20.148-45.003-45.003v-158.495c.001-24.854 20.149-45.002 45.003-45.002h158.495c24.854 0 45.003 20.148 45.003 45.003v158.495c0 24.854-20.148 45.002-45.003 45.002z" fill="#ddebfd"/></g></g><g><g><path d="m210.997 7.5h-30c24.855 0 45.003 20.148 45.003 45.002v158.495c0 24.855-20.148 45.003-45.003 45.003h30c24.855 0 45.003-20.148 45.003-45.003v-158.495c0-24.854-20.148-45.002-45.003-45.002z" fill="#bed9fd"/></g></g><g><g><path d="m459.497 7.5h-30c24.854 0 45.003 20.148 45.003 45.003v158.495c0 24.855-20.148 45.003-45.003 45.003h30c24.854 0 45.003-20.148 45.003-45.003v-158.496c0-24.854-20.148-45.002-45.003-45.002z" fill="#bed9fd"/></g></g><g><g><path d="m210.997 256h-30c24.855 0 45.003 20.148 45.003 45.002v158.495c0 24.854-20.148 45.003-45.003 45.003h30c24.854 0 45.003-20.148 45.003-45.003v-158.495c0-24.854-20.148-45.002-45.003-45.002z" fill="#bed9fd"/></g></g><g><g><path d="m459.497 256h-30c24.854 0 45.003 20.148 45.003 45.003v158.495c0 24.854-20.148 45.003-45.003 45.003h30c24.854 0 45.003-20.148 45.003-45.003v-158.496c0-24.854-20.148-45.002-45.003-45.002z" fill="#bed9fd"/></g></g><g><g><path d="m195.334 256-.018-10.318c-.027-21.938-16.961-39.906-38.461-41.591l-50.473.073c-21.427 1.806-38.242 19.783-38.216 41.672l.018 10.164z" fill="#e6989e"/></g></g><g><g><path d="m191.602 139.446.015 12.348c.038 31.153-25.186 56.439-56.34 56.477l-7.163.009c-31.153.038-56.439-25.186-56.477-56.34l-.046-38.258c-.039-32.34 26.146-58.588 58.486-58.628l2.867-.003c32.34-.039 58.588 26.146 58.628 58.486z" fill="#fee5d0"/></g></g><g><g><path d="m191.602 139.446-.031-25.91c-.039-32.34-26.288-58.525-58.628-58.486l-2.867.003c-4.644.006-9.155.568-13.486 1.596 25.763 6.119 44.947 29.247 44.98 56.887l.031 25.91.015 12.348c.033 27.271-19.291 50.044-45.005 55.323 3.714.765 7.561 1.167 11.502 1.163l7.163-.008c31.153-.038 56.378-25.324 56.34-56.477z" fill="#fedabc"/></g></g><g><g><path d="m191.583 123.799-.013-10.263c-.039-32.34-26.287-58.524-58.627-58.486l-2.867.004c-32.34.039-58.526 26.287-58.486 58.628l.012 10.118h36.583c9.787 0 19.276-3.368 26.873-9.538l16.649-13.521c.596-.484 1.475-.376 1.935.239l4.326 5.769c7.946 10.597 20.369 16.898 33.615 17.05z" fill="#a59da7"/></g></g><g><g><path d="m438.181 139.446.015 12.348c.038 31.153-25.186 56.439-56.34 56.477l-7.164.009c-31.153.038-56.439-25.186-56.477-56.34l-.046-38.258c-.039-32.34 26.146-58.588 58.486-58.628l2.867-.003c32.34-.039 58.588 26.146 58.628 58.486z" fill="#fee5d0"/></g></g><g><g><path d="m438.181 139.446-.031-25.91c-.039-32.34-26.288-58.525-58.628-58.486l-2.867.003c-4.644.006-9.155.568-13.486 1.596 25.763 6.119 44.947 29.247 44.98 56.887l.031 25.91.015 12.348c.033 27.271-19.292 50.044-45.006 55.323 3.714.765 7.561 1.167 11.502 1.163l7.164-.008c31.153-.038 56.378-25.324 56.34-56.477z" fill="#fedabc"/></g></g><g><g><path d="m441.913 256-.018-10.318c-.027-21.938-16.961-39.906-38.461-41.591l-50.473.073c-21.427 1.806-38.242 19.783-38.216 41.672l.018 10.164z" fill="#77d1b3"/></g></g><g><g><path d="m438.162 123.799-.012-10.263c-.039-32.34-26.287-58.524-58.627-58.486l-2.867.004c-32.34.039-58.526 26.287-58.486 58.628l.012 10.118h36.583c9.787 0 19.276-3.368 26.873-9.538l16.648-13.521c.596-.484 1.475-.376 1.935.239l4.326 5.769c7.946 10.597 20.369 16.898 33.615 17.05z" fill="#d6995c"/></g></g><g><g><path d="m195.334 503.89-.018-10.318c-.027-21.938-16.961-39.906-38.461-41.591l-50.473.073c-21.427 1.806-38.242 19.783-38.216 41.672l.018 10.164z" fill="#f7e365"/></g></g><g><g><path d="m191.602 387.336.015 12.348c.038 31.153-25.186 56.439-56.34 56.477l-7.163.009c-31.153.038-56.439-25.186-56.477-56.34l-.046-38.258c-.039-32.34 26.146-58.589 58.486-58.628l2.867-.004c32.34-.039 58.588 26.146 58.628 58.486z" fill="#e3a76f"/></g></g><g><g><path d="m191.602 387.336-.031-25.91c-.039-32.34-26.288-58.525-58.628-58.486l-2.867.004c-4.644.005-9.155.568-13.486 1.595 25.763 6.119 44.947 29.247 44.98 56.887l.031 25.91.015 12.348c.033 27.271-19.291 50.044-45.005 55.323 3.714.765 7.561 1.168 11.502 1.163l7.163-.009c31.153-.038 56.378-25.323 56.34-56.477z" fill="#d6995c"/></g></g><g><g><path d="m191.583 371.689-.013-10.263c-.039-32.34-26.287-58.524-58.627-58.486l-2.867.003c-32.34.039-58.526 26.288-58.486 58.628l.012 10.118h36.583c9.787 0 19.276-3.368 26.873-9.538l16.649-13.521c.596-.484 1.475-.376 1.935.238l4.326 5.769c7.946 10.599 20.369 16.901 33.615 17.052z" fill="#777078"/></g></g><g><g><circle cx="443.384" cy="320.911" fill="#faf0b0" r="29.652"/></g></g><g><g><circle cx="317.116" cy="320.911" fill="#faf0b0" r="29.652"/></g></g><g><g><path d="m441.913 504.5-.018-10.318c-.027-21.938-16.961-39.906-38.461-41.591l-50.473.073c-21.427 1.806-38.242 19.783-38.216 41.672l.018 10.164z" fill="#9ec8fc"/></g></g><g><g><path d="m438.181 387.946.015 12.348c.038 31.153-25.186 56.439-56.34 56.477l-7.164.009c-31.153.038-56.439-25.186-56.477-56.34l-.046-38.258c-.039-32.34 26.146-58.589 58.486-58.628l2.867-.003c32.34-.039 58.588 26.146 58.628 58.486z" fill="#fee5d0"/></g></g><g><g><path d="m438.181 387.946-.031-25.91c-.039-32.34-26.288-58.525-58.628-58.486l-2.867.003c-4.644.006-9.155.568-13.486 1.595 25.763 6.119 44.947 29.247 44.98 56.887l.031 25.91.015 12.348c.033 27.27-19.291 50.044-45.005 55.323 3.714.765 7.561 1.168 11.502 1.163l7.164-.008c31.153-.038 56.378-25.323 56.34-56.477z" fill="#fedabc"/></g></g><g><g><path d="m438.162 372.299-.012-10.263c-.039-32.34-26.287-58.524-58.627-58.486l-2.867.003c-32.34.039-58.526 26.287-58.486 58.628l.012 10.118h36.583c9.787 0 19.276-3.368 26.873-9.538l16.648-13.521c.596-.484 1.475-.376 1.935.239l4.326 5.769c7.946 10.598 20.369 16.899 33.615 17.051z" fill="#faf0b0"/></g></g><g><path d="m132.433 185.05h.025c11.494-.014 20.834-9.46 20.82-21.056-.005-4.139-3.361-7.491-7.5-7.491-.002 0-.006 0-.009 0-4.142.005-7.496 3.367-7.491 7.509.004 3.326-2.615 6.035-5.837 6.039-.002 0-.005 0-.007 0-3.22 0-5.842-2.701-5.846-6.024-.005-4.139-3.362-7.491-7.5-7.491-.003 0-.006 0-.009 0-4.142.005-7.496 3.367-7.491 7.509.014 11.587 9.362 21.006 20.845 21.005z"/><path d="m379.012 185.05h.025c11.494-.014 20.834-9.46 20.82-21.056-.005-4.139-3.361-7.491-7.5-7.491-.002 0-.006 0-.009 0-4.142.005-7.496 3.367-7.491 7.509.004 3.326-2.615 6.035-5.838 6.039-.002 0-.005 0-.007 0-3.22 0-5.842-2.701-5.846-6.024-.005-4.139-3.362-7.491-7.5-7.491-.003 0-.006 0-.009 0-4.142.005-7.496 3.367-7.491 7.509.015 11.587 9.363 21.006 20.846 21.005z"/><path d="m132.434 432.94h.025c11.494-.015 20.833-9.46 20.819-21.057-.005-4.139-3.361-7.491-7.5-7.491-.002 0-.006 0-.009 0-4.142.005-7.496 3.367-7.491 7.509.004 3.326-2.615 6.035-5.837 6.039-.002 0-.004 0-.007 0-3.22 0-5.842-2.701-5.846-6.024-.005-4.139-3.362-7.491-7.5-7.491-.003 0-.006 0-.009 0-4.142.005-7.496 3.367-7.491 7.509.014 11.589 9.362 21.007 20.846 21.006z"/><path d="m512 210.997v-158.495c0-28.949-23.553-52.502-52.503-52.502h-158.495c-19.078 0-35.808 10.231-45.002 25.493-9.194-15.262-25.924-25.493-45.003-25.493h-98.376c-4.142 0-7.5 3.358-7.5 7.5s3.358 7.5 7.5 7.5h98.376c20.679 0 37.503 16.824 37.503 37.502v158.495c0 20.679-16.824 37.503-37.503 37.503h-8.177l-.005-2.828c-.023-19.314-11.057-36.105-27.44-44.152 14.489-11.743 23.766-29.676 23.742-49.735l-.046-38.258c-.044-36.397-29.669-65.977-66.056-65.977-.027 0-.055 0-.081 0l-2.867.003c-36.423.044-66.02 29.713-65.976 66.137l.046 38.257c.024 20.089 9.372 38.021 23.926 49.728-16.268 8.158-27.42 25.082-27.397 44.173l.005 2.651h-8.168c-20.679.001-37.503-16.823-37.503-37.502v-158.495c0-20.678 16.824-37.502 37.502-37.502h30.119c4.142 0 7.5-3.358 7.5-7.5s-3.357-7.5-7.499-7.5h-30.12c-28.949 0-52.502 23.553-52.502 52.502v158.495c0 19.079 10.232 35.809 25.493 45.003-15.261 9.194-25.493 25.924-25.493 45.002v158.495c0 28.95 23.553 52.503 52.502 52.503h158.495c19.078 0 35.809-10.231 45.003-25.493 9.194 15.262 25.924 25.493 45.002 25.493h158.495c28.95 0 52.503-23.553 52.503-52.503v-4.057c0-4.142-3.358-7.5-7.5-7.5s-7.5 3.358-7.5 7.5v4.057c0 20.679-16.824 37.503-37.503 37.503h-10.097l-.005-2.828c-.023-19.314-11.057-36.105-27.44-44.152 14.489-11.743 23.766-29.676 23.742-49.735l-.046-38.258c-.002-1.354-.057-2.695-.139-4.029 19.5-1.106 35.026-17.315 35.026-37.087 0-20.485-16.666-37.151-37.152-37.151-14.12 0-26.671 7.885-32.948 19.958-9.214-4.887-19.708-7.668-30.842-7.668-.027 0-.055 0-.081 0l-2.867.003c-9.662.012-18.999 2.097-27.522 6.02-6.617-11.253-18.711-18.314-32.008-18.314-20.486 0-37.152 16.666-37.152 37.151 0 18.128 13.319 33.605 30.88 36.616-.105 1.546-.177 3.099-.175 4.664l.046 38.257c.021 17.071 6.688 33.111 18.773 45.167 1.633 1.629 3.344 3.15 5.115 4.578-16.248 8.165-27.382 25.079-27.359 44.155l.004 2.653h-6.247c-20.679 0-37.502-16.824-37.502-37.503v-158.495c0-20.679 16.824-37.502 37.502-37.502h158.495c20.679 0 37.503 16.824 37.503 37.502v124.438c0 4.142 3.358 7.5 7.5 7.5s7.5-3.358 7.5-7.5v-124.438c0-19.078-10.231-35.808-25.493-45.002 15.261-9.194 25.492-25.924 25.492-45.003zm-68.616 87.763c12.214 0 22.152 9.937 22.152 22.151s-9.938 22.152-22.152 22.152c-.183 0-.367-.012-.551-.017-3.637-12.043-10.626-22.636-19.876-30.706 3.396-8.136 11.366-13.58 20.427-13.58zm-66.72 12.294 2.867-.003h.063c28.122 0 51.022 22.865 51.056 50.995l.002 1.81c-7.945-1.878-15.146-6.494-20.105-13.107l-4.325-5.768c-1.436-1.916-3.623-3.183-6-3.476-2.379-.294-4.806.404-6.664 1.914l-16.648 13.521c-6.241 5.068-14.105 7.859-22.145 7.859h-29.092l-.003-2.626c-.017-13.638 5.278-26.466 14.91-36.121 9.631-9.655 22.446-14.982 36.084-14.998zm-81.7 9.857c0-12.214 9.938-22.151 22.152-22.151 8.003 0 15.274 4.291 19.196 11.111-2.212 1.719-4.341 3.572-6.352 5.588-7.742 7.761-13.314 17.107-16.422 27.304-10.549-1.724-18.574-10.985-18.574-21.852zm30.752 79.519-.025-20.631h29.073c11.473 0 22.696-3.983 31.601-11.216l11.688-9.493.492.657c7.785 10.381 19.441 17.298 32.124 19.372l.011 8.836.015 12.348c.033 26.968-21.881 48.935-48.849 48.967l-7.164.008c-.021 0-.041 0-.062 0-13.04 0-25.305-5.071-34.539-14.283-9.247-9.225-14.35-21.501-14.365-34.565zm-3.471 93.897c-.021-17.256 13.083-31.963 30.062-34.05 7.046 2.621 14.572 4.002 22.313 4.002h.081l7.164-.008c7.853-.01 15.374-1.451 22.327-4.062 17.24 2.029 30.181 16.525 30.202 33.986l.005 2.805h-112.149zm-192.16-431.773 2.867-.003h.063c28.122 0 51.022 22.865 51.056 50.995l.002 1.81c-7.945-1.879-15.146-6.494-20.105-13.108l-4.325-5.768c-1.436-1.916-3.623-3.183-6-3.476-2.38-.294-4.806.405-6.664 1.914l-16.648 13.521c-6.241 5.068-14.105 7.859-22.145 7.859h-29.092l-.003-2.626c-.035-28.152 22.841-51.084 50.994-51.118zm-50.948 89.376-.025-20.631h29.073c11.473 0 22.696-3.983 31.601-11.216l11.688-9.493.492.657c7.785 10.382 19.44 17.299 32.124 19.371l.011 8.837v.001l.015 12.348c.033 26.968-21.881 48.935-48.849 48.967l-7.164.009c-.021 0-.039 0-.06 0-26.937-.003-48.874-21.903-48.906-48.85zm-3.471 93.897c-.021-17.273 13.11-31.992 30.115-34.055 6.937 2.587 14.437 4.008 22.263 4.008h.079l7.163-.009c7.853-.01 15.374-1.45 22.327-4.062 17.24 2.029 30.181 16.525 30.202 33.986l.005 2.805h-112.149zm0 247.89c-.021-17.255 13.083-31.962 30.062-34.05 7.046 2.622 14.573 4.002 22.314 4.002h.081l7.163-.009c7.853-.009 15.374-1.45 22.327-4.061 17.24 2.029 30.181 16.524 30.202 33.986l.006 3.415h-112.149zm3.424-132.154c-.017-13.638 5.279-26.465 14.91-36.121 9.632-9.655 22.447-14.981 36.084-14.998l2.867-.003h.064c13.614 0 26.417 5.294 36.057 14.91 9.655 9.632 14.981 22.447 14.998 36.084l.002 1.811c-7.945-1.879-15.146-6.494-20.105-13.108l-4.325-5.768c-1.436-1.917-3.624-3.184-6.002-3.477-2.381-.292-4.807.407-6.662 1.915l-16.648 13.522c-6.241 5.068-14.105 7.859-22.145 7.859h-29.091zm29.095 17.626c11.473 0 22.696-3.983 31.601-11.216l11.688-9.493.492.656c7.785 10.383 19.44 17.311 32.124 19.386l.011 8.823.015 12.348c.033 26.968-21.881 48.934-48.849 48.967l-7.164.009c-.02 0-.04 0-.061 0-13.041 0-25.305-5.071-34.539-14.283-9.248-9.227-14.351-21.502-14.367-34.566l-.025-20.631zm102.812 117.811h-8.176l-.006-3.438c-.023-19.314-11.057-36.105-27.44-44.152 14.49-11.743 23.766-29.676 23.742-49.736l-.046-38.258c-.044-36.397-29.668-65.976-66.055-65.976-.027 0-.056 0-.082 0l-2.867.003c-17.644.022-34.224 6.913-46.685 19.404-12.462 12.493-19.313 29.089-19.292 46.734l.046 38.257c.021 17.071 6.688 33.111 18.773 45.168 1.633 1.629 3.344 3.15 5.115 4.579-16.248 8.164-27.382 25.079-27.359 44.155l.007 3.26h-8.169c-20.679 0-37.503-16.824-37.503-37.503v-158.495c0-20.679 16.824-37.502 37.502-37.502h158.495c20.679 0 37.503 16.824 37.503 37.502v158.495c0 20.679-16.824 37.503-37.503 37.503zm45.003-223.007c-4.437-7.365-10.628-13.556-17.993-17.993 7.365-4.437 13.556-10.628 17.993-17.993 4.437 7.365 10.628 13.556 17.993 17.993-7.365 4.437-13.556 10.628-17.993 17.993zm66.245-28.166c-.021-17.273 13.11-31.992 30.115-34.055 6.937 2.587 14.437 4.008 22.263 4.008h.079l7.164-.009c7.853-.01 15.374-1.45 22.327-4.062 17.24 2.029 30.181 16.525 30.202 33.986l.005 2.805h-112.15zm3.424-132.155c-.017-13.638 5.278-26.466 14.91-36.121 9.631-9.655 22.447-14.981 36.084-14.998l2.867-.003h.063c28.122 0 51.022 22.865 51.056 50.995l.002 1.81c-7.945-1.879-15.146-6.494-20.105-13.108l-4.325-5.768c-1.436-1.916-3.623-3.183-6-3.476-2.379-.294-4.806.405-6.664 1.914l-16.648 13.521c-6.241 5.068-14.105 7.859-22.145 7.859h-29.092zm29.095 17.627c11.473 0 22.696-3.983 31.601-11.216l11.688-9.493.492.657c7.785 10.382 19.44 17.31 32.124 19.385l.011 8.822v.001l.015 12.348c.033 26.968-21.881 48.935-48.849 48.967l-7.164.009c-.021 0-.039 0-.06 0-26.939-.002-48.875-21.902-48.908-48.849l-.025-20.631zm94.636 117.201-.005-2.828c-.023-19.314-11.057-36.105-27.44-44.152 14.489-11.743 23.766-29.676 23.742-49.735l-.046-38.258c-.046-36.397-29.671-65.977-66.057-65.977-.027 0-.055 0-.081 0l-2.867.003c-17.644.021-34.224 6.913-46.686 19.404-12.461 12.492-19.312 29.088-19.291 46.733l.046 38.257c.024 20.089 9.372 38.021 23.926 49.728-16.268 8.157-27.42 25.082-27.396 44.172l.005 2.651h-6.247c-20.679 0-37.502-16.824-37.502-37.503v-158.493c-.001-20.678 16.823-37.502 37.501-37.502h158.495c20.679 0 37.503 16.824 37.503 37.502v158.495c0 20.679-16.824 37.503-37.503 37.503z"/><path d="m379.012 433.55h.025c11.494-.014 20.834-9.46 20.82-21.056-.005-4.139-3.361-7.491-7.5-7.491-.002 0-.006 0-.009 0-4.142.005-7.496 3.367-7.491 7.509.004 3.326-2.615 6.035-5.838 6.039-.002 0-.005 0-.007 0-3.22 0-5.842-2.701-5.846-6.024-.005-4.139-3.362-7.491-7.5-7.491-.003 0-.006 0-.009 0-4.142.005-7.496 3.367-7.491 7.509.015 11.587 9.363 21.006 20.846 21.005z"/></g></g></svg>