<svg id="Capa_1" enable-background="new 0 0 512 512" height="512" viewBox="0 0 512 512" width="512" xmlns="http://www.w3.org/2000/svg"><g><g><g><path d="m325.604 458.2h-132.357l10-73.724h112.357z" fill="#b5adb7"/></g></g><g><g><path d="m315.604 384.476h-30l10 73.724h30z" fill="#a59da7"/></g></g><g><g><path d="m481.756 384.44h-451.511c-12.562 0-22.745-10.183-22.745-22.745v-285.15c0-12.562 10.183-22.745 22.745-22.745h451.511c12.561 0 22.745 10.183 22.745 22.745v285.15c-.001 12.561-10.184 22.745-22.745 22.745z" fill="#ddebfd"/></g></g><g><g><path d="m481.756 53.8h-30c12.561 0 22.745 10.183 22.745 22.745v285.15c0 12.561-10.183 22.744-22.745 22.744h30c12.561 0 22.745-10.183 22.745-22.744v-285.15c-.001-12.562-10.184-22.745-22.745-22.745z" fill="#bed9fd"/></g></g><g><g><path d="m7.5 321.16v40.535c0 12.561 10.183 22.745 22.745 22.745h451.511c12.561 0 22.745-10.183 22.745-22.745v-40.535z" fill="#d4cfd5"/></g></g><g><g><path d="m474.5 321.16v40.535c0 12.561-10.183 22.744-22.745 22.744h30c12.561 0 22.745-10.183 22.745-22.744v-40.535z" fill="#c5bec6"/></g></g><g><g><circle cx="122.296" cy="189.12" fill="#e6989e" r="80.21"/></g></g><g><g><path d="m122.296 108.91c-5.129 0-10.139.501-15 1.421 37.126 7.027 65.21 39.619 65.21 78.788s-28.084 71.762-65.21 78.788c4.861.92 9.871 1.421 15 1.421 44.299 0 80.21-35.911 80.21-80.21s-35.912-80.208-80.21-80.208z" fill="#e27f86"/></g></g><g><path d="m100.27 160.256c8.034 0 16.138 5.056 16.138 14.337 0 15.029-21.401 19.947-21.401 26.249v.623h18.146c1.731 0 3.255 2.147 3.255 4.641 0 2.493-1.524 4.779-3.255 4.779h-24.657c-1.939 0-4.71-1.316-4.71-3.324v-6.718c0-10.874 21.817-17.107 21.817-25.903 0-2.216-1.385-4.917-5.264-4.917-2.771 0-5.194 1.385-5.194 5.194 0 2.009-2.147 3.948-5.679 3.948-2.771 0-4.848-1.247-4.848-5.61 0-8.45 7.756-13.299 15.652-13.299z"/><path d="m140.026 178.957c9.558 0 16.968 4.017 16.968 15.099v1.316c0 11.566-7.549 15.93-16.83 15.93-11.15 0-17.107-6.372-17.107-12.882 0-3.74 2.008-4.779 5.402-4.779 4.709 0 5.402 1.801 5.402 4.017 0 2.771 2.632 4.225 6.025 4.225 3.948 0 6.303-2.008 6.303-6.51v-1.316c0-4.571-2.355-6.788-6.164-6.788h-10.528c-3.186 0-4.155-1.593-4.155-4.225 0-.693.069-1.247.139-2.009l1.87-17.453c.208-2.078.762-3.325 1.939-3.325h22.094c2.078 0 3.117 2.355 3.117 4.71s-1.039 4.71-3.117 4.71h-15.168l-.692 9.281h4.502z"/></g><g><g><path d="m322.831 236.742h-73.305c-6.059 0-10.97-4.911-10.97-10.97v-73.305c0-6.059 4.911-10.97 10.97-10.97h73.305c6.059 0 10.97 4.911 10.97 10.97v73.305c0 6.059-4.911 10.97-10.97 10.97z" fill="#fcf5c7"/></g></g><g><g><path d="m301.975 180.738-17.702-10.22c-6.284-3.628-14.139.907-14.139 8.163v20.44c0 7.256 7.855 11.791 14.139 8.163l17.702-10.22c6.284-3.628 6.284-12.698 0-16.326l-17.702-10.22c-6.284-3.628-14.139.907-14.139 8.163v20.44c0 7.256 7.855 11.791 14.139 8.163l17.702-10.22c6.284-3.628 6.284-12.698 0-16.326z" fill="#e27f86"/></g></g><g><g><path d="m457.288 236.742h-73.305c-6.059 0-10.97-4.911-10.97-10.97v-73.305c0-6.059 4.912-10.97 10.97-10.97h73.305c6.059 0 10.97 4.911 10.97 10.97v73.305c0 6.059-4.911 10.97-10.97 10.97z" fill="#fcf5c7"/></g></g><g><g><path d="m430.617 206.82h-19.963c-4.263 0-7.719-3.456-7.719-7.719v-19.963c0-4.263 3.456-7.719 7.719-7.719h19.963c4.263 0 7.719 3.456 7.719 7.719v19.963c0 4.263-3.456 7.719-7.719 7.719z" fill="#c5bec6"/></g></g><g><path d="m88.496 211.26h24.656c1.934 0 3.63-2.408 3.63-5.154 0-2.719-1.663-5.016-3.63-5.016h-17.771v-.248c0-2.28 3.316-4.55 7.157-7.179 6.346-4.344 14.245-9.751 14.245-19.071 0-9.556-8.508-14.712-16.513-14.712-7.769 0-16.027 4.792-16.027 13.673 0 4.027 1.709 5.985 5.223 5.985 3.932 0 6.054-2.228 6.054-4.323 0-4.193 3.02-4.819 4.819-4.819 3.608 0 4.889 2.447 4.889 4.542 0 3.975-4.804 7.501-9.889 11.234-5.864 4.304-11.928 8.754-11.928 14.67v6.718c0 2.293 2.962 3.7 5.085 3.7zm-4.335-10.417c0-5.535 5.908-9.872 11.621-14.065 5.243-3.849 10.196-7.483 10.196-11.838 0-2.634-1.744-5.292-5.639-5.292-3.54 0-5.569 2.03-5.569 5.569 0 1.732-1.859 3.573-5.304 3.573-3.094 0-4.473-1.615-4.473-5.235 0-8.393 7.871-12.923 15.277-12.923 10.348 0 15.763 7.024 15.763 13.962 0 8.924-7.717 14.207-13.918 18.452-4.181 2.862-7.483 5.123-7.483 7.797v.998h18.521c1.534 0 2.88 1.993 2.88 4.266 0 2.305-1.373 4.404-2.88 4.404h-24.657c-1.726 0-4.335-1.176-4.335-2.949z"/><path d="m140.165 211.676c10.934 0 17.205-5.943 17.205-16.305v-1.316c0-9.979-6.159-15.474-17.343-15.474h-4.098l.637-8.531h14.82c2.399 0 3.492-2.636 3.492-5.085s-1.093-5.085-3.492-5.085h-22.094c-1.946 0-2.222 2.756-2.313 3.66l-1.871 17.46-.039.423c-.054.561-.101 1.044-.101 1.62 0 3.138 1.439 4.6 4.53 4.6h10.528c3.787 0 5.789 2.217 5.789 6.413v1.316c0 4.071-1.994 6.135-5.928 6.135-2.731 0-5.65-1.011-5.65-3.85 0-2.281-.7-4.392-5.777-4.392-2.857 0-5.777.612-5.777 5.154 0 6.587 6.005 13.257 17.482 13.257zm-11.705-17.661c4.639 0 5.027 1.799 5.027 3.642 0 2.794 2.512 4.6 6.4 4.6 4.369 0 6.678-2.381 6.678-6.885v-1.316c0-4.619-2.322-7.163-6.539-7.163h-10.528c-2.685 0-3.78-1.115-3.78-3.85 0-.54.043-.985.097-1.548l1.91-17.876c.299-2.987 1.253-2.987 1.566-2.987h22.094c1.884 0 2.742 2.247 2.742 4.335 0 2.087-.858 4.335-2.742 4.335h-15.516l-.748 10.031h4.906c7.57 0 16.593 2.554 16.593 14.724v1.316c0 13.534-10.309 15.555-16.455 15.555-10.985 0-16.732-6.292-16.732-12.507 0-3.172 1.409-4.406 5.027-4.406z"/><path d="m481.755 46.3h-352.82c-4.142 0-7.5 3.358-7.5 7.5s3.358 7.5 7.5 7.5h352.82c8.406 0 15.245 6.839 15.245 15.245v237.115h-482v-237.115c0-8.406 6.839-15.245 15.245-15.245h68.69c4.142 0 7.5-3.358 7.5-7.5s-3.358-7.5-7.5-7.5h-68.69c-16.677 0-30.245 13.568-30.245 30.245v285.15c0 16.677 13.568 30.245 30.245 30.245h164.421l-7.97 58.761h-23.57c-4.142 0-7.5 3.358-7.5 7.5s3.358 7.5 7.5 7.5h187.028c4.143 0 7.5-3.358 7.5-7.5s-3.357-7.5-7.5-7.5h-17.999l-7.97-58.761h48.75c4.143 0 7.5-3.358 7.5-7.5s-3.357-7.5-7.5-7.5h-342.69c-8.406 0-15.245-6.839-15.245-15.245v-33.035h482v33.035c0 8.406-6.839 15.245-15.245 15.245h-78.82c-4.143 0-7.5 3.358-7.5 7.5s3.357 7.5 7.5 7.5h78.82c16.677 0 30.245-13.568 30.245-30.245v-285.15c0-16.677-13.568-30.245-30.245-30.245zm-279.922 404.4 7.965-58.724h99.254l7.966 58.724z"/><path d="m34.586 189.12c0 48.363 39.347 87.709 87.71 87.709s87.71-39.346 87.71-87.709-39.346-87.71-87.71-87.71-87.71 39.347-87.71 87.71zm35.42-41.684c1.464 1.464 3.384 2.197 5.303 2.197s3.839-.732 5.303-2.197c2.929-2.929 2.929-7.678 0-10.606l-4.123-4.123c10.687-8.694 23.875-14.425 38.307-15.911v5.875c0 4.142 3.358 7.5 7.5 7.5s7.5-3.358 7.5-7.5v-5.875c14.432 1.486 27.62 7.217 38.307 15.911l-4.123 4.123c-2.929 2.929-2.929 7.678 0 10.606 1.464 1.465 3.384 2.197 5.303 2.197s3.839-.732 5.303-2.197l4.123-4.123c8.694 10.687 14.425 23.875 15.911 38.307h-5.874c-4.142 0-7.5 3.358-7.5 7.5s3.358 7.5 7.5 7.5h5.874c-1.486 14.432-7.217 27.62-15.91 38.307l-4.123-4.124c-2.928-2.929-7.677-2.929-10.606 0s-2.929 7.677 0 10.606l4.123 4.124c-10.687 8.694-23.875 14.425-38.307 15.911v-5.875c0-4.142-3.358-7.5-7.5-7.5s-7.5 3.358-7.5 7.5v5.875c-14.432-1.486-27.62-7.217-38.307-15.911l4.123-4.124c2.929-2.929 2.929-7.678 0-10.606-2.929-2.929-7.678-2.929-10.606 0l-4.124 4.124c-8.694-10.687-14.425-23.874-15.91-38.307h5.875c4.142 0 7.5-3.358 7.5-7.5s-3.358-7.5-7.5-7.5h-5.875c1.486-14.432 7.217-27.62 15.911-38.307z"/><path d="m322.831 244.243c10.185 0 18.471-8.286 18.471-18.47v-73.305c0-10.185-8.286-18.47-18.471-18.47h-73.304c-10.185 0-18.47 8.286-18.47 18.47v73.305c0 10.184 8.286 18.47 18.47 18.47zm-76.775-18.47v-73.305c0-1.914 1.557-3.47 3.47-3.47h73.304c1.914 0 3.471 1.557 3.471 3.47v73.305c0 1.913-1.557 3.47-3.471 3.47h-73.304c-1.913 0-3.47-1.557-3.47-3.47z"/><path d="m271.097 213.779c2.649 1.53 5.556 2.295 8.463 2.294 2.906 0 5.813-.765 8.463-2.294l17.702-10.22c5.299-3.06 8.462-8.539 8.462-14.658 0-.275-.006-.548-.019-.821-.27-5.786-3.383-10.915-8.443-13.837l-17.702-10.22c-5.299-3.06-11.627-3.059-16.926 0s-8.463 8.539-8.463 14.658v20.44c0 6.119 3.164 11.599 8.463 14.658zm6.537-35.098c0-.919.523-1.414.963-1.668.438-.253 1.131-.458 1.926.001l17.702 10.22c.795.46.962 1.161.962 1.668s-.167 1.209-.962 1.668l-17.702 10.22c-.798.46-1.486.253-1.926 0-.439-.254-.963-.749-.963-1.668z"/><path d="m457.289 244.243c10.185 0 18.47-8.286 18.47-18.47v-73.305c0-10.185-8.285-18.47-18.47-18.47h-73.306c-10.185 0-18.47 8.286-18.47 18.47v73.305c0 10.184 8.285 18.47 18.47 18.47zm-76.776-18.47v-73.305c0-1.914 1.557-3.47 3.47-3.47h73.306c1.913 0 3.47 1.557 3.47 3.47v73.305c0 1.913-1.557 3.47-3.47 3.47h-73.306c-1.913 0-3.47-1.557-3.47-3.47z"/><path d="m410.654 214.32h19.963c8.393 0 15.22-6.827 15.22-15.219v-19.962c0-8.392-6.827-15.219-15.22-15.219h-19.963c-8.392 0-15.219 6.827-15.219 15.219v19.962c0 8.392 6.827 15.219 15.219 15.219zm-.219-35.181c0-.121.098-.219.219-.219h19.963c.121 0 .22.098.22.219v19.962c0 .121-.099.219-.22.219h-19.963c-.121 0-.219-.098-.219-.219z"/></g></g></svg>