<svg id="Capa_1" enable-background="new 0 0 512 512" height="512" viewBox="0 0 512 512" width="512" xmlns="http://www.w3.org/2000/svg"><g><g><g><path d="m380.748 504.5h-249.496c-8.44 0-15.282-6.842-15.282-15.282v-466.436c0-8.44 6.842-15.282 15.282-15.282h249.496c8.44 0 15.282 6.842 15.282 15.282v466.436c0 8.44-6.842 15.282-15.282 15.282z" fill="#edf6ff"/></g></g><g><g><path d="m380.748 7.5h-30c8.44 0 15.282 6.842 15.282 15.282v466.436c0 8.44-6.842 15.282-15.282 15.282h30c8.44 0 15.282-6.842 15.282-15.282v-466.436c0-8.44-6.842-15.282-15.282-15.282z" fill="#ddebfd"/></g></g><g><g><path d="m396.03 60v-37.218c0-8.44-6.842-15.282-15.282-15.282h-249.496c-8.44 0-15.282 6.842-15.282 15.282v37.218z" fill="#5392f9"/></g></g><g><g><path d="m396.03 452v37.218c0 8.44-6.842 15.282-15.282 15.282h-249.496c-8.44 0-15.282-6.842-15.282-15.282v-37.218z" fill="#5392f9"/></g></g><g><g><path d="m380.748 7.5h-30c8.44 0 15.282 6.842 15.282 15.282v37.218h30v-37.218c0-8.44-6.842-15.282-15.282-15.282z" fill="#4981f8"/></g></g><g><g><path d="m366.03 452v37.218c0 8.44-6.842 15.282-15.282 15.282h30c8.44 0 15.282-6.842 15.282-15.282v-37.218z" fill="#4981f8"/></g></g><g><g><path d="m231.609 178.139h-69.561c-4.585 0-8.301-3.716-8.301-8.301v-67.728c0-4.584 3.716-8.301 8.301-8.301h69.561c4.585 0 8.301 3.716 8.301 8.301v67.728c0 4.585-3.717 8.301-8.301 8.301z" fill="#bed9fd"/></g></g><g><g><path d="m353.637 178.139h-69.561c-4.585 0-8.301-3.716-8.301-8.301v-67.728c0-4.584 3.717-8.301 8.301-8.301h69.561c4.584 0 8.301 3.716 8.301 8.301v67.728c0 4.585-3.717 8.301-8.301 8.301z" fill="#f8e883"/></g></g><g><g><path d="m231.609 298.512h-69.561c-4.585 0-8.301-3.716-8.301-8.301v-67.728c0-4.585 3.716-8.301 8.301-8.301h69.561c4.585 0 8.301 3.716 8.301 8.301v67.728c0 4.585-3.717 8.301-8.301 8.301z" fill="#e27f86"/></g></g><g><g><path d="m351.913 298.512h-69.561c-4.585 0-8.301-3.716-8.301-8.301v-67.728c0-4.585 3.716-8.301 8.301-8.301h69.561c4.585 0 8.301 3.716 8.301 8.301v67.728c0 4.585-3.717 8.301-8.301 8.301z" fill="#92e0c4"/></g></g><g><g><path d="m231.609 416.886h-69.561c-4.585 0-8.301-3.716-8.301-8.301v-67.728c0-4.585 3.716-8.301 8.301-8.301h69.561c4.585 0 8.301 3.716 8.301 8.301v67.728c0 4.584-3.717 8.301-8.301 8.301z" fill="#d4cfd5"/></g></g><g><g><path d="m353.637 416.886h-69.561c-4.585 0-8.301-3.716-8.301-8.301v-67.728c0-4.585 3.717-8.301 8.301-8.301h69.561c4.584 0 8.301 3.716 8.301 8.301v67.728c0 4.584-3.717 8.301-8.301 8.301z" fill="#e3a76f"/></g></g><g><g><path d="m231.609 93.809h-30c4.585 0 8.301 3.716 8.301 8.301v67.728c0 4.585-3.716 8.301-8.301 8.301h30c4.585 0 8.301-3.717 8.301-8.301v-67.728c0-4.584-3.717-8.301-8.301-8.301z" fill="#9ec8fc"/></g></g><g><g><path d="m351.913 93.809h-28.276c4.584 0 8.301 3.716 8.301 8.301v67.728c0 4.585-3.717 8.301-8.301 8.301h28.276c4.585 0 8.301-3.717 8.301-8.301v-67.728c0-4.584-3.717-8.301-8.301-8.301z" fill="#f7e365"/></g></g><g><g><path d="m231.609 214.182h-30c4.585 0 8.301 3.716 8.301 8.301v67.728c0 4.585-3.716 8.301-8.301 8.301h30c4.585 0 8.301-3.716 8.301-8.301v-67.728c0-4.584-3.717-8.301-8.301-8.301z" fill="#df646e"/></g></g><g><g><path d="m351.913 214.182h-30c4.585 0 8.301 3.716 8.301 8.301v67.728c0 4.585-3.716 8.301-8.301 8.301h30c4.585 0 8.301-3.716 8.301-8.301v-67.728c0-4.584-3.717-8.301-8.301-8.301z" fill="#77d1b3"/></g></g><g><g><path d="m231.609 332.556h-30c4.585 0 8.301 3.716 8.301 8.301v67.728c0 4.584-3.716 8.301-8.301 8.301h30c4.585 0 8.301-3.717 8.301-8.301v-67.728c0-4.585-3.717-8.301-8.301-8.301z" fill="#c5bec6"/></g></g><g><g><path d="m353.637 333.091h-27.088c3.146 1.18 5.389 4.207 5.389 7.765v67.728c0 4.584-3.717 8.301-8.301 8.301h-42.473c.907.34 1.886.535 2.912.535h69.561c4.584 0 8.301-3.716 8.301-8.301v-67.728c0-4.584-3.717-8.3-8.301-8.3z" fill="#d6995c"/></g></g><g><path d="m396.03 418.816c-4.143 0-7.5 3.358-7.5 7.5v20.184h-265.06v-235.615c0-4.142-3.357-7.5-7.5-7.5s-7.5 3.358-7.5 7.5v278.333c0 12.562 10.22 22.782 22.782 22.782h249.496c12.563 0 22.782-10.22 22.782-22.782v-62.902c0-4.142-3.357-7.5-7.5-7.5zm-15.282 78.184h-249.496c-4.291 0-7.782-3.491-7.782-7.782v-27.718h265.06v27.718c0 4.291-3.491 7.782-7.782 7.782z"/><path d="m380.748 0h-249.496c-12.563 0-22.782 10.22-22.782 22.782v158.103c0 4.142 3.357 7.5 7.5 7.5s7.5-3.358 7.5-7.5v-115.385h265.06v330.816c0 4.142 3.357 7.5 7.5 7.5s7.5-3.358 7.5-7.5v-373.534c0-12.562-10.22-22.782-22.782-22.782zm-257.278 50.5v-27.718c0-4.291 3.491-7.782 7.782-7.782h249.496c4.291 0 7.782 3.491 7.782 7.782v27.718z"/><path d="m162.048 185.639h69.562c8.713 0 15.801-7.088 15.801-15.801v-67.728c0-8.712-7.088-15.801-15.801-15.801h-69.562c-8.713 0-15.801 7.088-15.801 15.801v67.728c0 8.713 7.088 15.801 15.801 15.801zm-.801-83.529c0-.441.359-.801.801-.801h69.562c.441 0 .801.359.801.801v67.728c0 .441-.359.801-.801.801h-69.562c-.441 0-.801-.359-.801-.801z"/><path d="m284.076 185.639h69.56c8.713 0 15.802-7.088 15.802-15.801v-67.728c0-8.712-7.089-15.801-15.802-15.801h-69.56c-8.713 0-15.802 7.088-15.802 15.801v67.728c0 8.713 7.089 15.801 15.802 15.801zm-.802-83.529c0-.441.359-.801.802-.801h69.56c.442 0 .802.359.802.801v67.728c0 .441-.359.801-.802.801h-69.56c-.442 0-.802-.359-.802-.801z"/><path d="m146.247 290.211c0 8.712 7.088 15.801 15.801 15.801h69.562c8.713 0 15.801-7.088 15.801-15.801v-67.728c0-8.712-7.088-15.801-15.801-15.801h-69.562c-8.713 0-15.801 7.088-15.801 15.801zm15-67.728c0-.441.359-.801.801-.801h69.562c.441 0 .801.359.801.801v67.728c0 .441-.359.801-.801.801h-69.562c-.441 0-.801-.359-.801-.801z"/><path d="m266.551 290.211c0 8.712 7.088 15.801 15.801 15.801h69.561c8.713 0 15.801-7.088 15.801-15.801v-67.728c0-8.712-7.088-15.801-15.801-15.801h-69.561c-8.713 0-15.801 7.088-15.801 15.801zm15-67.728c0-.441.359-.801.801-.801h69.561c.441 0 .801.359.801.801v67.728c0 .441-.359.801-.801.801h-69.561c-.441 0-.801-.359-.801-.801z"/><path d="m146.247 408.585c0 8.713 7.088 15.801 15.801 15.801h69.562c8.713 0 15.801-7.088 15.801-15.801v-67.728c0-8.712-7.088-15.801-15.801-15.801h-69.562c-8.713 0-15.801 7.088-15.801 15.801zm15-67.729c0-.441.359-.801.801-.801h69.562c.441 0 .801.359.801.801v67.728c0 .442-.359.801-.801.801h-69.562c-.441 0-.801-.359-.801-.801z"/><path d="m353.637 325.056h-69.56c-8.713 0-15.802 7.088-15.802 15.801v67.728c0 8.713 7.089 15.801 15.802 15.801h69.56c8.713 0 15.802-7.088 15.802-15.801v-67.728c0-8.713-7.089-15.801-15.802-15.801zm.802 83.529c0 .442-.359.801-.802.801h-69.56c-.442 0-.802-.359-.802-.801v-67.728c0-.441.359-.801.802-.801h69.56c.442 0 .802.359.802.801z"/></g></g></svg>