<svg id="Capa_1" enable-background="new 0 0 506.016 506.016" height="512" viewBox="0 0 506.016 506.016" width="512" xmlns="http://www.w3.org/2000/svg"><g><g><g><path d="m477.053 450.294h-208.273c-11.853 0-21.463-9.609-21.463-21.463v-116.101c0-8.942 7.249-16.19 16.19-16.19h218.818c8.942 0 16.19 7.249 16.19 16.19v116.101c.001 11.853-9.608 21.463-21.462 21.463z" fill="#faf0b0"/></g></g><g><g><path d="m237.236 209.476h-208.274c-11.854 0-21.463-9.609-21.463-21.463v-116.1c0-8.942 7.249-16.19 16.19-16.19h218.818c8.942 0 16.19 7.249 16.19 16.19v116.101c.002 11.853-9.607 21.462-21.461 21.462z" fill="#faf0b0"/></g></g><g><g><path d="m482.326 296.54h-30c8.942 0 16.19 7.249 16.19 16.19v116.101c0 11.853-9.609 21.463-21.463 21.463h30c11.854 0 21.463-9.609 21.463-21.463v-116.101c0-8.941-7.249-16.19-16.19-16.19z" fill="#f8e883"/></g></g><g><g><path d="m242.508 55.723h-30c8.942 0 16.191 7.249 16.191 16.19v116.101c0 11.854-9.609 21.463-21.463 21.463h30c11.854 0 21.463-9.609 21.463-21.463v-116.101c0-8.942-7.249-16.19-16.191-16.19z" fill="#f8e883"/></g></g><g><g><ellipse cx="140.022" cy="332.242" fill="#92e0c4" rx="22.26" ry="22.26" transform="matrix(.23 -.973 .973 .23 -215.502 392.184)"/></g></g><g><g><ellipse cx="362.873" cy="167.644" fill="#92e0c4" rx="22.26" ry="22.26" transform="matrix(.707 -.707 .707 .707 -12.259 305.691)"/></g></g><g><path d="m482.326 289.04h-218.819c-13.063 0-23.69 10.627-23.69 23.69v116.101c0 15.97 12.993 28.963 28.963 28.963h8.565c4.143 0 7.5-3.358 7.5-7.5s-3.357-7.5-7.5-7.5h-8.565c-7.699 0-13.963-6.264-13.963-13.963v-111.151l97.026 83.834c6.007 5.19 13.54 7.785 21.073 7.785s15.066-2.595 21.073-7.785l97.026-83.833v111.151c0 7.699-6.264 13.963-13.963 13.963h-169.707c-4.143 0-7.5 3.358-7.5 7.5s3.357 7.5 7.5 7.5h169.708c15.97 0 28.963-12.993 28.963-28.963v-116.102c0-13.063-10.628-23.69-23.69-23.69zm-98.143 101.123c-6.424 5.549-16.109 5.55-22.533 0l-99.535-86.001c.454-.074.917-.122 1.392-.122h218.818c.475 0 .938.048 1.393.122z"/><path d="m266.199 188.014v-116.101c0-13.063-10.628-23.69-23.69-23.69h-218.819c-13.063 0-23.69 10.627-23.69 23.69v116.101c0 14.265 10.366 26.155 23.961 28.531.786.28 1.633.432 2.515.432h2.486c4.142 0 7.5-3.358 7.5-7.5s-3.358-7.5-7.5-7.5c-7.699 0-13.962-6.264-13.962-13.963v-111.151l97.026 83.833c6.007 5.19 13.54 7.785 21.073 7.785 7.534 0 15.067-2.595 21.074-7.785l97.026-83.833v111.151c0 7.699-6.264 13.963-13.962 13.963h-180.76c-4.142 0-7.5 3.358-7.5 7.5s3.358 7.5 7.5 7.5h180.76c15.969-.001 28.962-12.993 28.962-28.963zm-121.833-38.668c-6.423 5.549-16.11 5.55-22.534 0l-99.535-86.001c.455-.074.918-.122 1.393-.122h218.818c.475 0 .938.049 1.393.122z"/><path d="m293.266 137.91c15.295 2.671 29.842 8.772 42.389 17.719-1.63 3.677-2.543 7.74-2.543 12.014 0 16.41 13.351 29.76 29.76 29.76 2.316 0 4.568-.275 6.734-.778 8.893 19.193 11.666 40.308 7.999 61.312-.712 4.081 2.018 7.966 6.099 8.678.436.076.87.113 1.299.113 3.576 0 6.743-2.567 7.38-6.211 4.241-24.29.945-48.714-9.492-70.872 5.982-5.447 9.742-13.293 9.742-22.002 0-16.41-13.351-29.76-29.76-29.76-6.705 0-12.898 2.231-17.88 5.987-14.51-10.491-31.391-17.637-49.147-20.737-4.077-.712-7.966 2.017-8.679 6.098-.711 4.081 2.019 7.967 6.099 8.679zm69.606 14.974c8.139 0 14.76 6.621 14.76 14.76s-6.621 14.76-14.76 14.76-14.76-6.621-14.76-14.76 6.622-14.76 14.76-14.76z"/><path d="m209.629 365.698c-15.861-2.77-30.914-9.221-43.771-18.716 2.492-4.349 3.924-9.38 3.924-14.741 0-16.41-13.35-29.76-29.76-29.76-2.846 0-5.597.41-8.205 1.159-7.706-18.297-9.974-38.232-6.528-57.97.713-4.08-2.018-7.966-6.098-8.678-4.079-.712-7.966 2.018-8.678 6.098-4.066 23.286-1.18 46.816 8.311 68.29-5.29 5.375-8.561 12.741-8.561 20.861 0 16.41 13.35 29.76 29.76 29.76 5.573 0 10.79-1.543 15.254-4.219 15.084 11.563 32.932 19.402 51.773 22.692.437.076.871.113 1.299.113 3.576 0 6.743-2.567 7.379-6.211.711-4.08-2.018-7.965-6.099-8.678zm-69.607-18.697c-8.139 0-14.76-6.621-14.76-14.76s6.621-14.76 14.76-14.76 14.76 6.621 14.76 14.76-6.621 14.76-14.76 14.76z"/></g></g></svg>