<svg id="Capa_1" enable-background="new 0 0 512 512" height="512" viewBox="0 0 512 512" width="512" xmlns="http://www.w3.org/2000/svg"><g><g><g><path d="m481.756 384.439h-451.511c-12.562 0-22.745-10.183-22.745-22.745v-285.149c0-12.562 10.183-22.745 22.745-22.745h451.511c12.561 0 22.745 10.183 22.745 22.745v285.15c-.001 12.561-10.184 22.744-22.745 22.744z" fill="#ddebfd"/></g></g><g><g><path d="m481.756 53.8h-30c12.561 0 22.745 10.183 22.745 22.745v285.15c0 12.561-10.183 22.744-22.745 22.744h30c12.561 0 22.745-10.183 22.745-22.744v-285.15c-.001-12.562-10.184-22.745-22.745-22.745z" fill="#bed9fd"/></g></g><g><g><path d="m115.108 274.716h-63.229c-5.031 0-9.109-4.078-9.109-9.109v-149.018c0-5.031 4.078-9.109 9.109-9.109h63.228c5.031 0 9.109 4.078 9.109 9.109v149.018c.001 5.031-4.078 9.109-9.108 9.109z" fill="#bed9fd"/></g></g><g><g><path d="m230.779 274.716h-63.229c-5.031 0-9.109-4.078-9.109-9.109v-149.018c0-5.031 4.078-9.109 9.109-9.109h63.229c5.031 0 9.109 4.078 9.109 9.109v149.018c0 5.031-4.079 9.109-9.109 9.109z" fill="#f8e883"/></g></g><g><g><path d="m346.45 274.716h-63.228c-5.031 0-9.109-4.078-9.109-9.109v-149.018c0-5.031 4.078-9.109 9.109-9.109h63.228c5.031 0 9.109 4.078 9.109 9.109v149.018c0 5.031-4.078 9.109-9.109 9.109z" fill="#e27f86"/></g></g><g><g><path d="m462.121 274.716h-63.228c-5.031 0-9.109-4.078-9.109-9.109v-149.018c0-5.031 4.078-9.109 9.109-9.109h63.228c5.031 0 9.109 4.078 9.109 9.109v149.018c0 5.031-4.078 9.109-9.109 9.109z" fill="#92e0c4"/></g></g><g><g><path d="m115.107 107.48h-30c5.031 0 9.109 4.078 9.109 9.109v149.018c0 5.031-4.078 9.109-9.109 9.109h30c5.031 0 9.109-4.078 9.109-9.109v-149.018c.001-5.031-4.078-9.109-9.109-9.109z" fill="#9ec8fc"/></g></g><g><g><path d="m230.779 107.48h-30c5.031 0 9.109 4.078 9.109 9.109v149.018c0 5.031-4.078 9.109-9.109 9.109h30c5.031 0 9.109-4.078 9.109-9.109v-149.018c0-5.031-4.078-9.109-9.109-9.109z" fill="#f7e365"/></g></g><g><g><path d="m346.45 107.48h-30c5.031 0 9.109 4.078 9.109 9.109v149.018c0 5.031-4.078 9.109-9.109 9.109h30c5.031 0 9.109-4.078 9.109-9.109v-149.018c0-5.031-4.078-9.109-9.109-9.109z" fill="#df646e"/></g></g><g><g><path d="m315.604 384.476h-112.357l-10 73.724h132.357z" fill="#a59da7"/></g></g><g><g><path d="m315.604 384.476h-30l10 73.724h30z" fill="#968d97"/></g></g><g><g><path d="m7.5 321.159v40.535c0 12.561 10.183 22.745 22.745 22.745h451.511c12.561 0 22.745-10.183 22.745-22.745v-40.535z" fill="#c5bec6"/></g></g><g><g><path d="m474.5 321.159v40.535c0 12.561-10.183 22.744-22.745 22.744h30c12.561 0 22.745-10.183 22.745-22.744v-40.535z" fill="#b5adb7"/></g></g><g><g><path d="m124.217 137.886v-21.522c0-4.907-3.978-8.885-8.885-8.885h-63.677c-4.907 0-8.885 3.978-8.885 8.885v21.522z" fill="#f1f1f1"/></g></g><g><g><path d="m239.888 137.886v-21.522c0-4.907-3.978-8.885-8.885-8.885h-63.677c-4.907 0-8.885 3.978-8.885 8.885v21.522z" fill="#f1f1f1"/></g></g><g><g><path d="m355.559 137.886v-21.522c0-4.907-3.978-8.885-8.885-8.885h-63.677c-4.907 0-8.885 3.978-8.885 8.885v21.522z" fill="#f1f1f1"/></g></g><g><g><path d="m462.121 107.48h-30c5.031 0 9.109 4.078 9.109 9.109v149.018c0 5.031-4.078 9.109-9.109 9.109h30c5.031 0 9.109-4.078 9.109-9.109v-149.018c0-5.031-4.078-9.109-9.109-9.109z" fill="#77d1b3"/></g></g><g><g><path d="m471.23 137.886v-21.522c0-4.907-3.978-8.885-8.885-8.885h-63.677c-4.907 0-8.885 3.978-8.885 8.885v21.522z" fill="#f1f1f1"/></g></g><g><path d="m481.756 46.3h-336.221c-4.143 0-7.5 3.358-7.5 7.5s3.357 7.5 7.5 7.5h336.221c8.405 0 15.244 6.839 15.244 15.245v237.115h-482v-237.115c0-8.406 6.839-15.245 15.245-15.245h85.29c4.142 0 7.5-3.358 7.5-7.5s-3.358-7.5-7.5-7.5h-85.29c-16.677 0-30.245 13.568-30.245 30.245v285.15c0 16.677 13.568 30.245 30.245 30.245h164.421l-7.97 58.761h-23.57c-4.143 0-7.5 3.358-7.5 7.5s3.357 7.5 7.5 7.5h187.028c4.143 0 7.5-3.358 7.5-7.5s-3.357-7.5-7.5-7.5h-17.999l-7.97-58.761h41.141c4.143 0 7.5-3.358 7.5-7.5s-3.357-7.5-7.5-7.5h-335.081c-8.406-.001-15.245-6.84-15.245-15.245v-33.035h482v33.035c0 8.406-6.839 15.245-15.244 15.245h-86.43c-4.143 0-7.5 3.358-7.5 7.5s3.357 7.5 7.5 7.5h86.43c16.677 0 30.244-13.568 30.244-30.245v-285.15c0-16.677-13.567-30.245-30.244-30.245zm-279.923 404.4 7.966-58.724h99.254l7.966 58.724z"/><path d="m51.879 99.98c-9.158 0-16.608 7.451-16.608 16.609v149.018c0 9.158 7.45 16.609 16.608 16.609h63.229c9.158 0 16.609-7.451 16.609-16.609v-149.018c0-9.158-7.451-16.609-16.609-16.609zm63.228 167.236h-63.228c-.887 0-1.608-.722-1.608-1.609v-120.221h66.446v120.221c0 .887-.722 1.609-1.61 1.609zm1.61-150.627v13.798h-66.446v-13.798c0-.887.722-1.609 1.608-1.609h63.229c.887 0 1.609.721 1.609 1.609z"/><path d="m230.778 282.216c9.158 0 16.609-7.451 16.609-16.609v-149.018c0-9.158-7.45-16.609-16.608-16.609h-63.229c-9.158 0-16.609 7.451-16.609 16.609v149.018c0 9.158 7.451 16.609 16.609 16.609zm-63.227-167.236h63.229c.887 0 1.608.722 1.608 1.609v13.798h-66.446v-13.798c-.001-.888.721-1.609 1.609-1.609zm-1.61 150.627v-120.221h66.446v120.221c0 .887-.722 1.609-1.609 1.609h-63.228c-.887 0-1.609-.722-1.609-1.609z"/><path d="m346.45 282.216c9.158 0 16.608-7.451 16.608-16.609v-149.018c0-9.158-7.45-16.609-16.608-16.609h-63.228c-9.158 0-16.609 7.451-16.609 16.609v149.018c0 9.158 7.451 16.609 16.609 16.609zm-63.228-167.236h63.228c.887 0 1.608.722 1.608 1.609v13.798h-66.446v-13.798c0-.888.722-1.609 1.61-1.609zm-1.61 150.627v-120.221h66.446v120.221c0 .887-.722 1.609-1.608 1.609h-63.228c-.888 0-1.61-.722-1.61-1.609z"/><path d="m462.121 282.216c9.158 0 16.609-7.451 16.609-16.609v-149.018c0-9.158-7.451-16.609-16.609-16.609h-63.228c-9.158 0-16.608 7.451-16.608 16.609v149.018c0 9.158 7.45 16.609 16.608 16.609zm-63.228-167.236h63.228c.888 0 1.609.722 1.609 1.609v13.798h-66.446v-13.798c0-.888.722-1.609 1.609-1.609zm-1.609 150.627v-120.221h66.446v120.221c0 .887-.722 1.609-1.609 1.609h-63.228c-.887 0-1.609-.722-1.609-1.609z"/></g></g></svg>