<svg id="Capa_1" enable-background="new 0 0 512.006 512.006" height="512" viewBox="0 0 512.006 512.006" width="512" xmlns="http://www.w3.org/2000/svg"><g><g><g><path d="m460.182 437.027h-409.414c-12.562 0-22.745-10.183-22.745-22.745v-247.991c0-12.561 10.183-22.745 22.745-22.745h409.414c12.561 0 22.745 10.183 22.745 22.745v247.991c-.001 12.562-10.184 22.745-22.745 22.745z" fill="#ddebfd"/></g></g><g><g><path d="m460.182 143.546h-30c12.562 0 22.745 10.183 22.745 22.744v247.992c0 12.561-10.183 22.745-22.745 22.745h30c12.562 0 22.745-10.183 22.745-22.745v-247.992c-.001-12.561-10.184-22.744-22.745-22.744z" fill="#bed9fd"/></g></g><g><g><path d="m28.023 379.107v37.102c0 11.497 9.32 20.818 20.818 20.818h413.267c11.498 0 20.818-9.321 20.818-20.818v-37.102z" fill="#e3e0e4"/></g></g><g><g><path d="m452.926 379.107v37.102c0 11.497-9.321 20.818-20.818 20.818h30c11.497 0 20.818-9.321 20.818-20.818v-37.102z" fill="#d4cfd5"/></g></g><g><g><path d="m306.895 437.027h-102.84l-9.153 67.479h121.146z" fill="#c5bec6"/></g></g><g><g><path d="m306.895 437.027h-30l9.153 67.479h30z" fill="#b5adb7"/></g></g><g><g><path d="m343.941 379.107h-176.932v-333.724c0-2.581 2.092-4.672 4.672-4.672h167.587c2.581 0 4.673 2.092 4.673 4.673z" fill="#d4cfd5"/></g></g><g><g><path d="m339.268 40.71h-30c2.581 0 4.673 2.092 4.673 4.673v333.724h30v-333.724c0-2.581-2.092-4.673-4.673-4.673z" fill="#c5bec6"/></g></g><g><g><path d="m167.009 265.147h176.932v113.96h-176.932z" fill="#fdfcfc"/></g></g><g><g><path d="m313.941 265.147h30v113.96h-30z" fill="#f1f1f1"/></g></g><g><g><path d="m457.783 183.313h-85.808c-24.854 0-45.003-20.148-45.003-45.003v-85.808c0-24.854 20.148-45.003 45.003-45.003h85.808c24.854 0 45.003 20.148 45.003 45.003v85.808c0 24.855-20.149 45.003-45.003 45.003z" fill="#bed9fd"/></g></g><g><g><path d="m459.865 182.882-.013-7.3c-.019-15.521-12-28.233-27.211-29.425l-35.709.051c-15.16 1.278-27.056 13.997-27.038 29.483l.013 7.191z" fill="#92e0c4"/></g></g><g><g><path d="m457.224 100.42.011 8.736c.027 22.041-17.819 39.93-39.86 39.957l-5.068.006c-22.041.027-39.93-17.819-39.957-39.86l-.033-27.067c-.028-22.88 18.498-41.451 41.378-41.479l2.028-.002c22.88-.028 41.451 18.498 41.479 41.378z" fill="#e3a76f"/></g></g><g><g><path d="m457.211 89.35-.009-7.261c-.028-22.88-18.598-41.406-41.478-41.378l-2.028.002c-22.881.028-41.407 18.598-41.379 41.479l.009 7.158h25.882c6.924 0 13.637-2.383 19.012-6.748l11.779-9.566c.422-.342 1.043-.266 1.369.169l3.06 4.081c5.622 7.499 14.411 11.957 23.783 12.064z" fill="#777078"/></g></g><g><g><path d="m130.317 238.418h-76.094c-24.854 0-45.003-20.148-45.003-45.003v-76.094c0-24.854 20.148-45.003 45.003-45.003h76.094c24.854 0 45.003 20.148 45.003 45.003v76.094c0 24.855-20.149 45.003-45.003 45.003z" fill="#bed9fd"/></g></g><g><g><path d="m457.783 7.5h-30c24.854 0 45.003 20.148 45.003 45.002v85.809c0 24.854-20.148 45.003-45.003 45.003h30c24.854 0 45.003-20.149 45.003-45.003v-85.809c0-24.854-20.149-45.002-45.003-45.002z" fill="#9ec8fc"/></g></g><g><g><path d="m130.317 72.319h-30c24.854 0 45.003 20.148 45.003 45.003v76.094c0 24.855-20.148 45.003-45.003 45.003h30c24.854 0 45.003-20.148 45.003-45.003v-76.094c0-24.855-20.149-45.003-45.003-45.003z" fill="#9ec8fc"/></g></g><g><g><path d="m134.77 238.011-.012-6.897c-.018-14.664-11.337-26.673-25.708-27.8l-33.736.049c-14.322 1.207-25.561 13.223-25.544 27.854l.012 6.794z" fill="#f7e365"/></g></g><g><g><path d="m132.275 160.105.01 8.253c.025 20.823-16.835 37.724-37.658 37.749l-4.788.006c-20.823.025-37.724-16.835-37.749-37.658l-.031-25.572c-.026-21.616 17.476-39.161 39.092-39.187l1.916-.002c21.616-.026 39.161 17.476 39.187 39.092z" fill="#e3a76f"/></g></g><g><g><path d="m132.263 149.647-.008-6.86c-.026-21.616-17.571-39.118-39.187-39.092l-1.916.002c-21.617.026-39.119 17.571-39.093 39.187l.008 6.763h24.452c6.542 0 12.884-2.251 17.962-6.375l11.128-9.038c.398-.323.986-.251 1.293.16l2.891 3.856c5.313 7.083 13.616 11.295 22.47 11.397z" fill="#777078"/></g></g><g><path d="m239.845 67.234h-28.261c-4.142 0-7.5 3.358-7.5 7.5s3.358 7.5 7.5 7.5h28.261c4.142 0 7.5-3.358 7.5-7.5s-3.357-7.5-7.5-7.5z"/><path d="m271.104 82.234h28.261c4.142 0 7.5-3.358 7.5-7.5s-3.358-7.5-7.5-7.5h-28.261c-4.142 0-7.5 3.358-7.5 7.5s3.358 7.5 7.5 7.5z"/><path d="m239.845 99.57h-28.261c-4.142 0-7.5 3.358-7.5 7.5s3.358 7.5 7.5 7.5h28.261c4.142 0 7.5-3.358 7.5-7.5s-3.357-7.5-7.5-7.5z"/><path d="m271.104 114.57h28.261c4.142 0 7.5-3.358 7.5-7.5s-3.358-7.5-7.5-7.5h-28.261c-4.142 0-7.5 3.358-7.5 7.5s3.358 7.5 7.5 7.5z"/><path d="m239.845 131.906h-28.261c-4.142 0-7.5 3.358-7.5 7.5s3.358 7.5 7.5 7.5h28.261c4.142 0 7.5-3.358 7.5-7.5s-3.357-7.5-7.5-7.5z"/><path d="m271.104 146.906h28.261c4.142 0 7.5-3.358 7.5-7.5s-3.358-7.5-7.5-7.5h-28.261c-4.142 0-7.5 3.358-7.5 7.5s3.358 7.5 7.5 7.5z"/><path d="m239.845 164.241h-28.261c-4.142 0-7.5 3.358-7.5 7.5s3.358 7.5 7.5 7.5h28.261c4.142 0 7.5-3.358 7.5-7.5s-3.357-7.5-7.5-7.5z"/><path d="m271.104 179.241h28.261c4.142 0 7.5-3.358 7.5-7.5s-3.358-7.5-7.5-7.5h-28.261c-4.142 0-7.5 3.358-7.5 7.5s3.358 7.5 7.5 7.5z"/><path d="m239.845 196.577h-28.261c-4.142 0-7.5 3.358-7.5 7.5s3.358 7.5 7.5 7.5h28.261c4.142 0 7.5-3.358 7.5-7.5s-3.357-7.5-7.5-7.5z"/><path d="m271.104 211.577h28.261c4.142 0 7.5-3.358 7.5-7.5s-3.358-7.5-7.5-7.5h-28.261c-4.142 0-7.5 3.358-7.5 7.5s3.358 7.5 7.5 7.5z"/><path d="m239.845 228.913h-28.261c-4.142 0-7.5 3.358-7.5 7.5s3.358 7.5 7.5 7.5h28.261c4.142 0 7.5-3.358 7.5-7.5s-3.357-7.5-7.5-7.5z"/><path d="m271.104 243.913h28.261c4.142 0 7.5-3.358 7.5-7.5s-3.358-7.5-7.5-7.5h-28.261c-4.142 0-7.5 3.358-7.5 7.5s3.358 7.5 7.5 7.5z"/><path d="m224.915 302.656c-4.142 0-7.5 3.358-7.5 7.5v12.325c0 4.142 3.358 7.5 7.5 7.5s7.5-3.358 7.5-7.5v-12.325c0-4.142-3.358-7.5-7.5-7.5z"/><path d="m279.697 329.981c4.142 0 7.5-3.358 7.5-7.5v-12.325c0-4.142-3.358-7.5-7.5-7.5s-7.5 3.358-7.5 7.5v12.325c0 4.142 3.357 7.5 7.5 7.5z"/><path d="m457.783 0h-85.808c-22.14 0-41.109 13.781-48.815 33.21h-81.576c-4.142 0-7.5 3.358-7.5 7.5s3.358 7.5 7.5 7.5h78.078c-.115 1.417-.19 2.846-.19 4.292v85.808c0 15.255 6.545 29.006 16.968 38.608v80.729h-161.931v-35.938c5.25-8.172 8.31-17.879 8.31-28.293v-76.094c0-10.414-3.06-20.121-8.31-28.293v-40.819h37.075c4.142 0 7.5-3.358 7.5-7.5s-3.358-7.5-7.5-7.5h-39.903c-6.712 0-12.172 5.46-12.172 12.172v28.324c-8.353-5.609-18.396-8.888-29.192-8.888h-76.094c-28.95 0-52.502 23.553-52.502 52.503v76.094c0 16.131 7.318 30.581 18.803 40.219v58.846c0 4.142 3.358 7.5 7.5 7.5s7.5-3.358 7.5-7.5v-50.017c5.813 2.224 12.114 3.454 18.7 3.454h76.094c10.796 0 20.839-3.278 29.192-8.888v28.116 106.46h-123.987v-49.126c0-4.142-3.358-7.5-7.5-7.5s-7.5 3.358-7.5 7.5v91.801c0 16.677 13.568 30.245 30.245 30.245h144.701l-7.119 52.479h-21.018c-4.142 0-7.5 3.358-7.5 7.5s3.358 7.5 7.5 7.5h171.186c4.142 0 7.5-3.358 7.5-7.5s-3.358-7.5-7.5-7.5h-15.919l-7.118-52.479h144.701c16.677 0 30.245-13.568 30.245-30.245v-234.893c12.089-9.627 19.859-24.457 19.859-41.076v-85.809c0-28.95-23.552-52.502-52.503-52.502zm-121.342 371.607h-73.466v-98.96h73.466zm-261.765-160.602c4.73 1.684 9.816 2.608 15.116 2.608h.056l4.789-.005c5.272-.006 10.405-.91 15.225-2.636 9.898 1.459 17.272 9.838 17.386 19.946h-69.964c.131-9.982 7.621-18.457 17.392-19.913zm1.843-53.858c8.238 0 16.296-2.86 22.69-8.053l5.852-4.752c5.088 6.027 12.075 10.21 19.71 11.929l.005 3.844v-.001l.01 8.254c.01 8.067-3.122 15.656-8.821 21.368-5.698 5.712-13.278 8.863-21.345 8.873l-4.789.005c-.013 0-.024 0-.037 0-16.636 0-30.183-13.526-30.203-30.167l-.014-11.3zm-16.943-15c.174-8.179 3.427-15.845 9.223-21.656 5.969-5.983 13.91-9.284 22.362-9.294l1.916-.002h.04c8.436 0 16.371 3.281 22.344 9.24 5.457 5.443 8.673 12.53 9.207 20.146-3.483-1.425-6.579-3.771-8.873-6.83l-2.892-3.857c-1.364-1.818-3.44-3.021-5.696-3.299-2.256-.277-4.563.385-6.325 1.818l-11.128 9.038c-3.729 3.029-8.429 4.697-13.233 4.697h-16.945zm82.61 86.835c-.7-11.705-7.027-21.919-16.453-27.839.284-.271.574-.535.852-.813 8.528-8.548 13.216-19.906 13.201-31.98l-.01-8.253-.021-17.318c-.015-12.458-4.881-24.164-13.701-32.962-8.807-8.785-20.501-13.621-32.938-13.621-.019 0-.04 0-.059 0l-1.915.002c-25.717.031-46.614 20.979-46.584 46.696l.007 5.607v.001.362l.024 19.603c.016 12.919 5.486 24.575 14.215 32.81-9.349 5.96-15.728 16.172-16.456 27.705-14.875-4.98-25.628-19.036-25.628-35.565v-76.094c0-20.679 16.824-37.503 37.502-37.503h76.094c20.679 0 37.502 16.824 37.502 37.503v76.094c.002 16.53-10.755 30.587-25.632 35.565zm32.323 43.665h73.466v98.96h-73.466zm132.953 224.359h-103.974l7.119-52.479h89.737zm152.72-67.479h-409.414c-8.406 0-15.245-6.839-15.245-15.245v-27.675h439.903v27.675c0 8.406-6.838 15.245-15.244 15.245zm15.244-57.92h-123.985v-106.46-78.519c6.311 2.692 13.251 4.186 20.535 4.186h85.808c6.188 0 12.126-1.084 17.643-3.059v183.852zm-98.032-195.925c-.014-10.934 8.167-20.258 18.847-21.824 5.071 1.815 10.47 2.762 16.015 2.762h.06l5.069-.006c5.619-.007 11.009-1.001 16.012-2.81 10.849 1.515 18.942 10.717 18.955 21.792v.218h-74.958zm20.813-78.832c8.619 0 17.05-2.993 23.741-8.426l6.53-5.303c5.419 6.574 12.98 11.102 21.241 12.881l.005 4.427.011 8.736c.022 17.87-14.499 32.426-32.369 32.448l-5.069.006c-.014 0-.027 0-.04 0-8.641 0-16.768-3.36-22.887-9.464-6.128-6.114-9.509-14.248-9.52-22.905l-.015-12.4zm-18.382-15c.157-18.555 15.283-33.614 33.88-33.637l2.027-.002h.042c18.118 0 32.972 14.28 33.883 32.185-4.022-1.505-7.612-4.119-10.228-7.609l-3.062-4.083c-1.373-1.829-3.461-3.038-5.73-3.317-2.267-.28-4.588.386-6.366 1.829l-11.778 9.566c-4.026 3.27-9.099 5.07-14.285 5.07h-18.383zm115.461 56.461c0 17.382-11.888 32.036-27.958 36.268-.355-12.962-7.299-24.309-17.767-30.651 9.339-8.677 15.191-21.058 15.174-34.78l-.026-20.914-.001-.635v-.001l-.007-5.516c-.032-26.959-21.976-48.87-48.929-48.87-.02 0-.04 0-.059 0l-2.028.002c-26.98.033-48.902 22.009-48.869 48.988l.007 5.928v.007l.001 1.223v.007l.024 19.903c.016 12.663 4.961 24.562 13.926 33.506.448.447.909.877 1.372 1.304-10.362 6.396-17.35 17.744-17.728 30.498-16.065-4.237-27.948-18.888-27.948-36.265v-85.811c0-20.679 16.824-37.502 37.503-37.502h85.808c20.679 0 37.502 16.824 37.502 37.502v85.809z"/></g></g></svg>