<svg id="Capa_1" enable-background="new 0 0 512 512" height="512" viewBox="0 0 512 512" width="512" xmlns="http://www.w3.org/2000/svg"><g><g><g><path d="m481.755 379.458h-451.511c-12.562 0-22.745-10.183-22.745-22.745v-275.15c0-12.562 10.183-22.745 22.745-22.745h451.511c12.561 0 22.745 10.183 22.745 22.745v275.15c0 12.561-10.183 22.745-22.745 22.745z" fill="#ddebfd"/></g></g><g><g><path d="m481.755 58.818h-30c12.561 0 22.745 10.183 22.745 22.745v275.15c0 12.561-10.183 22.744-22.745 22.744h30c12.561 0 22.745-10.183 22.745-22.744v-275.15c0-12.562-10.183-22.745-22.745-22.745z" fill="#bed9fd"/></g></g><g><g><path d="m7.5 316.178v40.535c0 12.561 10.183 22.745 22.745 22.745h451.511c12.561 0 22.745-10.183 22.745-22.745v-40.535z" fill="#e3e0e4"/></g></g><g><g><path d="m474.5 316.177v40.536c0 12.561-10.183 22.744-22.745 22.744h30c12.561 0 22.745-10.183 22.745-22.744v-40.536z" fill="#d4cfd5"/></g></g><g><g><path d="m326.828 156.959h-105.864v-48.299h66.849c21.547 0 39.015 17.468 39.015 39.015z" fill="#77d1b3"/></g></g><g><g><path d="m255.673 156.959h-105.864v-48.299h66.849c21.548 0 39.015 17.468 39.015 39.015z" fill="#f7e365"/></g></g><g><g><path d="m184.519 156.959h-105.865v-48.299h66.849c21.548 0 39.015 17.468 39.015 39.015v9.284z" fill="#9ec8fc"/></g></g><g><g><path d="m322.178 453.182h-132.357l10-73.724h112.357z" fill="#c5bec6"/></g></g><g><g><path d="m312.178 379.457h-30l10 73.725h30z" fill="#b5adb7"/></g></g><g><g><path d="m113.364 156.959h-105.864v-48.299h66.849c21.548 0 39.015 17.468 39.015 39.015z" fill="#df646e"/></g></g><g><g><path d="m7.5 156.959h319.328v159.219h-319.328z" fill="#fdfcfc"/></g></g><g><g><path d="m296.828 156.959h30v159.219h-30z" fill="#f1f1f1"/></g></g><g><g><path d="m245.682 279.979h-181.563c-4.16 0-7.532-3.372-7.532-7.532v-42.788c0-4.16 3.372-7.532 7.532-7.532h181.563c4.16 0 7.532 3.372 7.532 7.532v42.788c0 4.16-3.372 7.532-7.532 7.532z" fill="#faf0b0"/></g></g><g><g><path d="m245.682 222.127h-30c4.16 0 7.532 3.372 7.532 7.532v42.788c0 4.16-3.372 7.532-7.532 7.532h30c4.16 0 7.532-3.372 7.532-7.532v-42.788c0-4.16-3.372-7.532-7.532-7.532z" fill="#f8e883"/></g></g><g><path d="m481.755 51.318h-325.373c-4.142 0-7.5 3.358-7.5 7.5s3.358 7.5 7.5 7.5h325.374c8.406 0 15.245 6.839 15.245 15.245v227.115h-162.673v-150.336-1.383-9.284c0-25.648-20.867-46.515-46.515-46.515h-272.813v-19.597c0-8.406 6.839-15.245 15.245-15.245h96.137c4.142 0 7.5-3.358 7.5-7.5s-3.358-7.5-7.5-7.5h-96.137c-16.677 0-30.245 13.568-30.245 30.245v275.15c0 16.677 13.568 30.245 30.245 30.245h160.991l-7.965 58.724h-23.571c-4.142 0-7.5 3.358-7.5 7.5s3.358 7.5 7.5 7.5h187.028c4.142 0 7.5-3.358 7.5-7.5s-3.358-7.5-7.5-7.5h-17.998l-7.965-58.724h2.196c4.142 0 7.5-3.358 7.5-7.5s-3.358-7.5-7.5-7.5h-292.716c-8.406 0-15.245-6.839-15.245-15.245v-33.036h482v33.036c0 8.406-6.839 15.245-15.245 15.245h-128.795c-4.142 0-7.5 3.358-7.5 7.5s3.358 7.5 7.5 7.5h128.795c16.677 0 30.245-13.568 30.245-30.245v-275.15c0-16.677-13.568-30.245-30.245-30.245zm-168.163 394.364h-115.184l7.965-58.724h99.254zm5.736-298.007v1.784h-56.155v-1.784c0-12.149-4.687-23.221-12.342-31.515h36.982c17.377 0 31.515 14.138 31.515 31.515zm-127.309 1.784v-1.784c0-12.149-4.687-23.221-12.342-31.515h36.981c17.377 0 31.515 14.138 31.515 31.515v1.784zm-71.155 0v-1.784c0-12.149-4.687-23.221-12.342-31.515h36.982c17.377 0 31.515 14.138 31.515 31.515v1.784zm-46.515-33.299c17.378 0 31.515 14.138 31.515 31.515v1.784h-90.864v-33.299zm-59.349 48.299h304.328v144.219h-304.328z"/><path d="m384.05 158.21h65.903c4.142 0 7.5-3.358 7.5-7.5s-3.358-7.5-7.5-7.5h-65.903c-4.142 0-7.5 3.358-7.5 7.5s3.358 7.5 7.5 7.5z"/><path d="m384.05 199.857h65.903c4.142 0 7.5-3.358 7.5-7.5s-3.358-7.5-7.5-7.5h-65.903c-4.142 0-7.5 3.358-7.5 7.5s3.358 7.5 7.5 7.5z"/><path d="m384.05 241.504h65.903c4.142 0 7.5-3.358 7.5-7.5s-3.358-7.5-7.5-7.5h-65.903c-4.142 0-7.5 3.358-7.5 7.5s3.358 7.5 7.5 7.5z"/><path d="m384.05 283.151h65.903c4.142 0 7.5-3.358 7.5-7.5s-3.358-7.5-7.5-7.5h-65.903c-4.142 0-7.5 3.358-7.5 7.5s3.358 7.5 7.5 7.5z"/><path d="m56.587 197.204h69.794c4.142 0 7.5-3.358 7.5-7.5s-3.358-7.5-7.5-7.5h-69.794c-4.142 0-7.5 3.358-7.5 7.5s3.358 7.5 7.5 7.5z"/><path d="m245.682 214.627h-181.563c-8.288 0-15.032 6.744-15.032 15.032v42.788c0 8.289 6.743 15.032 15.032 15.032h181.563c8.289 0 15.032-6.743 15.032-15.032v-42.788c0-8.289-6.743-15.032-15.032-15.032zm.015 57.851c-.001 0-.004.001-.015.001l-181.595-.032.032-42.82 181.595.032z"/></g></g></svg>