<svg id="Capa_1" enable-background="new 0 0 512 512" height="512" viewBox="0 0 512 512" width="512" xmlns="http://www.w3.org/2000/svg"><g><g><path d="m7.5 475.29v-438.58c0-15.617 12.66-28.276 28.276-28.276h440.448c15.616 0 28.276 12.66 28.276 28.276v438.58c0 15.616-12.66 28.276-28.276 28.276h-440.448c-15.616 0-28.276-12.659-28.276-28.276z" fill="#fdfcfc"/></g></g><g><g><path d="m476.224 8.434h-30c15.617 0 28.276 12.66 28.276 28.276v438.58c0 15.617-12.66 28.276-28.276 28.276h30c15.617 0 28.276-12.659 28.276-28.276v-438.58c0-15.616-12.659-28.276-28.276-28.276z" fill="#f1f1f1"/></g></g><g><g><path d="m504.5 95.832v-59.122c0-15.616-12.66-28.276-28.276-28.276h-440.448c-15.616 0-28.276 12.66-28.276 28.276v59.122z" fill="#92e0c4"/></g></g><g><g><path d="m476.224 8.434h-30c15.617 0 28.276 12.66 28.276 28.276v59.122h30v-59.122c0-15.616-12.659-28.276-28.276-28.276z" fill="#77d1b3"/></g></g><g><g><path d="m438.055 169.094h-368.975v-18.36c0-10.168 8.243-18.41 18.411-18.41h332.154c10.168 0 18.411 8.243 18.411 18.41v18.36z" fill="#d4cfd5"/></g></g><g><g><path d="m438.055 169.094h-368.975v88.785c0 11.524 9.342 20.866 20.865 20.866h327.245c11.524 0 20.865-9.342 20.865-20.866z" fill="#fdfcfc"/></g></g><g><g><path d="m137.979 239.152h-16.774c-5.367 0-9.718-4.351-9.718-9.718v-16.774c0-5.367 4.351-9.718 9.718-9.718h16.774c5.367 0 9.718 4.351 9.718 9.718v16.774c0 5.367-4.351 9.718-9.718 9.718z" fill="#e27f86"/></g></g><g><g><path d="m408.055 169.094v88.785c0 11.524-9.342 20.866-20.865 20.866h30c11.524 0 20.865-9.342 20.865-20.866v-88.785z" fill="#f1f1f1"/></g></g><g><g><path d="m419.645 132.323h-30c10.168 0 18.411 8.243 18.411 18.411v18.36h30v-18.36c-.001-10.168-8.243-18.411-18.411-18.411z" fill="#b5adb7"/></g></g><g><g><path d="m438.055 356.515h-368.975v-18.36c0-10.168 8.243-18.41 18.411-18.41h332.154c10.168 0 18.411 8.243 18.411 18.41v18.36z" fill="#d4cfd5"/></g></g><g><g><path d="m419.645 319.745h-30c10.168 0 18.411 8.242 18.411 18.41v18.36h30v-18.36c-.001-10.168-8.243-18.41-18.411-18.41z" fill="#c5bec6"/></g></g><g><g><path d="m438.055 356.515h-368.975v88.785c0 11.524 9.342 20.865 20.865 20.865h327.245c11.524 0 20.865-9.342 20.865-20.865z" fill="#fdfcfc"/></g></g><g><g><path d="m408.055 356.515v88.785c0 11.523-9.342 20.865-20.865 20.865h30c11.524 0 20.865-9.342 20.865-20.865v-88.785z" fill="#f1f1f1"/></g></g><g><g><path d="m137.979 426.573h-16.774c-5.367 0-9.718-4.351-9.718-9.718v-16.774c0-5.367 4.351-9.718 9.718-9.718h16.774c5.367 0 9.718 4.351 9.718 9.718v16.774c0 5.367-4.351 9.718-9.718 9.718z" fill="#e27f86"/></g></g><g><circle cx="378.604" cy="52.133" r="7.5"/><circle cx="418.518" cy="52.133" r="7.5"/><circle cx="458.431" cy="52.133" r="7.5"/><path d="m476.224.934h-316.632c-4.142 0-7.5 3.358-7.5 7.5s3.358 7.5 7.5 7.5h316.632c11.456 0 20.776 9.32 20.776 20.776v51.622h-482v-51.622c0-11.456 9.32-20.776 20.776-20.776h93.815c4.142 0 7.5-3.358 7.5-7.5s-3.358-7.5-7.5-7.5h-93.815c-19.727 0-35.776 16.049-35.776 35.776v438.58c0 19.727 16.049 35.776 35.776 35.776h440.448c19.728 0 35.776-16.049 35.776-35.776v-438.58c0-19.727-16.048-35.776-35.776-35.776zm0 495.132h-440.448c-11.456 0-20.776-9.32-20.776-20.776v-371.958h482v371.958c0 11.456-9.32 20.776-20.776 20.776z"/><path d="m419.645 124.823h-332.155c-14.287 0-25.911 11.624-25.911 25.911v107.145c0 15.641 12.725 28.366 28.366 28.366h327.245c15.641 0 28.365-12.725 28.365-28.366v-107.145c0-14.287-11.623-25.911-25.91-25.911zm-343.065 25.911c0-6.016 4.895-10.911 10.911-10.911h332.155c6.016 0 10.91 4.895 10.91 10.911v10.86h-353.976zm353.975 107.145c0 7.37-5.995 13.366-13.365 13.366h-327.245c-7.37 0-13.366-5.996-13.366-13.366v-81.285h353.976z"/><path d="m121.205 246.652h16.774c9.494 0 17.218-7.724 17.218-17.218v-16.774c0-9.494-7.724-17.218-17.218-17.218h-16.774c-9.494 0-17.218 7.724-17.218 17.218v16.774c-.001 9.494 7.724 17.218 17.218 17.218zm-2.219-33.992c0-1.223.995-2.218 2.218-2.218h16.774c1.223 0 2.218.995 2.218 2.218v16.774c0 1.223-.995 2.218-2.218 2.218h-16.774c-1.223 0-2.218-.995-2.218-2.218z"/><path d="m184.069 213.999h217.715c4.143 0 7.5-3.358 7.5-7.5s-3.357-7.5-7.5-7.5h-217.715c-4.142 0-7.5 3.358-7.5 7.5 0 4.143 3.358 7.5 7.5 7.5z"/><path d="m184.069 246.652h217.715c4.143 0 7.5-3.358 7.5-7.5s-3.357-7.5-7.5-7.5h-217.715c-4.142 0-7.5 3.358-7.5 7.5s3.358 7.5 7.5 7.5z"/><path d="m419.645 312.245h-187.14c-4.142 0-7.5 3.358-7.5 7.5s3.358 7.5 7.5 7.5h187.14c6.016 0 10.91 4.894 10.91 10.91v10.86h-353.975v-10.86c0-6.016 4.895-10.91 10.911-10.91h115.015c4.142 0 7.5-3.358 7.5-7.5s-3.358-7.5-7.5-7.5h-115.016c-14.287 0-25.911 11.623-25.911 25.91v107.145c0 15.641 12.725 28.365 28.366 28.365h327.245c15.641 0 28.365-12.725 28.365-28.365v-107.145c0-14.287-11.623-25.91-25.91-25.91zm10.91 133.055c0 7.37-5.995 13.365-13.365 13.365h-327.245c-7.37 0-13.366-5.996-13.366-13.365v-81.285h353.976z"/><path d="m121.205 434.074h16.774c9.494 0 17.218-7.724 17.218-17.219v-16.774c0-9.494-7.724-17.218-17.218-17.218h-16.774c-9.494 0-17.218 7.724-17.218 17.218v16.774c-.001 9.495 7.724 17.219 17.218 17.219zm-2.219-33.993c0-1.223.995-2.218 2.218-2.218h16.774c1.223 0 2.218.995 2.218 2.218v16.774c0 1.224-.995 2.219-2.218 2.219h-16.774c-1.223 0-2.218-.995-2.218-2.219z"/><path d="m184.069 401.421h217.715c4.143 0 7.5-3.358 7.5-7.5s-3.357-7.5-7.5-7.5h-217.715c-4.142 0-7.5 3.358-7.5 7.5s3.358 7.5 7.5 7.5z"/><path d="m184.069 434.074h217.715c4.143 0 7.5-3.358 7.5-7.5s-3.357-7.5-7.5-7.5h-217.715c-4.142 0-7.5 3.358-7.5 7.5s3.358 7.5 7.5 7.5z"/></g></svg>