<svg id="Capa_1" enable-background="new 0 0 512 512" height="512" viewBox="0 0 512 512" width="512" xmlns="http://www.w3.org/2000/svg"><g><g><g><path d="m481.755 379.458h-451.51c-12.562 0-22.745-10.183-22.745-22.745v-275.15c0-12.562 10.183-22.745 22.745-22.745h451.511c12.561 0 22.745 10.183 22.745 22.745v275.15c-.001 12.561-10.184 22.745-22.746 22.745z" fill="#ddebfd"/></g></g><g><g><path d="m481.755 58.818h-30c12.561 0 22.745 10.183 22.745 22.745v275.15c0 12.562-10.183 22.744-22.745 22.744h30c12.561 0 22.745-10.183 22.745-22.744v-275.15c0-12.562-10.183-22.745-22.745-22.745z" fill="#bed9fd"/></g></g><g><g><path d="m7.5 316.178v40.535c0 12.561 10.183 22.745 22.745 22.745h451.511c12.561 0 22.745-10.183 22.745-22.745v-40.535z" fill="#d4cfd5"/></g></g><g><g><path d="m322.178 453.182h-132.356l10-73.724h112.356z" fill="#b5adb7"/></g></g><g><g><path d="m312.178 379.457h-30l10 73.725h30z" fill="#a59da7"/></g></g><g><g><path d="m252.329 171.239-2.892.07c-.754-13.815-5.759-26.509-13.717-36.817l2.431-1.776c3.976-2.905 4.529-8.639 1.169-12.24-6.898-7.39-15.227-13.424-24.377-17.659-4.472-2.07-9.749.254-11.263 4.943l-1.199 3.713c-6.111-1.861-12.589-2.871-19.3-2.871-7.234 0-14.195 1.18-20.718 3.33l-1.339-4.105c-1.528-4.684-6.813-6.991-11.278-4.907-9.138 4.264-17.448 10.325-24.323 17.737-3.349 3.611-2.778 9.343 1.207 12.236l3.293 2.39c-7.993 10.68-12.826 23.843-13.162 38.1l-3.251.003c-4.918.005-8.735 4.301-8.157 9.185 1.197 10.116 4.356 19.815 9.343 28.679 2.412 4.287 8.032 5.506 12.007 2.608l1.751-1.277c7.988 11.564 19.547 20.47 33.072 25.13l-.37 1.141c-1.517 4.681 1.392 9.65 6.22 10.598 4.929.969 9.956 1.457 15.027 1.457h.005c5.096 0 10.147-.493 15.098-1.471 4.829-.954 7.734-5.924 6.212-10.605l-.237-.728c14.603-4.73 26.997-14.392 35.223-27.015l1.35.93c4.055 2.794 9.65 1.422 11.939-2.938 4.698-8.951 7.643-18.805 8.619-28.841.478-4.906-3.457-9.12-8.383-9zm-69.148 28.098c-13.44 0-24.374-10.934-24.374-24.374s10.934-24.374 24.374-24.374 24.374 10.934 24.374 24.374-10.934 24.374-24.374 24.374z" fill="#e3e0e4"/></g></g><g><g><path d="m252.329 171.238-2.892.07c-.754-13.815-5.759-26.509-13.717-36.817l2.431-1.776c3.976-2.905 4.529-8.639 1.169-12.24-6.898-7.391-15.227-13.424-24.377-17.659-4.472-2.069-9.749.254-11.262 4.943l-1.199 3.713c-6.111-1.861-12.589-2.871-19.3-2.871-4.066 0-8.04.385-11.904 1.093 28.75 8.6 49.71 35.239 49.71 66.787 0 34.888-25.628 63.79-59.084 68.909 1.128 2.022 3.094 3.572 5.572 4.059 4.929.969 9.956 1.457 15.027 1.457h.005c5.096 0 10.147-.493 15.098-1.471 4.829-.954 7.734-5.924 6.212-10.606l-.237-.728c14.603-4.73 26.997-14.392 35.223-27.015l1.35.93c4.055 2.794 9.65 1.422 11.939-2.938 4.698-8.951 7.643-18.805 8.619-28.841.479-4.904-3.457-9.118-8.383-8.999z" fill="#d4cfd5"/></g></g><g><g><path d="m392.506 224.023-2.094.051c-.546-10.003-4.17-19.195-9.932-26.658l1.76-1.286c2.879-2.104 3.279-6.256.846-8.862-4.994-5.351-11.025-9.72-17.651-12.786-3.238-1.498-7.059.184-8.155 3.579l-.868 2.689c-4.424-1.348-9.115-2.079-13.975-2.079-5.238 0-10.278.854-15.002 2.411l-.97-2.972c-1.107-3.392-4.933-5.062-8.166-3.553-6.616 3.088-12.634 7.476-17.612 12.843-2.425 2.615-2.012 6.765.874 8.86l2.384 1.73c-5.787 7.733-9.287 17.264-9.53 27.587l-2.354.002c-3.561.004-6.325 3.114-5.906 6.651.866 7.325 3.154 14.348 6.765 20.766 1.746 3.104 5.816 3.987 8.694 1.888l1.268-.924c5.784 8.373 14.153 14.822 23.946 18.196l-.268.826c-1.098 3.39 1.008 6.987 4.504 7.674 3.569.701 7.209 1.055 10.881 1.055h.003c3.69 0 7.347-.357 10.932-1.065 3.497-.691 5.6-4.29 4.498-7.679l-.171-.527c10.574-3.425 19.548-10.421 25.504-19.561l.978.673c2.936 2.023 6.987 1.03 8.645-2.128 3.402-6.481 5.534-13.616 6.241-20.883.347-3.553-2.502-6.605-6.069-6.518zm-50.068 20.346c-9.732 0-17.649-7.917-17.649-17.649s7.917-17.649 17.649-17.649 17.649 7.917 17.649 17.649-7.918 17.649-17.649 17.649z" fill="#e3e0e4"/></g></g><g><g><path d="m474.5 316.177v40.536c0 12.562-10.183 22.744-22.745 22.744h30c12.561 0 22.745-10.183 22.745-22.744v-40.536z" fill="#c5bec6"/></g></g><g><g><path d="m392.506 224.023-2.094.051c-.546-10.003-4.17-19.195-9.932-26.658l1.76-1.286c2.879-2.104 3.279-6.256.846-8.863-4.994-5.351-11.025-9.72-17.651-12.786-3.238-1.498-7.059.184-8.155 3.579l-.868 2.689c-4.425-1.348-9.115-2.079-13.975-2.079-2.944 0-5.822.279-8.619.792 20.817 6.227 35.994 25.516 35.994 48.359 0 25.262-18.556 46.189-42.782 49.895.817 1.464 2.24 2.586 4.035 2.939 3.569.701 7.209 1.055 10.881 1.055h.003c3.69 0 7.347-.357 10.932-1.065 3.497-.691 5.6-4.29 4.498-7.679l-.171-.527c10.574-3.425 19.548-10.421 25.504-19.561l.978.674c2.936 2.023 6.987 1.03 8.645-2.128 3.402-6.481 5.534-13.616 6.241-20.883.346-3.553-2.503-6.605-6.07-6.518z" fill="#d4cfd5"/></g></g><g><path d="m481.756 51.318h-126.968c-4.143 0-7.5 3.358-7.5 7.5s3.357 7.5 7.5 7.5h126.968c8.405 0 15.244 6.839 15.244 15.245v227.115h-482v-227.115c0-8.406 6.839-15.245 15.244-15.245h294.544c4.143 0 7.5-3.358 7.5-7.5s-3.357-7.5-7.5-7.5h-294.544c-16.677 0-30.244 13.568-30.244 30.245v275.15c0 16.677 13.567 30.245 30.244 30.245h45.15c4.143 0 7.5-3.358 7.5-7.5s-3.357-7.5-7.5-7.5h-45.15c-8.405 0-15.244-6.839-15.244-15.245v-33.036h482v33.036c0 8.406-6.839 15.245-15.244 15.245h-169.577-112.358-94.427c-4.143 0-7.5 3.358-7.5 7.5s3.357 7.5 7.5 7.5h85.841l-7.965 58.724h-23.57c-4.143 0-7.5 3.358-7.5 7.5s3.357 7.5 7.5 7.5h30.121 132.357 24.55c4.143 0 7.5-3.358 7.5-7.5s-3.357-7.5-7.5-7.5h-17.998l-7.965-58.724h160.991c16.677 0 30.244-13.568 30.244-30.245v-275.15c0-16.677-13.567-30.245-30.244-30.245zm-168.163 394.364h-115.186l7.966-58.724h99.254z"/><path d="m101.86 171.17c-2.977 3.353-4.383 7.829-3.856 12.281 1.317 11.133 4.769 21.723 10.256 31.476 2.198 3.907 5.973 6.694 10.354 7.648 2.642.574 5.359.452 7.896-.315 7.285 8.692 16.55 15.676 26.886 20.264.174 2.387.891 4.73 2.131 6.837 2.275 3.868 6.103 6.582 10.502 7.447 5.395 1.06 10.937 1.598 16.479 1.598 5.563 0 11.132-.543 16.551-1.613 4.399-.869 8.226-3.587 10.498-7.458 1.131-1.927 1.825-4.051 2.067-6.225 11.583-4.858 21.813-12.652 29.611-22.558 2.396.561 4.92.559 7.358-.043 4.36-1.077 8.057-3.973 10.141-7.945 5.114-9.743 8.381-20.67 9.444-31.602.435-4.468-1.071-8.918-4.132-12.208-2.114-2.274-4.834-3.849-7.795-4.571-1.486-10.129-5.061-19.786-10.534-28.465 1.813-2.337 2.952-5.163 3.236-8.164.423-4.471-1.091-8.916-4.152-12.195-7.509-8.046-16.745-14.736-26.71-19.349-4.072-1.885-8.771-1.934-12.887-.131-3.149 1.378-5.734 3.74-7.396 6.686-10.09-2.041-20.631-1.939-30.686.31-1.664-3.063-4.316-5.515-7.563-6.924-4.121-1.788-8.818-1.725-12.888.172-9.95 4.644-19.165 11.363-26.648 19.433-3.052 3.289-4.552 7.74-4.114 12.209.333 3.403 1.765 6.578 4.03 9.065-5.459 9.014-8.887 19.027-10.102 29.517-3.056.758-5.849 2.426-7.977 4.823zm11.217 9.958c.217-.243.46-.244.539-.244l3.251-.003c4.07-.004 7.396-3.254 7.491-7.323.289-12.288 4.324-23.97 11.669-33.782 1.203-1.608 1.711-3.631 1.411-5.617-.301-1.985-1.386-3.768-3.011-4.947l-3.293-2.39c-.175-.127-.274-.302-.296-.518-.031-.317.129-.49.183-.548 6.179-6.663 13.784-12.209 21.994-16.04.07-.033.284-.13.574-.005.2.087.336.236.403.442l1.34 4.105c.618 1.895 1.965 3.465 3.743 4.365 1.779.9 3.842 1.056 5.734.431 11.475-3.783 23.978-3.913 35.484-.407 3.921 1.197 8.065-.975 9.322-4.87l1.2-3.714c.066-.207.202-.356.402-.444.29-.127.503-.029.572.003 8.223 3.806 15.845 9.328 22.045 15.971.053.057.214.229.184.546-.02.217-.12.392-.294.519l-2.432 1.776c-1.634 1.193-2.717 2.997-3.002 5.001-.284 2.003.253 4.038 1.489 5.639 7.31 9.467 11.517 20.754 12.165 32.642.218 3.986 3.516 7.091 7.486 7.091.062 0 .123-.001.186-.003l2.893-.07c.225.004.402.074.551.233.217.233.194.466.186.542-.878 9.02-3.573 18.039-7.797 26.083-.035.068-.146.277-.454.354-.214.053-.41.016-.59-.108l-1.351-.93c-1.666-1.146-3.72-1.575-5.708-1.18-1.983.392-3.725 1.569-4.828 3.263-7.379 11.322-18.477 19.836-31.251 23.974-1.893.613-3.465 1.954-4.369 3.727-.904 1.772-1.067 3.831-.453 5.724l.237.731c.067.206.045.406-.065.594-.161.274-.392.32-.468.335-8.905 1.759-18.319 1.765-27.23.013-.075-.015-.305-.06-.466-.333-.11-.188-.133-.388-.067-.591l.37-1.141c1.262-3.89-.824-8.073-4.69-9.405-11.797-4.064-22.218-11.984-29.344-22.301-1.149-1.664-2.922-2.794-4.916-3.132-.417-.071-.837-.106-1.255-.106-1.577 0-3.127.498-4.419 1.44l-1.749 1.276c-.176.127-.374.168-.582.122-.315-.069-.433-.278-.472-.347-4.512-8.019-7.349-16.727-8.432-25.882-.006-.078-.035-.319.18-.561z"/><path d="m183.181 206.837c17.576 0 31.875-14.299 31.875-31.874s-14.299-31.874-31.875-31.874c-17.575 0-31.874 14.299-31.874 31.874s14.298 31.874 31.874 31.874zm0-48.749c9.305 0 16.875 7.57 16.875 16.874s-7.57 16.874-16.875 16.874-16.874-7.57-16.874-16.874 7.569-16.874 16.874-16.874z"/><path d="m342.438 201.571c-13.867 0-25.149 11.282-25.149 25.149 0 13.868 11.282 25.149 25.149 25.149s25.149-11.282 25.149-25.149c0-13.868-11.282-25.149-25.149-25.149zm0 35.298c-5.597 0-10.149-4.553-10.149-10.149s4.553-10.149 10.149-10.149 10.149 4.553 10.149 10.149-4.553 10.149-10.149 10.149z"/><path d="m388.569 182.15c-5.618-6.02-12.529-11.025-19.984-14.476-3.486-1.615-7.508-1.656-11.029-.114-2.224.973-4.118 2.519-5.512 4.445-6.677-1.174-13.591-1.11-20.244.194-1.41-1.998-3.353-3.597-5.641-4.59-3.525-1.531-7.548-1.478-11.031.148-7.444 3.475-14.339 8.502-19.938 14.54-2.611 2.816-3.895 6.624-3.521 10.449.233 2.385 1.098 4.639 2.469 6.546-3.455 6.059-5.716 12.684-6.689 19.604-2.071.758-3.949 2.021-5.443 3.705-2.547 2.87-3.749 6.701-3.298 10.508.985 8.331 3.567 16.259 7.677 23.564 1.882 3.344 5.112 5.729 8.863 6.545 1.802.392 3.644.404 5.414.062 5.081 5.781 11.348 10.497 18.296 13.761.27 1.606.83 3.167 1.673 4.601 1.947 3.31 5.224 5.632 8.989 6.372 4.039.793 8.187 1.196 12.33 1.196 4.161 0 8.327-.406 12.385-1.207 3.766-.744 7.041-3.07 8.985-6.382.755-1.286 1.282-2.674 1.576-4.106 7.893-3.507 14.905-8.841 20.418-15.528 1.645.216 3.336.13 4.983-.276 3.73-.921 6.893-3.4 8.679-6.8 3.826-7.289 6.27-15.465 7.065-23.643.372-3.824-.916-7.633-3.535-10.449-1.482-1.595-3.313-2.788-5.32-3.506-1.146-6.695-3.512-13.097-6.999-18.941 1.067-1.735 1.739-3.71 1.935-5.781.362-3.83-.932-7.634-3.553-10.441zm1.84 49.424c.061 0 .123 0 .185-.002l.315-.007c-.688 5.105-2.203 10.168-4.436 14.822-1.569-.909-3.42-1.223-5.213-.868-1.984.392-3.726 1.568-4.83 3.263-5.086 7.803-12.733 13.671-21.533 16.521-1.895.614-3.468 1.956-4.371 3.731-.719 1.41-.968 3.001-.73 4.545-5.132.831-10.462.838-15.605.015.713-3.624-1.341-7.298-4.918-8.531-8.127-2.8-15.307-8.258-20.219-15.368-1.149-1.664-2.922-2.793-4.916-3.131-1.93-.331-3.903.11-5.509 1.217-2.387-4.624-3.993-9.556-4.789-14.706l.584-.001c4.07-.004 7.394-3.254 7.49-7.323.2-8.465 2.979-16.512 8.037-23.271 1.203-1.608 1.711-3.631 1.41-5.616-.3-1.985-1.384-3.767-3.009-4.947l-.946-.687c3.642-3.649 7.904-6.76 12.481-9.105l.418 1.28c.618 1.895 1.965 3.465 3.743 4.365s3.842 1.057 5.734.432c7.907-2.605 16.518-2.695 24.443-.28 3.921 1.192 8.065-.975 9.322-4.87l.322-.996c4.584 2.331 8.856 5.427 12.51 9.065l-.325.237c-1.634 1.193-2.717 2.997-3.002 5.001-.284 2.004.253 4.038 1.489 5.639 5.036 6.521 7.934 14.296 8.38 22.483.22 3.988 3.518 7.093 7.488 7.093z"/></g></g></svg>