<svg id="Capa_1" enable-background="new 0 0 508.885 508.885" height="512" viewBox="0 0 508.885 508.885" width="512" xmlns="http://www.w3.org/2000/svg"><g><g><g><path d="m407.578 254.298h-306.271c-9.351 0-16.931-7.58-16.931-16.931v-212.936c0-9.351 7.58-16.931 16.931-16.931h306.272c9.351 0 16.931 7.58 16.931 16.931v212.936c-.001 9.351-7.581 16.931-16.932 16.931z" fill="#fdfcfc"/></g></g><g><g><path d="m407.578 7.5h-30c9.351 0 16.931 7.581 16.931 16.931v212.936c0 9.351-7.58 16.931-16.931 16.931h30c9.351 0 16.931-7.58 16.931-16.931v-212.936c0-9.35-7.58-16.931-16.931-16.931z" fill="#f1f1f1"/></g></g><g><g><path d="m184.44 501.385h-104.973c-24.854 0-45.003-20.148-45.003-45.003v-104.973c0-24.854 20.148-45.003 45.003-45.003h104.973c24.854 0 45.003 20.148 45.003 45.003v104.973c-.001 24.854-20.149 45.003-45.003 45.003z" fill="#edf6ff"/></g></g><g><g><path d="m429.418 501.385h-104.973c-24.854 0-45.003-20.148-45.003-45.003v-104.973c0-24.854 20.148-45.003 45.003-45.003h104.973c24.854 0 45.003 20.148 45.003 45.003v104.973c0 24.854-20.149 45.003-45.003 45.003z" fill="#edf6ff"/></g></g><g><g><path d="m184.44 306.406h-30c24.854 0 45.003 20.148 45.003 45.002v104.973c0 24.854-20.148 45.003-45.003 45.003h30c24.854 0 45.003-20.148 45.003-45.003v-104.972c-.001-24.854-20.149-45.003-45.003-45.003z" fill="#ddebfd"/></g></g><g><g><path d="m429.418 306.406h-30c24.854 0 45.003 20.148 45.003 45.002v104.973c0 24.854-20.148 45.003-45.003 45.003h30c24.854 0 45.003-20.148 45.003-45.003v-104.972c0-24.854-20.149-45.003-45.003-45.003z" fill="#ddebfd"/></g></g><g><g><path d="m181.842 501.385-.014-8.096c-.021-17.213-13.308-31.311-30.177-32.633l-39.602.057c-16.812 1.417-30.006 15.522-29.985 32.697l.014 7.975z" fill="#e6989e"/></g></g><g><g><path d="m178.914 409.934.012 9.688c.03 24.444-19.762 44.283-44.205 44.313l-5.621.007c-24.444.03-44.283-19.762-44.313-44.205l-.036-30.018c-.031-25.375 20.514-45.97 45.889-46.001l2.249-.003c25.375-.031 45.97 20.514 46.001 45.889z" fill="#fee5d0"/></g></g><g><g><path d="m178.899 397.657-.01-8.053c-.031-25.374-20.626-45.919-46-45.889l-2.249.003c-25.375.03-45.92 20.626-45.89 46.001l.01 7.938h28.704c7.679 0 15.124-2.642 21.085-7.484l13.063-10.609c.468-.38 1.157-.295 1.518.187l3.394 4.526c6.235 8.317 15.982 13.261 26.375 13.38z" fill="#a59da7"/></g></g><g><g><path d="m425.314 501.385-.014-8.096c-.021-17.213-13.308-31.311-30.177-32.633l-39.602.057c-16.812 1.417-30.006 15.522-29.985 32.697l.014 7.975z" fill="#77d1b3"/></g></g><g><g><path d="m422.385 409.934.012 9.688c.03 24.444-19.762 44.283-44.205 44.313l-5.621.007c-24.444.03-44.283-19.762-44.313-44.205l-.036-30.018c-.031-25.375 20.514-45.97 45.889-46.001l2.249-.003c25.375-.031 45.97 20.514 46 45.889z" fill="#fee5d0"/></g></g><g><g><path d="m422.37 397.657-.01-8.053c-.031-25.374-20.625-45.919-46-45.889l-2.249.003c-25.375.03-45.921 20.626-45.89 46.001l.01 7.938h28.704c7.679 0 15.124-2.642 21.085-7.484l13.063-10.609c.468-.38 1.157-.295 1.518.187l3.394 4.526c6.235 8.317 15.982 13.261 26.375 13.38z" fill="#d6995c"/></g></g><g><g><path d="m166.621 205.055h-34.236v-63.785c0-3.84 3.113-6.954 6.954-6.954h20.328c3.84 0 6.954 3.113 6.954 6.954z" fill="#dc4955"/></g></g><g><g><path d="m236.581 205.055h-34.236v-133.785c0-3.84 3.113-6.954 6.954-6.954h20.328c3.84 0 6.954 3.113 6.954 6.954z" fill="#9ec8fc"/></g></g><g><g><path d="m306.54 205.055h-34.236v-103.785c0-3.84 3.113-6.954 6.954-6.954h20.328c3.84 0 6.954 3.113 6.954 6.954z" fill="#f8e883"/></g></g><g><g><path d="m376.499 205.055h-34.236v-43.785c0-3.84 3.113-6.954 6.954-6.954h20.328c3.84 0 6.954 3.113 6.954 6.954z" fill="#77d1b3"/></g></g><g><path d="m101.307 261.798h306.271c13.471 0 24.431-10.96 24.431-24.431v-212.936c0-13.471-10.96-24.431-24.431-24.431h-219.969c-4.142 0-7.5 3.358-7.5 7.5s3.358 7.5 7.5 7.5h219.969c5.2 0 9.431 4.231 9.431 9.431v212.936c0 5.2-4.23 9.431-9.431 9.431h-306.271c-5.2 0-9.431-4.231-9.431-9.431v-212.936c0-5.2 4.23-9.431 9.431-9.431h56.303c4.142 0 7.5-3.358 7.5-7.5s-3.358-7.5-7.5-7.5h-56.303c-13.471 0-24.431 10.96-24.431 24.431v212.936c0 13.471 10.96 24.431 24.431 24.431z"/><path d="m132.49 442.331h.021c9.909-.013 17.96-8.149 17.949-18.138-.005-4.139-3.361-7.491-7.5-7.491-.003 0-.006 0-.009 0-4.142.005-7.496 3.367-7.491 7.509.002 1.719-1.329 3.119-2.967 3.121-.002 0-.003 0-.003 0-1.637 0-2.97-1.396-2.972-3.113-.005-4.139-3.362-7.491-7.5-7.491-.003 0-.006 0-.009 0-4.142.005-7.496 3.367-7.491 7.509.013 9.982 8.072 18.095 17.972 18.094z"/><path d="m375.961 442.331h.021c9.91-.013 17.961-8.149 17.949-18.139-.005-4.139-3.362-7.491-7.5-7.491-.003 0-.006 0-.009 0-4.142.005-7.496 3.367-7.491 7.509.002 1.718-1.329 3.118-2.967 3.12-.001 0-.003 0-.003 0-1.043 0-1.739-.547-2.062-.874-.339-.343-.908-1.09-.909-2.239-.005-4.139-3.361-7.491-7.5-7.491-.003 0-.006 0-.009 0-4.142.005-7.496 3.367-7.491 7.509.006 4.819 1.867 9.354 5.242 12.767 3.397 3.438 7.916 5.329 12.729 5.329z"/><path d="m429.418 298.906h-104.973c-28.95 0-52.502 23.553-52.502 52.502v104.973c0 28.95 23.553 52.503 52.502 52.503h104.973c28.95 0 52.503-23.553 52.503-52.503v-104.972c0-28.95-23.553-52.503-52.503-52.503zm-96.383 194.494c-.016-12.59 9.443-23.343 21.769-25.061 5.602 2.036 11.574 3.103 17.711 3.103h.065l5.621-.007c6.224-.007 12.193-1.12 17.723-3.15 12.515 1.669 21.86 12.272 21.876 25.017l.001.583h-84.764zm2.687-103.69c-.026-21.198 17.2-38.465 38.399-38.491l2.249-.003h.048c10.251 0 19.892 3.986 27.15 11.227 7.097 7.08 11.076 16.446 11.274 26.441-5.065-1.635-9.606-4.784-12.847-9.105l-3.393-4.525c-1.388-1.852-3.502-3.077-5.799-3.361-2.298-.287-4.646.389-6.448 1.851l-13.063 10.609c-4.609 3.744-10.418 5.805-16.356 5.805h-21.213zm21.213 15.447c9.372 0 18.539-3.254 25.814-9.162l7.877-6.398c6.061 7.663 14.755 12.888 24.252 14.773l.019 15.261c.025 20.269-16.445 36.779-36.714 36.804l-5.621.007c-.016 0-.03 0-.046 0-9.801 0-19.02-3.811-25.96-10.735-6.951-6.935-10.786-16.161-10.798-25.98l-.018-14.57zm109.986 51.225c0 19.539-15.021 35.627-34.121 37.343l-.001-.445c-.018-14.928-8.079-28.018-20.278-34.96 10.666-9.501 17.394-23.332 17.376-38.706l-.012-9.689-.025-20.329c-.017-14.275-5.593-27.69-15.699-37.772-10.091-10.067-23.492-15.608-37.745-15.608-.022 0-.044 0-.066 0l-2.249.003c-29.469.036-53.415 24.04-53.38 53.51l.037 30.018c.017 13.825 5.417 26.817 15.205 36.581.751.749 1.527 1.463 2.315 2.16-12.09 7.016-20.223 20.132-20.241 34.839-17.635-3.05-31.095-18.45-31.095-36.944v-104.974c0-20.679 16.824-37.502 37.502-37.502h104.973c20.679 0 37.503 16.824 37.503 37.502v104.973z"/><path d="m184.44 298.906h-104.973c-28.95 0-52.503 23.553-52.503 52.502v104.973c0 28.95 23.553 52.503 52.503 52.503h104.973c28.95 0 52.502-23.553 52.502-52.503v-5.289c0-4.142-3.358-7.5-7.5-7.5s-7.5 3.358-7.5 7.5v5.289c0 19.021-14.238 34.77-32.614 37.174l-.001-.276c-.018-14.928-8.079-28.018-20.278-34.96 10.666-9.501 17.394-23.332 17.376-38.706l-.012-9.689v.001l-.024-20.33c-.017-14.275-5.593-27.69-15.7-37.772-10.091-10.067-23.492-15.608-37.744-15.608-.021 0-.044 0-.066 0l-2.249.003c-29.469.036-53.415 24.04-53.379 53.51l.036 30.018c.017 13.825 5.416 26.817 15.205 36.581.751.749 1.527 1.463 2.315 2.16-12.117 7.032-20.261 20.19-20.243 34.936v.131c-18.37-2.41-32.6-18.155-32.6-37.172v-104.973c0-20.679 16.824-37.502 37.503-37.502h104.973c20.679 0 37.502 16.824 37.502 37.502v69.684c0 4.142 3.358 7.5 7.5 7.5s7.5-3.358 7.5-7.5v-69.684c0-28.95-23.552-52.503-52.502-52.503zm-53.791 52.312 2.249-.003h.048c10.251 0 19.892 3.986 27.15 11.227 7.097 7.08 11.077 16.446 11.274 26.441-5.065-1.636-9.607-4.785-12.847-9.105l-3.393-4.525c-1.389-1.853-3.503-3.078-5.802-3.361-2.3-.284-4.647.391-6.445 1.851l-13.064 10.609c-4.609 3.744-10.417 5.805-16.356 5.805h-21.211v-.447c-.027-21.199 17.198-38.466 38.397-38.492zm-38.362 68.509-.018-14.57h21.194c9.372 0 18.539-3.254 25.813-9.162l7.878-6.398c6.061 7.663 14.755 12.888 24.252 14.773l.007 5.572.012 9.689c.025 20.269-16.445 36.779-36.714 36.804l-5.621.007c-.016 0-.029 0-.045 0-20.247-.002-36.733-16.462-36.758-36.715zm19.046 48.612c5.602 2.036 11.574 3.103 17.712 3.103h.065l5.621-.007c6.224-.007 12.193-1.12 17.723-3.15 12.515 1.669 21.86 12.272 21.876 25.017l.001.582h-84.766l-.001-.484c-.016-12.589 9.442-23.342 21.769-25.061z"/><path d="m139.339 126.816c-7.97 0-14.454 6.484-14.454 14.454v63.784c0 4.142 3.358 7.5 7.5 7.5h244.115c4.142 0 7.5-3.358 7.5-7.5v-43.784c0-7.97-6.484-14.454-14.454-14.454h-20.328c-7.97 0-14.454 6.484-14.454 14.454v36.284h-20.724v-96.284c0-7.97-6.484-14.454-14.454-14.454h-20.328c-7.97 0-14.454 6.484-14.454 14.454v96.284h-20.724v-126.284c0-7.97-6.484-14.454-14.454-14.454h-20.329c-7.97 0-14.454 6.484-14.454 14.454v126.284h-20.724v-56.284c0-7.97-6.484-14.454-14.454-14.454zm210.425 35h19.236v35.738h-19.236zm-69.96-60h19.236v95.738h-19.236zm-69.959-30h19.236v125.738h-19.236zm-69.96 125.738v-55.738h19.236v55.738z"/></g></g></svg>