<svg id="Capa_1" enable-background="new 0 0 508.324 508.324" height="512" viewBox="0 0 508.324 508.324" width="512" xmlns="http://www.w3.org/2000/svg"><g><g><g><path d="m474.019 369.071h-164.935c-4.8 0-8.691-3.891-8.691-8.691v-344.189c0-4.8 3.891-8.691 8.691-8.691h164.936c4.8 0 8.691 3.891 8.691 8.691v344.189c-.001 4.8-3.892 8.691-8.692 8.691z" fill="#e3e0e4"/></g></g><g><g><path d="m474.019 7.5h-30c4.8 0 8.691 3.891 8.691 8.691v344.189c0 4.8-3.891 8.691-8.691 8.691h30c4.8 0 8.691-3.891 8.691-8.691v-344.189c0-4.8-3.891-8.691-8.691-8.691z" fill="#d4cfd5"/></g></g><g><g><path d="m199.24 369.071h-164.935c-4.8 0-8.691-3.891-8.691-8.691v-344.189c0-4.8 3.891-8.691 8.691-8.691h164.935c4.8 0 8.691 3.891 8.691 8.691v344.189c0 4.8-3.891 8.691-8.691 8.691z" fill="#e3e0e4"/></g></g><g><g><path d="m199.24 7.5h-30c4.8 0 8.691 3.891 8.691 8.691v344.189c0 4.8-3.891 8.691-8.691 8.691h30c4.8 0 8.691-3.891 8.691-8.691v-344.189c0-4.8-3.891-8.691-8.691-8.691z" fill="#d4cfd5"/></g></g><g><g><path d="m25.614 136.523h182.317v83.235h-182.317z" fill="#a59da7"/></g></g><g><g><path d="m300.393 136.523h182.317v83.235h-182.317z" fill="#a59da7"/></g></g><g><g><path d="m177.931 136.523h30v83.235h-30z" fill="#968d97"/></g></g><g><g><path d="m452.71 136.523h30v83.235h-30z" fill="#968d97"/></g></g><g><g><ellipse cx="247.566" cy="468.715" fill="#9ec8fc" rx="32.109" ry="32.109" transform="matrix(.707 -.707 .707 .707 -258.921 312.339)"/></g></g><g><g><ellipse cx="77.181" cy="70.539" fill="#a59da7" rx="22.577" ry="22.577" transform="matrix(.205 -.979 .979 .205 -7.662 131.648)"/></g></g><g><g><ellipse cx="156.301" cy="70.539" fill="#a59da7" rx="22.577" ry="22.577" transform="matrix(.146 -.989 .989 .146 63.772 214.914)"/></g></g><g><g><ellipse cx="116.773" cy="70.539" fill="#e6989e" rx="28.516" ry="28.516" transform="matrix(.233 -.973 .973 .233 21.009 167.702)"/></g></g><g><g><ellipse cx="351.96" cy="70.539" fill="#a59da7" rx="22.577" ry="22.577" transform="matrix(.142 -.99 .99 .142 232.313 408.971)"/></g></g><g><g><ellipse cx="431.08" cy="70.539" fill="#a59da7" rx="22.577" ry="22.577" transform="matrix(.538 -.843 .843 .538 139.845 396.096)"/></g></g><g><g><ellipse cx="391.552" cy="70.539" fill="#e6989e" rx="28.516" ry="28.516" transform="matrix(.707 -.707 .707 .707 64.805 297.529)"/></g></g><g><path d="m66.47 168.717c-4.792 0-8.676 3.885-8.676 8.677s3.885 8.676 8.676 8.676 8.676-3.885 8.676-8.676c.001-4.792-3.884-8.677-8.676-8.677z"/><path d="m116.773 168.717c-4.792 0-8.677 3.885-8.677 8.677s3.885 8.676 8.677 8.676 8.676-3.885 8.676-8.676c0-4.792-3.884-8.677-8.676-8.677z"/><path d="m167.075 168.717c-4.792 0-8.676 3.885-8.676 8.677s3.885 8.676 8.676 8.676c4.792 0 8.677-3.885 8.677-8.676 0-4.792-3.885-8.677-8.677-8.677z"/><path d="m341.249 186.07c4.792 0 8.677-3.885 8.677-8.676 0-4.792-3.885-8.677-8.677-8.677s-8.676 3.885-8.676 8.677c0 4.791 3.884 8.676 8.676 8.676z"/><path d="m391.552 186.07c4.792 0 8.677-3.885 8.677-8.676 0-4.792-3.885-8.677-8.677-8.677s-8.677 3.885-8.677 8.677c0 4.791 3.885 8.676 8.677 8.676z"/><path d="m441.854 186.07c4.792 0 8.677-3.885 8.677-8.676 0-4.792-3.885-8.677-8.677-8.677s-8.677 3.885-8.677 8.677c.001 4.791 3.885 8.676 8.677 8.676z"/><path d="m77.244 270.004h79.057c4.142 0 7.5-3.358 7.5-7.5s-3.358-7.5-7.5-7.5h-79.057c-4.142 0-7.5 3.358-7.5 7.5 0 4.143 3.358 7.5 7.5 7.5z"/><path d="m77.244 311.335h79.057c4.142 0 7.5-3.358 7.5-7.5s-3.358-7.5-7.5-7.5h-79.057c-4.142 0-7.5 3.358-7.5 7.5 0 4.143 3.358 7.5 7.5 7.5z"/><path d="m77.181 100.616c5.173 0 10.279-1.338 14.764-3.868.034-.019.064-.042.098-.062 6.457 6.11 15.16 9.869 24.73 9.869 9.562 0 18.259-3.753 24.714-9.854 4.495 2.539 9.612 3.915 14.815 3.915 16.584 0 30.077-13.493 30.077-30.077s-13.493-30.077-30.077-30.077c-5.27 0-10.315 1.358-14.812 3.917-6.455-6.102-15.153-9.856-24.716-9.856-9.569 0-18.271 3.758-24.727 9.866-4.518-2.574-9.612-3.927-14.865-3.927-16.584 0-30.077 13.493-30.077 30.077-.001 16.584 13.491 30.077 30.076 30.077zm94.197-30.077c0 8.313-6.764 15.077-15.077 15.077-2.194 0-4.303-.46-6.24-1.344 1.754-4.235 2.727-8.872 2.727-13.733 0-4.858-.972-9.492-2.724-13.725 1.94-.884 4.049-1.352 6.237-1.352 8.313-.001 15.077 6.763 15.077 15.077zm-54.605-21.017c11.588 0 21.016 9.428 21.016 21.016s-9.428 21.016-21.016 21.016-21.016-9.428-21.016-21.016 9.427-21.016 21.016-21.016zm-39.592 5.939c2.195 0 4.331.475 6.29 1.376-1.745 4.227-2.715 8.852-2.715 13.701s.969 9.474 2.714 13.701c-1.961.9-4.11 1.377-6.29 1.377-8.313 0-15.077-6.764-15.077-15.077.001-8.314 6.764-15.078 15.078-15.078z"/><path d="m474.019 0h-164.935c-8.928 0-16.191 7.263-16.191 16.191v33.58c0 4.142 3.358 7.5 7.5 7.5s7.5-3.358 7.5-7.5v-33.58c0-.657.534-1.191 1.191-1.191h164.936c.657 0 1.191.534 1.191 1.191v112.832h-167.318v-49.252c0-4.142-3.358-7.5-7.5-7.5s-7.5 3.358-7.5 7.5v280.609c0 8.928 7.263 16.191 16.191 16.191h81.038v45.017c0 21.851-17.777 39.628-39.628 39.628h-64.041c-3.516-18.266-19.612-32.109-38.887-32.109-19.276 0-35.372 13.844-38.888 32.109h-53.455c-21.851 0-39.627-17.777-39.627-39.628v-45.017h83.644c8.928 0 16.191-7.263 16.191-16.191v-344.189c0-8.928-7.263-16.191-16.191-16.191h-164.935c-8.928 0-16.191 7.263-16.191 16.191v263.028c0 4.142 3.358 7.5 7.5 7.5s7.5-3.358 7.5-7.5v-53.454h167.317v134.615c0 .657-.534 1.191-1.191 1.191h-164.935c-.657 0-1.191-.534-1.191-1.191v-51.161c0-4.142-3.358-7.5-7.5-7.5s-7.5 3.358-7.5 7.5v51.161c0 8.928 7.263 16.191 16.191 16.191h66.291v45.017c0 30.122 24.506 54.628 54.627 54.628h53.455c3.516 18.265 19.612 32.109 38.888 32.109s35.371-13.844 38.887-32.109h64.041c30.122 0 54.628-24.506 54.628-54.628v-45.017h68.897c8.928 0 16.191-7.263 16.191-16.191v-344.189c0-8.928-7.263-16.191-16.191-16.191zm-439.714 15h164.935c.657 0 1.191.534 1.191 1.191v112.832h-167.317v-112.832c0-.657.534-1.191 1.191-1.191zm-1.191 195.764v-66.742h167.317v66.742zm214.452 282.56c-13.57 0-24.609-11.039-24.609-24.609s11.04-24.609 24.609-24.609 24.609 11.04 24.609 24.609c0 13.57-11.04 24.609-24.609 24.609zm227.644-349.301v66.742h-167.317v-66.742zm-1.191 217.548h-164.935c-.657 0-1.191-.534-1.191-1.191v-134.616h167.317v134.616c0 .657-.534 1.191-1.191 1.191z"/><path d="m431.08 255.004h-79.057c-4.142 0-7.5 3.358-7.5 7.5s3.358 7.5 7.5 7.5h79.057c4.142 0 7.5-3.358 7.5-7.5s-3.358-7.5-7.5-7.5z"/><path d="m431.08 296.335h-79.057c-4.142 0-7.5 3.358-7.5 7.5s3.358 7.5 7.5 7.5h79.057c4.142 0 7.5-3.358 7.5-7.5s-3.358-7.5-7.5-7.5z"/><path d="m366.813 96.677c6.458 6.115 15.164 9.878 24.739 9.878 9.557 0 18.25-3.749 24.704-9.845 4.508 2.56 9.586 3.906 14.824 3.906 16.584 0 30.077-13.493 30.077-30.077s-13.493-30.077-30.077-30.077c-5.215 0-10.328 1.366-14.821 3.908-6.454-6.097-15.148-9.847-24.707-9.847-9.572 0-18.276 3.761-24.733 9.873-4.504-2.555-9.634-3.934-14.858-3.934-16.585 0-30.077 13.493-30.077 30.077s13.493 30.077 30.077 30.077c5.288 0 10.346-1.365 14.852-3.939zm79.344-26.138c0 8.313-6.764 15.077-15.077 15.077-2.175 0-4.291-.467-6.236-1.353 1.751-4.233 2.724-8.867 2.724-13.725 0-4.862-.974-9.499-2.728-13.734 1.935-.883 4.042-1.343 6.24-1.343 8.313 0 15.077 6.764 15.077 15.078zm-54.605-21.017c11.588 0 21.016 9.428 21.016 21.016s-9.428 21.016-21.016 21.016-21.016-9.428-21.016-21.016 9.428-21.016 21.016-21.016zm-54.669 21.017c0-8.313 6.764-15.077 15.077-15.077 2.216 0 4.343.468 6.294 1.368-1.747 4.228-2.718 8.857-2.718 13.709 0 4.849.969 9.474 2.714 13.7-1.954.901-4.081 1.377-6.29 1.377-8.314 0-15.077-6.764-15.077-15.077z"/></g></g></svg>