<svg id="Capa_1" enable-background="new 0 0 508.324 508.324" height="512" viewBox="0 0 508.324 508.324" width="512" xmlns="http://www.w3.org/2000/svg"><g><g><g><path d="m439.278 100.926h-370.231c-3.348 0-6.062-2.714-6.062-6.062v-81.302c0-3.348 2.714-6.062 6.062-6.062h370.231c3.348 0 6.062 2.714 6.062 6.062v81.302c-.001 3.348-2.715 6.062-6.062 6.062z" fill="#92e0c4"/></g></g><g><g><path d="m439.278 234.182h-370.231c-3.348 0-6.062-2.714-6.062-6.062v-81.302c0-3.348 2.714-6.062 6.062-6.062h370.231c3.348 0 6.062 2.714 6.062 6.062v81.302c-.001 3.348-2.715 6.062-6.062 6.062z" fill="#92e0c4"/></g></g><g><g><path d="m439.278 367.438h-370.231c-3.348 0-6.062-2.714-6.062-6.062v-81.302c0-3.348 2.714-6.062 6.062-6.062h370.231c3.348 0 6.062 2.714 6.062 6.062v81.302c-.001 3.348-2.715 6.062-6.062 6.062z" fill="#92e0c4"/></g></g><g><g><path d="m93.505 100.926h311.497v39.83h-311.497z" fill="#67b59f"/></g></g><g><g><path d="m93.505 234.117h311.497v39.83h-311.497z" fill="#67b59f"/></g></g><g><g><path d="m439.278 500.824h-370.231c-3.348 0-6.062-2.714-6.062-6.062v-81.302c0-3.348 2.714-6.062 6.062-6.062h370.231c3.348 0 6.062 2.714 6.062 6.062v81.302c-.001 3.348-2.715 6.062-6.062 6.062z" fill="#92e0c4"/></g></g><g><g><path d="m439.278 7.5h-30c3.348 0 6.062 2.714 6.062 6.061v81.303c0 3.348-2.714 6.062-6.062 6.062h30c3.348 0 6.062-2.714 6.062-6.062v-81.303c-.001-3.347-2.715-6.061-6.062-6.061z" fill="#77d1b3"/></g></g><g><g><path d="m439.278 140.756h-30c3.348 0 6.062 2.714 6.062 6.062v81.302c0 3.348-2.714 6.061-6.062 6.061h30c3.348 0 6.062-2.714 6.062-6.061v-81.302c-.001-3.348-2.715-6.062-6.062-6.062z" fill="#77d1b3"/></g></g><g><g><path d="m439.278 274.012h-30c3.348 0 6.062 2.714 6.062 6.061v81.302c0 3.348-2.714 6.062-6.062 6.062h30c3.348 0 6.062-2.714 6.062-6.062v-81.302c-.001-3.347-2.715-6.061-6.062-6.061z" fill="#77d1b3"/></g></g><g><g><path d="m439.278 407.398h-30c3.348 0 6.062 2.714 6.062 6.062v81.303c0 3.348-2.714 6.061-6.062 6.061h30c3.348 0 6.062-2.714 6.062-6.061v-81.303c-.001-3.348-2.715-6.062-6.062-6.062z" fill="#77d1b3"/></g></g><g><g><path d="m93.505 367.503h311.497v39.83h-311.497z" fill="#67b59f"/></g></g><g><g><path d="m159.571 320.358c0 9.125-7.397 16.522-16.522 16.522s-16.522-7.397-16.522-16.522 7.397-16.522 16.522-16.522c9.124 0 16.522 7.397 16.522 16.522zm-16.522 117.05c-9.125 0-16.522 7.397-16.522 16.522s7.397 16.522 16.522 16.522 16.522-7.397 16.522-16.522-7.398-16.522-16.522-16.522z" fill="#e6989e"/></g></g><g><g><path d="m227.447 320.358c0 9.125-7.397 16.522-16.522 16.522s-16.522-7.397-16.522-16.522 7.397-16.522 16.522-16.522 16.522 7.397 16.522 16.522zm-16.522 117.05c-9.125 0-16.522 7.397-16.522 16.522s7.397 16.522 16.522 16.522 16.522-7.397 16.522-16.522-7.397-16.522-16.522-16.522z" fill="#f8e883"/></g></g><g><g><path d="m155.151 39.451c13.471 17.685-6.521 37.677-24.206 24.206-13.468-17.685 6.521-37.674 24.206-24.206zm.001 136.573c-17.685-13.469-37.675 6.521-24.207 24.206 17.685 13.47 37.677-6.521 24.207-24.206z" fill="#f8e883"/></g></g><g><g><path d="m227.447 52.055c0 9.125-7.397 16.522-16.522 16.522s-16.522-7.397-16.522-16.522 7.397-16.522 16.522-16.522 16.522 7.397 16.522 16.522zm-16.522 120.05c-9.125 0-16.522 7.397-16.522 16.522s7.397 16.522 16.522 16.522 16.522-7.397 16.522-16.522-7.397-16.522-16.522-16.522z" fill="#e6989e"/></g></g><g><circle cx="309.856" cy="54.213" r="7.5"/><circle cx="351.808" cy="54.213" r="7.5"/><circle cx="393.76" cy="54.213" r="7.5"/><circle cx="309.856" cy="188.285" r="7.5"/><circle cx="351.808" cy="188.285" r="7.5"/><circle cx="393.76" cy="188.285" r="7.5"/><circle cx="309.856" cy="322.357" r="7.5"/><circle cx="351.808" cy="322.357" r="7.5"/><circle cx="393.76" cy="322.357" r="7.5"/><circle cx="309.856" cy="456.43" r="7.5"/><circle cx="351.808" cy="456.43" r="7.5"/><circle cx="393.76" cy="456.43" r="7.5"/><path d="m439.278 108.426c7.478 0 13.562-6.084 13.562-13.562v-81.303c-.001-7.478-6.085-13.561-13.562-13.561h-124.938c-4.143 0-7.5 3.358-7.5 7.5s3.357 7.5 7.5 7.5h123.499v78.426h-219.414v-18.559c3.476-1.129 6.72-3.061 9.486-5.827 8.924-8.924 9.369-22.754 1.083-33.633-.408-.536-.886-1.014-1.422-1.422-10.879-8.285-24.709-7.841-33.634 1.083-8.924 8.924-9.37 22.754-1.083 33.634.408.536.886 1.014 1.422 1.422 2.89 2.201 5.99 3.763 9.148 4.736v18.565h-52.876v-18.553c9.583-3.158 16.522-12.19 16.522-22.817 0-13.246-10.776-24.022-24.022-24.022s-24.022 10.776-24.022 24.022c0 10.627 6.939 19.659 16.522 22.817v18.554h-65.064v-78.426h213.855c4.143 0 7.5-3.358 7.5-7.5s-3.357-7.5-7.5-7.5h-215.293c-7.478 0-13.562 6.083-13.562 13.561v81.302c0 7.478 6.084 13.562 13.562 13.562h16.958v24.83h-16.958c-7.478 0-13.562 6.084-13.562 13.562v81.302c0 7.478 6.084 13.561 13.562 13.561h16.958v24.831h-16.958c-7.478 0-13.562 6.083-13.562 13.561v81.302c0 7.478 6.084 13.562 13.562 13.562h16.958v24.96h-16.958c-7.478 0-13.562 6.084-13.562 13.562v81.302c0 7.478 6.084 13.561 13.562 13.561h169.25c4.142 0 7.5-3.358 7.5-7.5s-3.358-7.5-7.5-7.5h-167.812v-78.426h65.064v16.215c-9.583 3.158-16.522 12.19-16.522 22.817 0 13.246 10.776 24.022 24.022 24.022s24.022-10.776 24.022-24.022c0-10.627-6.939-19.658-16.522-22.816v-16.215h52.876v16.215c-9.583 3.158-16.522 12.19-16.522 22.817 0 13.246 10.776 24.022 24.022 24.022s24.022-10.776 24.022-24.022c0-10.627-6.939-19.658-16.522-22.816v-16.215h219.414v78.426h-169.543c-4.143 0-7.5 3.358-7.5 7.5s3.357 7.5 7.5 7.5h170.981c7.478 0 13.562-6.083 13.562-13.561v-81.302c0-7.478-6.084-13.562-13.562-13.562h-26.776v-24.96h26.776c7.478 0 13.562-6.084 13.562-13.562v-81.302c0-7.478-6.084-13.561-13.562-13.561h-26.776v-24.831h26.776c7.478 0 13.562-6.083 13.562-13.561v-81.302c0-7.478-6.084-13.562-13.562-13.562h-26.776v-24.83h26.777zm-234.733-62.751c2.713-2.714 7.526-4.141 13.112-.353 3.788 5.585 2.361 10.398-.352 13.111-1.5 1.5-3.643 2.601-6.202 2.652-.06-.001-.118-.009-.178-.009-.051 0-.101.007-.152.008-1.988-.032-4.214-.693-6.581-2.298-3.787-5.585-2.36-10.397.353-13.111zm-61.496-2.642c4.975 0 9.022 4.047 9.022 9.022s-4.047 9.022-9.022 9.022-9.022-4.047-9.022-9.022c-.001-4.975 4.047-9.022 9.022-9.022zm0 419.92c-4.975 0-9.022-4.047-9.022-9.022s4.047-9.022 9.022-9.022 9.022 4.047 9.022 9.022c0 4.974-4.048 9.022-9.022 9.022zm67.876 0c-4.975 0-9.022-4.047-9.022-9.022s4.047-9.022 9.022-9.022 9.022 4.047 9.022 9.022c0 4.974-4.047 9.022-9.022 9.022zm-7.5-354.527v24.83h-52.876v-24.83zm-102.42 0h34.544v24.83h-34.544zm0 291.472v-24.96h34.544v24.96zm49.544 0v-24.96h52.876v24.96zm246.952 0h-179.076v-24.96h179.076zm40.338-39.96h-219.414v-16.764c9.583-3.158 16.522-12.189 16.522-22.816 0-13.246-10.776-24.023-24.022-24.023s-24.022 10.776-24.022 24.023c0 10.627 6.939 19.659 16.522 22.817v16.763h-52.876v-16.764c9.583-3.158 16.522-12.189 16.522-22.816 0-13.246-10.776-24.023-24.022-24.023s-24.022 10.776-24.022 24.023c0 10.627 6.939 19.659 16.522 22.817v16.763h-65.064v-78.426h367.354zm-226.914-30.558c-4.975 0-9.022-4.047-9.022-9.022s4.047-9.023 9.022-9.023 9.022 4.047 9.022 9.023c0 4.974-4.047 9.022-9.022 9.022zm-67.876 0c-4.975 0-9.022-4.047-9.022-9.022s4.047-9.023 9.022-9.023 9.022 4.047 9.022 9.023c0 4.974-4.048 9.022-9.022 9.022zm254.452-62.868h-296.496v-24.831h296.497v24.831zm40.338-39.83h-367.354v-78.426h65.064v17.555c-9.583 3.158-16.522 12.189-16.522 22.816 0 13.246 10.776 24.022 24.022 24.022s24.022-10.776 24.022-24.022c0-10.627-6.939-19.658-16.522-22.816v-17.555h52.876v17.539c-3.477 1.129-6.718 3.078-9.486 5.845-8.924 8.924-9.37 22.755-1.083 33.634.408.536.886 1.014 1.422 1.422 5.199 3.959 11.069 5.925 16.758 5.925 6.216 0 12.215-2.348 16.875-7.008 8.924-8.924 9.37-22.754 1.084-33.633-.408-.536-.887-1.014-1.422-1.422-2.89-2.201-5.989-3.767-9.148-4.741v-17.561h219.414zm-294.79-47.077c4.975 0 9.022 4.047 9.022 9.022s-4.047 9.022-9.022 9.022-9.022-4.047-9.022-9.022c-.001-4.975 4.047-9.022 9.022-9.022zm61.496 2.642c1.499-1.499 3.64-2.6 6.196-2.651.062.001.122.009.184.009.053 0 .105-.007.158-.008 1.987.032 4.21.694 6.574 2.298 3.788 5.585 2.361 10.398-.352 13.111-2.714 2.714-7.528 4.139-13.111.353-3.789-5.586-2.362-10.398.351-13.112zm192.956-48.991h-179.076v-24.83h179.076z"/></g></g></svg>