<svg id="Capa_1" enable-background="new 0 0 512 512" height="512" viewBox="0 0 512 512" width="512" xmlns="http://www.w3.org/2000/svg"><g><g><g><path d="m441.115 288.925h-370.23c-3.348 0-6.062-2.714-6.062-6.062v-81.302c0-3.348 2.714-6.062 6.062-6.062h370.231c3.348 0 6.062 2.714 6.062 6.062v81.302c-.001 3.348-2.715 6.062-6.063 6.062z" fill="#e3e0e4"/></g></g><g><g><path d="m441.116 195.499h-30c3.348 0 6.062 2.714 6.062 6.062v81.302c0 3.348-2.714 6.061-6.062 6.061h30c3.348 0 6.062-2.714 6.062-6.061v-81.302c-.001-3.348-2.715-6.062-6.062-6.062z" fill="#d4cfd5"/></g></g><g><g><path d="m393.337 328.756h-284.492c-7.457 0-13.503-6.045-13.503-13.503v-26.328h311.497v26.328c0 7.457-6.045 13.503-13.502 13.503z" fill="#968d97"/></g></g><g><g><path d="m144.886 256.576c9.125 0 16.522-7.397 16.522-16.522s-7.397-16.523-16.522-16.523-16.522 7.398-16.522 16.523 7.397 16.522 16.522 16.522z" fill="#968d97"/></g></g><g><g><path d="m212.763 256.576c9.125 0 16.522-7.397 16.522-16.522s-7.397-16.523-16.522-16.523-16.522 7.398-16.522 16.523 7.397 16.522 16.522 16.522z" fill="#968d97"/></g></g><g><g><path d="m167.451 429.482h-102.759c-8.889 0-16.095-7.206-16.095-16.095 0-8.889 7.206-16.095 16.095-16.095h102.759c8.889 0 16.095 7.206 16.095 16.095.001 8.888-7.205 16.095-16.095 16.095z" fill="#bed9fd"/></g></g><g><g><path d="m447.308 429.482h-102.759c-8.889 0-16.095-7.206-16.095-16.095 0-8.889 7.206-16.095 16.095-16.095h102.759c8.889 0 16.095 7.206 16.095 16.095 0 8.888-7.206 16.095-16.095 16.095z" fill="#bed9fd"/></g></g><g><g><ellipse cx="256" cy="413.341" fill="#80b6fc" rx="17.05" ry="17.05" transform="matrix(.924 -.383 .383 .924 -138.692 129.431)"/></g></g><g><circle cx="311.694" cy="242.212" r="7.5"/><circle cx="353.646" cy="242.212" r="7.5"/><circle cx="395.598" cy="242.212" r="7.5"/><path d="m230.869 153.268c-2.891 2.967-2.828 7.715.139 10.605 1.458 1.421 3.346 2.128 5.232 2.128 1.952 0 3.903-.758 5.373-2.267 5.824-5.979 13.628-9.271 21.975-9.271 8.193 0 15.898 3.191 21.69 8.984 2.93 2.929 7.678 2.929 10.607 0s2.929-7.678 0-10.606c-8.627-8.627-20.098-13.378-32.298-13.378-12.427 0-24.046 4.903-32.718 13.805z"/><path d="m319.989 139.344c2.929-2.929 2.929-7.678 0-10.606-15.065-15.065-35.096-23.362-56.401-23.362-21.807 0-42.168 8.633-57.334 24.31-2.88 2.977-2.801 7.725.176 10.605 1.456 1.409 3.336 2.11 5.214 2.11 1.961 0 3.92-.765 5.392-2.285 12.314-12.729 28.847-19.739 46.553-19.739 17.299 0 33.563 6.737 45.794 18.969 2.928 2.927 7.677 2.927 10.606-.002z"/><path d="m194.482 118.459c18.267-18.927 42.809-29.35 69.105-29.35 26.299 0 50.842 10.424 69.108 29.353 1.472 1.525 3.433 2.292 5.398 2.292 1.874 0 3.752-.699 5.207-2.103 2.98-2.877 3.065-7.625.188-10.605-21.118-21.885-49.495-33.937-79.901-33.937-30.404 0-58.78 12.051-79.898 33.933-2.877 2.98-2.792 7.729.188 10.605 2.979 2.876 7.728 2.792 10.605-.188z"/><path d="m504.5 405.841h-34.841c-3.155-9.32-11.979-16.05-22.351-16.05h-102.759c-10.372 0-19.196 6.73-22.351 16.05h-42.824c-2.417-7.514-8.36-13.457-15.874-15.874v-53.711h129.837c11.58 0 21.002-9.422 21.002-21.003v-18.828h26.776c7.478 0 13.562-6.083 13.562-13.561v-81.302c0-7.478-6.084-13.562-13.562-13.562h-137.064c-4.143 0-7.5 3.358-7.5 7.5s3.357 7.5 7.5 7.5h135.626v78.426h-219.414v-18.554c9.583-3.158 16.523-12.189 16.523-22.817 0-13.246-10.776-24.022-24.023-24.022-13.246 0-24.022 10.776-24.022 24.022 0 10.627 6.939 19.659 16.522 22.817v18.554h-52.876v-18.554c9.582-3.158 16.521-12.19 16.521-22.817 0-13.246-10.776-24.022-24.021-24.022-13.246 0-24.022 10.776-24.022 24.022 0 10.627 6.939 19.659 16.522 22.817v18.554h-65.064v-78.426h201.728c4.143 0 7.5-3.358 7.5-7.5s-3.357-7.5-7.5-7.5h-203.166c-7.478 0-13.562 6.084-13.562 13.562v81.302c0 7.478 6.084 13.561 13.562 13.561h16.958v18.828c0 11.581 9.422 21.003 21.002 21.003h139.655v53.711c-7.514 2.417-13.457 8.361-15.874 15.874h-42.824c-3.155-9.32-11.979-16.05-22.351-16.05h-102.759c-10.372 0-19.196 6.73-22.351 16.05h-34.841c-4.143 0-7.5 3.358-7.5 7.5s3.357 7.5 7.5 7.5h34.811c3.128 9.367 11.976 16.141 22.382 16.141h102.759c10.406 0 19.253-6.773 22.382-16.141h42.793c3.177 9.879 12.452 17.05 23.374 17.05s20.197-7.171 23.374-17.05h42.793c3.128 9.367 11.976 16.141 22.382 16.141h102.759c10.406 0 19.253-6.773 22.382-16.141h34.81c4.143 0 7.5-3.358 7.5-7.5-.001-4.142-3.358-7.5-7.501-7.5zm-291.737-174.809c4.975 0 9.023 4.047 9.023 9.022s-4.048 9.023-9.023 9.023-9.022-4.047-9.022-9.023c-.001-4.974 4.047-9.022 9.022-9.022zm-67.876 0c4.975 0 9.021 4.047 9.021 9.022s-4.047 9.023-9.021 9.023c-4.975 0-9.022-4.047-9.022-9.023-.001-4.974 4.047-9.022 9.022-9.022zm-42.044 84.221v-18.828h296.496v18.828c0 3.31-2.692 6.003-6.002 6.003h-284.492c-3.31-.001-6.002-2.693-6.002-6.003zm64.608 106.728h-102.759c-4.739 0-8.596-3.856-8.596-8.595 0-4.74 3.856-8.596 8.596-8.596h102.759c4.739 0 8.596 3.856 8.596 8.596 0 4.739-3.857 8.595-8.596 8.595zm88.549.91c-5.266 0-9.55-4.284-9.55-9.55s4.284-9.55 9.55-9.55 9.55 4.284 9.55 9.55-4.284 9.55-9.55 9.55zm191.308-.91h-102.759c-4.739 0-8.596-3.856-8.596-8.595 0-4.74 3.857-8.596 8.596-8.596h102.759c4.739 0 8.596 3.856 8.596 8.596-.001 4.739-3.857 8.595-8.596 8.595z"/></g></g></svg>