<svg id="Capa_1" enable-background="new 0 0 510.137 510.137" height="512" viewBox="0 0 510.137 510.137" width="512" xmlns="http://www.w3.org/2000/svg"><g><g><g><path d="m436.037 345.78v34.688c0 11.814-9.577 21.391-21.392 21.391h-319.153c-11.814 0-21.391-9.577-21.391-21.391v-34.688c0-7.618-6.176-13.794-13.794-13.794h-13.509c-7.618 0-13.794 6.176-13.794 13.794v46.079 76.615 4.576c0 16.34 13.246 29.586 29.586 29.586h384.957c16.34 0 29.586-13.246 29.586-29.586v-4.576-76.615-46.079c0-7.618-6.176-13.794-13.794-13.794h-13.508c-7.618 0-13.794 6.175-13.794 13.794z" fill="#f2d1a5"/></g></g><g><g><path d="m463.339 331.986h-13.509c-3.096 0-5.944 1.033-8.246 2.755 3.362 2.516 5.548 6.517 5.548 11.039v46.079 76.615 4.576c0 16.34-13.246 29.586-29.586 29.586h30c16.34 0 29.586-13.246 29.586-29.586v-4.576-76.615-46.079c.001-7.619-6.175-13.794-13.793-13.794z" fill="#e3b284"/></g></g><g><g><path d="m356.237 326.986h-208.273c-11.853 0-21.463-9.609-21.463-21.463v-116.101c0-8.942 7.249-16.19 16.19-16.19h218.819c8.942 0 16.19 7.249 16.19 16.19v116.101c0 11.853-9.609 21.463-21.463 21.463z" fill="#faf0b0"/></g></g><g><g><path d="m361.51 173.232h-30c8.942 0 16.19 7.249 16.19 16.19v116.101c0 11.853-9.609 21.463-21.462 21.463h30c11.853 0 21.462-9.609 21.462-21.463v-116.101c0-8.941-7.249-16.19-16.19-16.19z" fill="#f8e883"/></g></g><g><g><path d="m296.548 469.745h-82.959c-9.952 0-18.021-8.068-18.021-18.021 0-9.953 8.068-18.021 18.021-18.021h82.959c9.953 0 18.021 8.068 18.021 18.021 0 9.953-8.068 18.021-18.021 18.021z" fill="#e3a76f"/></g></g><g><path d="m147.964 334.486h31.686c4.143 0 7.5-3.358 7.5-7.5s-3.357-7.5-7.5-7.5h-31.686c-7.699 0-13.963-6.264-13.963-13.963v-111.15l97.026 83.833c6.007 5.19 13.54 7.785 21.073 7.785s15.066-2.595 21.073-7.785l97.026-83.833v111.15c0 7.699-6.264 13.963-13.963 13.963h-146.587c-4.143 0-7.5 3.358-7.5 7.5s3.357 7.5 7.5 7.5h146.588c15.97 0 28.963-12.993 28.963-28.963v-116.101c0-13.063-10.628-23.691-23.69-23.691h-218.819c-13.063 0-23.69 10.628-23.69 23.691v116.101c0 15.97 12.993 28.963 28.963 28.963zm213.546-153.754c.475 0 .938.049 1.393.122l-99.536 86.001c-6.423 5.55-16.11 5.549-22.533 0l-99.536-86.001c.454-.074.918-.122 1.393-.122z"/><path d="m463.339 324.486h-13.508c-11.741 0-21.294 9.553-21.294 21.294v34.688c0 7.66-6.231 13.892-13.892 13.892h-319.153c-7.66 0-13.892-6.232-13.892-13.892v-34.688c0-11.742-9.553-21.294-21.294-21.294h-13.508c-11.741 0-21.294 9.553-21.294 21.294v127.27c0 20.449 16.637 37.086 37.087 37.086h94.244c4.143 0 7.5-3.358 7.5-7.5s-3.357-7.5-7.5-7.5h-94.244c-12.179 0-22.087-9.908-22.087-22.086v-127.27c0-3.471 2.823-6.294 6.294-6.294h13.509c3.471 0 6.294 2.824 6.294 6.294v34.688c0 15.931 12.961 28.892 28.892 28.892h319.153c15.931 0 28.892-12.961 28.892-28.892v-34.688c0-3.471 2.823-6.294 6.294-6.294h13.508c3.471 0 6.294 2.824 6.294 6.294v127.27c0 12.178-9.907 22.086-22.086 22.086h-260.713c-4.143 0-7.5 3.358-7.5 7.5s3.357 7.5 7.5 7.5h260.712c20.449 0 37.086-16.637 37.086-37.086v-127.27c0-11.742-9.553-21.294-21.294-21.294z"/><path d="m296.548 477.245c14.072 0 25.521-11.449 25.521-25.521s-11.448-25.521-25.521-25.521h-82.958c-14.072 0-25.521 11.449-25.521 25.521s11.449 25.521 25.521 25.521zm-93.48-25.52c0-5.801 4.72-10.521 10.521-10.521h82.958c5.801 0 10.521 4.72 10.521 10.521s-4.72 10.521-10.521 10.521h-82.957c-5.802-.001-10.522-4.72-10.522-10.521z"/><path d="m242.066 123.287c4.143 0 7.5-3.358 7.5-7.5v-108.287c0-4.142-3.357-7.5-7.5-7.5s-7.5 3.358-7.5 7.5v108.287c0 4.142 3.358 7.5 7.5 7.5z"/><path d="m281.376 123.287c4.143 0 7.5-3.358 7.5-7.5v-108.287c0-4.142-3.357-7.5-7.5-7.5s-7.5 3.358-7.5 7.5v108.287c0 4.142 3.357 7.5 7.5 7.5z"/></g></g></svg>