<svg id="Capa_1" enable-background="new 0 0 512 512" height="512" viewBox="0 0 512 512" width="512" xmlns="http://www.w3.org/2000/svg"><g><g><g><path d="m461.806 104.655h21.937c11.464 0 20.757 9.293 20.757 20.757v325.613c0 11.464-9.293 20.757-20.757 20.757h-455.486c-11.464 0-20.757-9.293-20.757-20.757v-325.613c0-11.464 9.293-20.757 20.757-20.757h263.839" fill="#fdfcfc"/></g></g><g><g><path d="m483.743 104.654h-21.937-8.063c11.464 0 20.757 9.294 20.757 20.757v325.613c0 11.464-9.293 20.757-20.757 20.757h30c11.464 0 20.757-9.293 20.757-20.757v-325.612c0-11.464-9.293-20.758-20.757-20.758z" fill="#f1f1f1"/></g></g><g><g><circle cx="376.898" cy="123.287" fill="#92e0c4" r="83.068"/></g></g><g><g><path d="m376.898 40.218c-5.125 0-10.132.488-15 1.376 38.713 7.064 68.068 40.939 68.068 81.692s-29.355 74.627-68.068 81.692c4.868.889 9.875 1.377 15 1.377 45.878 0 83.068-37.191 83.068-83.069s-37.19-83.068-83.068-83.068z" fill="#77d1b3"/></g></g><g><g><path d="m427.125 123.073c-.116-27.635-22.542-50.004-50.201-50.018v50.018z" fill="#fdfcfc"/></g></g><g><g><path d="m265.063 269.145h-197.061c-5.36 0-9.705-4.345-9.705-9.705v-17.588c0-5.36 4.345-9.705 9.705-9.705h197.06c5.36 0 9.705 4.345 9.705 9.705v17.588c.001 5.36-4.344 9.705-9.704 9.705z" fill="#faf0b0"/></g></g><g><g><path d="m185.063 423.297h-117.061c-5.36 0-9.705-4.345-9.705-9.705v-17.588c0-5.36 4.345-9.705 9.705-9.705h117.06c5.36 0 9.705 4.345 9.705 9.705v17.588c.001 5.36-4.344 9.705-9.704 9.705z" fill="#77d1b3"/></g></g><g><g><path d="m185.063 192.876h-117.061c-5.36 0-9.705-4.345-9.705-9.705v-17.588c0-5.36 4.345-9.705 9.705-9.705h117.06c5.36 0 9.705 4.345 9.705 9.705v17.588c.001 5.36-4.344 9.705-9.704 9.705z" fill="#bed9fd"/></g></g><g><g><path d="m434.193 423.297h-187.06c-5.36 0-9.705-4.345-9.705-9.705v-17.588c0-5.36 4.345-9.705 9.705-9.705h187.06c5.36 0 9.705 4.345 9.705 9.705v17.588c0 5.36-4.345 9.705-9.705 9.705z" fill="#faf0b0"/></g></g><g><g><path d="m135.063 347.721h-67.06c-5.36 0-9.705-4.345-9.705-9.705v-17.588c0-5.36 4.345-9.705 9.705-9.705h67.06c5.36 0 9.705 4.345 9.705 9.705v17.588c0 5.36-4.345 9.705-9.705 9.705z" fill="#e27f86"/></g></g><g><g><path d="m435.063 347.721h-237.06c-5.36 0-9.705-4.345-9.705-9.705v-17.588c0-5.36 4.345-9.705 9.705-9.705h237.06c5.36 0 9.705 4.345 9.705 9.705v17.588c0 5.36-4.345 9.705-9.705 9.705z" fill="#e27f86"/></g></g><g><path d="m384.424 115.573v-42.517c0-4.142-3.357-7.5-7.5-7.5-4.142 0-7.5 3.358-7.5 7.5v50.017c0 4.142 3.358 7.5 7.5 7.5h50.201c4.143 0 7.5-3.358 7.5-7.5s-3.357-7.5-7.5-7.5z"/><path d="m209.888 464.282h-181.63c-7.31 0-13.258-5.947-13.258-13.257v-325.613c0-7.31 5.947-13.257 13.258-13.257h76.404c4.143 0 7.5-3.358 7.5-7.5s-3.357-7.5-7.5-7.5h-76.404c-15.581-.001-28.258 12.676-28.258 28.257v325.613c0 15.581 12.677 28.257 28.258 28.257h181.63c4.143 0 7.5-3.358 7.5-7.5s-3.358-7.5-7.5-7.5z"/><path d="m483.743 97.154h-20.125c-11.243-37.239-45.862-64.436-86.719-64.436s-75.476 27.197-86.719 64.436h-155.518c-4.143 0-7.5 3.358-7.5 7.5s3.357 7.5 7.5 7.5h152.353c-.449 3.649-.685 7.364-.685 11.132 0 49.94 40.629 90.569 90.568 90.569s90.568-40.629 90.568-90.569c0-3.769-.235-7.483-.685-11.132h16.961c7.31 0 13.257 5.947 13.257 13.257v325.613c0 7.31-5.947 13.257-13.257 13.257h-243.854c-4.143 0-7.5 3.358-7.5 7.5s3.357 7.5 7.5 7.5h243.855c15.581 0 28.257-12.676 28.257-28.257v-325.612c0-15.581-12.676-28.258-28.257-28.258zm-106.845 101.701c-41.669 0-75.568-33.9-75.568-75.569 0-41.668 33.899-75.568 75.568-75.568s75.568 33.9 75.568 75.568c.001 41.67-33.899 75.569-75.568 75.569z"/><path d="m265.063 224.646h-197.061c-9.487 0-17.205 7.718-17.205 17.205v17.588c0 9.487 7.718 17.205 17.205 17.205h197.061c9.487 0 17.205-7.718 17.205-17.205v-17.588c0-9.486-7.718-17.205-17.205-17.205zm2.205 34.794c0 1.216-.989 2.205-2.205 2.205h-197.061c-1.216 0-2.205-.989-2.205-2.205v-17.588c0-1.216.989-2.205 2.205-2.205h197.061c1.216 0 2.205.989 2.205 2.205z"/><path d="m50.797 413.591c0 9.487 7.718 17.206 17.205 17.206h117.061c9.487 0 17.205-7.718 17.205-17.206v-17.588c0-9.487-7.718-17.205-17.205-17.205h-117.061c-9.487 0-17.205 7.718-17.205 17.205zm15-17.588c0-1.216.989-2.205 2.205-2.205h117.061c1.216 0 2.205.989 2.205 2.205v17.588c0 1.216-.989 2.206-2.205 2.206h-117.061c-1.216 0-2.205-.989-2.205-2.206z"/><path d="m185.063 148.378h-117.061c-9.487 0-17.205 7.718-17.205 17.206v17.587c0 9.487 7.718 17.206 17.205 17.206h117.061c9.487 0 17.205-7.718 17.205-17.206v-17.587c0-9.488-7.718-17.206-17.205-17.206zm2.205 34.793c0 1.216-.989 2.206-2.205 2.206h-117.061c-1.216 0-2.205-.989-2.205-2.206v-17.587c0-1.216.989-2.206 2.205-2.206h117.061c1.216 0 2.205.989 2.205 2.206z"/><path d="m247.133 430.797h187.061c9.487 0 17.205-7.718 17.205-17.206v-17.588c0-9.487-7.718-17.205-17.205-17.205h-187.061c-9.487 0-17.205 7.718-17.205 17.205v17.588c0 9.488 7.717 17.206 17.205 17.206zm-2.205-34.794c0-1.216.989-2.205 2.205-2.205h187.061c1.216 0 2.205.989 2.205 2.205v17.588c0 1.216-.989 2.206-2.205 2.206h-187.061c-1.216 0-2.205-.989-2.205-2.206z"/><path d="m68.002 355.221h67.061c9.487 0 17.205-7.718 17.205-17.205v-17.588c0-9.487-7.718-17.206-17.205-17.206h-67.061c-9.487 0-17.205 7.718-17.205 17.206v17.588c0 9.486 7.718 17.205 17.205 17.205zm-2.205-34.793c0-1.216.989-2.206 2.205-2.206h67.061c1.216 0 2.205.989 2.205 2.206v17.588c0 1.216-.989 2.205-2.205 2.205h-67.061c-1.216 0-2.205-.989-2.205-2.205z"/><path d="m452.268 338.016v-17.588c0-9.487-7.718-17.206-17.205-17.206h-237.061c-9.487 0-17.205 7.718-17.205 17.206v17.588c0 9.487 7.718 17.205 17.205 17.205h237.061c9.487 0 17.205-7.719 17.205-17.205zm-256.471 0v-17.588c0-1.216.989-2.206 2.205-2.206h237.061c1.216 0 2.205.989 2.205 2.206v17.588c0 1.216-.989 2.205-2.205 2.205h-237.061c-1.216 0-2.205-.99-2.205-2.205z"/></g></g></svg>