<svg id="Capa_1" enable-background="new 0 0 512 512" height="512" viewBox="0 0 512 512" width="512" xmlns="http://www.w3.org/2000/svg"><g><g><g><path d="m481.854 420.367h-451.708c-12.507 0-22.646-10.139-22.646-22.646v-259.947h474.354c12.507 0 22.646 10.139 22.646 22.646v237.301c0 12.507-10.139 22.646-22.646 22.646z" fill="#92e0c4"/></g></g><g><g><path d="m240.524 91.633h-213.261c-10.915 0-19.763 8.848-19.763 19.763v26.378h252.786v-26.378c.001-10.915-8.847-19.763-19.762-19.763z" fill="#77d1b3"/></g></g><g><g><path d="m481.854 137.774h-30c12.507 0 22.646 10.139 22.646 22.646v237.301c0 12.507-10.139 22.646-22.646 22.646h30c12.507 0 22.646-10.139 22.646-22.646v-237.301c0-12.507-10.139-22.646-22.646-22.646z" fill="#77d1b3"/></g></g><g><g><path d="m240.524 91.633h-30c10.915 0 19.763 8.848 19.763 19.763v26.378h30v-26.378c0-10.915-8.848-19.763-19.763-19.763z" fill="#67b59f"/></g></g><g><g><path d="m341.293 298.304h-170.585c-8.688 0-15.731-7.043-15.731-15.731v-55.005c0-8.688 7.043-15.731 15.731-15.731h170.585c8.688 0 15.731 7.043 15.731 15.731v55.005c0 8.688-7.043 15.731-15.731 15.731z" fill="#fdfcfc"/></g></g><g><g><path d="m341.293 211.837h-30c8.688 0 15.731 7.043 15.731 15.731v55.005c0 8.688-7.043 15.731-15.731 15.731h30c8.688 0 15.731-7.043 15.731-15.731v-55.005c0-8.688-7.043-15.731-15.731-15.731z" fill="#f1f1f1"/></g></g><g><path d="m364.524 227.568c0-12.81-10.422-23.231-23.231-23.231h-170.585c-12.81 0-23.231 10.421-23.231 23.231v55.005c0 12.81 10.422 23.231 23.231 23.231h170.585c12.81 0 23.231-10.421 23.231-23.231zm-15 55.005c0 4.539-3.692 8.231-8.231 8.231h-170.585c-4.539 0-8.231-3.693-8.231-8.231v-55.005c0-4.539 3.692-8.231 8.231-8.231h170.585c4.539 0 8.231 3.693 8.231 8.231z"/><path d="m154.977 331.571c-4.143 0-7.5 3.358-7.5 7.5s3.357 7.5 7.5 7.5h202.048c4.143 0 7.5-3.358 7.5-7.5s-3.357-7.5-7.5-7.5z"/><path d="m97.054 412.867h-66.908c-8.352 0-15.146-6.794-15.146-15.146v-252.447h301.074c4.143 0 7.5-3.358 7.5-7.5s-3.357-7.5-7.5-7.5h-48.287v-18.878c0-15.033-12.231-27.263-27.264-27.263h-213.259c-15.033 0-27.264 12.23-27.264 27.263v286.325c0 16.622 13.523 30.146 30.146 30.146h66.907c4.143 0 7.5-3.358 7.5-7.5.001-4.142-3.357-7.5-7.499-7.5zm-69.79-313.734h213.26c6.763 0 12.264 5.501 12.264 12.263v18.878h-237.788v-18.878c0-6.762 5.501-12.263 12.264-12.263z"/><path d="m481.854 130.274h-135.78c-4.143 0-7.5 3.358-7.5 7.5s3.357 7.5 7.5 7.5h135.78c8.352 0 15.146 6.794 15.146 15.146v237.301c0 8.352-6.794 15.146-15.146 15.146h-354.8c-4.143 0-7.5 3.358-7.5 7.5s3.357 7.5 7.5 7.5h354.801c16.622 0 30.146-13.523 30.146-30.146v-237.301c-.001-16.622-13.524-30.146-30.147-30.146z"/></g></g></svg>