<svg id="Capa_1" enable-background="new 0 0 513.134 513.134" height="512" viewBox="0 0 513.134 513.134" width="512" xmlns="http://www.w3.org/2000/svg"><g><g><g><path d="m128.156 36.769h-99.012c-11.954 0-21.644 9.69-21.644 21.644v10.149h142.301v-10.149c0-11.954-9.691-21.644-21.645-21.644z" fill="#92e0c4"/></g></g><g><g><path d="m202.085 197.765h-171.939c-12.507 0-22.646-10.139-22.646-22.646v-106.557h194.585c12.507 0 22.646 10.139 22.646 22.646v83.911c0 12.507-10.139 22.646-22.646 22.646z" fill="#92e0c4"/></g></g><g><g><path d="m409.059 36.769h-99.012c-11.954 0-21.644 9.69-21.644 21.644v10.149h142.301v-10.149c-.001-11.954-9.691-21.644-21.645-21.644z" fill="#92e0c4"/></g></g><g><g><path d="m482.988 197.765h-171.94c-12.507 0-22.646-10.139-22.646-22.646v-106.557h194.585c12.507 0 22.646 10.139 22.646 22.646v83.911c.001 12.507-10.138 22.646-22.645 22.646z" fill="#92e0c4"/></g></g><g><g><path d="m406.059 315.369h-99.012c-11.954 0-21.644 9.69-21.644 21.644v10.149h142.301v-10.149c-.001-11.954-9.691-21.644-21.645-21.644z" fill="#92e0c4"/></g></g><g><g><path d="m479.988 476.365h-171.94c-12.507 0-22.646-10.139-22.646-22.646v-106.557h194.585c12.507 0 22.646 10.139 22.646 22.646v83.911c.001 12.507-10.138 22.646-22.645 22.646z" fill="#92e0c4"/></g></g><g><g><path d="m128.156 36.769h-30c11.954 0 21.644 9.69 21.644 21.644v10.149h30v-10.149c.001-11.954-9.69-21.644-21.644-21.644z" fill="#77d1b3"/></g></g><g><g><path d="m202.085 68.562h-30c12.507 0 22.646 10.139 22.646 22.646v83.911c0 12.507-10.139 22.646-22.646 22.646h30c12.507 0 22.646-10.139 22.646-22.646v-83.911c0-12.507-10.139-22.646-22.646-22.646z" fill="#77d1b3"/></g></g><g><g><path d="m409.059 36.769h-30c11.954 0 21.644 9.69 21.644 21.644v10.149h30v-10.149c0-11.954-9.69-21.644-21.644-21.644z" fill="#77d1b3"/></g></g><g><g><path d="m482.988 68.562h-30c12.507 0 22.646 10.139 22.646 22.646v83.911c0 12.507-10.139 22.646-22.646 22.646h30c12.507 0 22.646-10.139 22.646-22.646v-83.911c0-12.507-10.139-22.646-22.646-22.646z" fill="#77d1b3"/></g></g><g><g><path d="m406.059 315.369h-30c11.954 0 21.644 9.69 21.644 21.644v10.149h30v-10.149c0-11.954-9.69-21.644-21.644-21.644z" fill="#77d1b3"/></g></g><g><g><path d="m479.988 347.162h-30c12.507 0 22.646 10.139 22.646 22.646v83.911c0 12.507-10.139 22.646-22.646 22.646h30c12.507 0 22.646-10.139 22.646-22.646v-83.911c0-12.507-10.139-22.646-22.646-22.646z" fill="#77d1b3"/></g></g><g><g><path d="m143.963 151.473h-67.695c-4.936 0-8.937-4.001-8.937-8.937v-18.746c0-4.936 4.001-8.937 8.937-8.937h67.695c4.936 0 8.937 4.001 8.937 8.937v18.746c-.001 4.936-4.002 8.937-8.937 8.937z" fill="#fdfcfc"/></g></g><g><g><path d="m424.865 151.473h-67.695c-4.935 0-8.937-4.001-8.937-8.937v-18.746c0-4.936 4.001-8.937 8.937-8.937h67.695c4.935 0 8.937 4.001 8.937 8.937v18.746c0 4.936-4.001 8.937-8.937 8.937z" fill="#fdfcfc"/></g></g><g><g><path d="m421.865 430.073h-67.695c-4.935 0-8.937-4.001-8.937-8.937v-18.746c0-4.936 4.001-8.937 8.937-8.937h67.695c4.935 0 8.937 4.001 8.937 8.937v18.746c0 4.936-4.001 8.937-8.937 8.937z" fill="#fdfcfc"/></g></g><g><g><ellipse cx="203.521" cy="253.17" fill="#f8e883" rx="17.129" ry="17.129" transform="matrix(.161 -.987 .987 .161 -79.12 413.263)"/></g></g><g><g><ellipse cx="114.115" cy="253.17" fill="#f8e883" rx="17.129" ry="17.129" transform="matrix(.153 -.988 .988 .153 -153.539 327.186)"/></g></g><g><g><ellipse cx="394.424" cy="253.17" fill="#f8e883" rx="17.129" ry="17.129" transform="matrix(.204 -.979 .979 .204 66.056 587.594)"/></g></g><g><g><circle cx="203.521" cy="412.996" fill="#f8e883" r="17.129"/></g></g><g><path d="m143.962 158.973c9.063 0 16.437-7.374 16.437-16.437v-18.746c0-9.063-7.374-16.437-16.437-16.437h-67.694c-9.063 0-16.437 7.374-16.437 16.437v18.746c0 9.063 7.374 16.437 16.437 16.437zm-69.131-16.437v-18.746c0-.792.645-1.437 1.437-1.437h67.694c.792 0 1.437.645 1.437 1.437v18.746c0 .792-.645 1.437-1.437 1.437h-67.694c-.792 0-1.437-.645-1.437-1.437z"/><path d="m482.987 205.265c16.623 0 30.146-13.523 30.146-30.146v-83.911c0-16.622-13.523-30.146-30.146-30.146h-44.784v-2.649c0-16.07-13.074-29.144-29.144-29.144h-99.012c-16.07 0-29.145 13.074-29.145 29.144v116.706c0 16.623 13.523 30.146 30.146 30.146h78.47v23.768c-8.06 1.636-14.702 7.219-17.815 14.637h-145.461c-3.726-8.878-12.506-15.129-22.721-15.129s-18.995 6.252-22.721 15.129h-43.963c-3.048-7.262-9.481-12.761-17.313-14.524v-23.881h82.562c16.622 0 30.146-13.523 30.146-30.146v-83.911c0-16.622-13.523-30.146-30.146-30.146h-44.784v-2.649c0-16.07-13.074-29.144-29.145-29.144h-99.013c-16.07 0-29.144 13.074-29.144 29.144v56.257c0 4.142 3.358 7.5 7.5 7.5s7.5-3.358 7.5-7.5v-38.608h187.085c8.352 0 15.146 6.794 15.146 15.146v83.911c0 8.352-6.794 15.146-15.146 15.146h-171.939c-8.351 0-15.146-6.794-15.146-15.146v-30.449c0-4.142-3.358-7.5-7.5-7.5s-7.5 3.358-7.5 7.5v30.449c0 16.623 13.523 30.146 30.146 30.146h74.378v25.221c-8.829 3.747-15.037 12.504-15.037 22.684 0 13.58 11.048 24.629 24.629 24.629 11.69 0 21.496-8.189 24.003-19.129h41.401c1.946 8.493 8.29 15.325 16.502 17.957v112.912c-9.924 3.18-17.129 12.492-17.129 23.458 0 13.581 11.048 24.629 24.629 24.629 10.966 0 20.277-7.205 23.458-17.129h50.924v33.223c0 16.622 13.523 30.146 30.146 30.146h10.186c4.142 0 7.5-3.358 7.5-7.5s-3.358-7.5-7.5-7.5h-10.186c-8.352 0-15.146-6.794-15.146-15.146v-99.057h187.085c8.352 0 15.147 6.794 15.147 15.146v83.911c0 8.352-6.794 15.146-15.147 15.146h-131.755c-4.142 0-7.5 3.358-7.5 7.5s3.358 7.5 7.5 7.5h131.753c16.623 0 30.147-13.523 30.147-30.146v-83.911c0-16.623-13.523-30.146-30.147-30.146h-44.784v-2.649c0-16.07-13.074-29.144-29.144-29.144h-99.012c-16.07 0-29.145 13.074-29.145 29.144v68.483h-50.924c-2.422-7.558-8.4-13.536-15.958-15.958v-112.912c8.213-2.632 14.557-9.464 16.503-17.957h142.899c2.506 10.94 12.313 19.129 24.002 19.129 13.581 0 24.629-11.049 24.629-24.629 0-9.985-5.976-18.594-14.536-22.457v-25.448zm-453.843-160.996h99.012c7.799 0 14.145 6.345 14.145 14.144v2.649h-127.301v-2.649c0-7.799 6.345-14.144 14.144-14.144zm277.903 278.6h99.012c7.799 0 14.144 6.345 14.144 14.144v2.649h-127.301v-2.649c0-7.799 6.346-14.144 14.145-14.144zm-192.932-60.071c-5.31 0-9.629-4.32-9.629-9.629 0-5.31 4.319-9.629 9.629-9.629s9.629 4.32 9.629 9.629c.001 5.31-4.319 9.629-9.629 9.629zm89.405 159.827c-5.31 0-9.629-4.32-9.629-9.629 0-5.31 4.319-9.629 9.629-9.629s9.629 4.32 9.629 9.629c.001 5.31-4.319 9.629-9.629 9.629zm0-159.827c-5.31 0-9.629-4.32-9.629-9.629 0-5.31 4.319-9.629 9.629-9.629s9.629 4.32 9.629 9.629c.001 5.31-4.319 9.629-9.629 9.629zm190.904 0c-5.31 0-9.629-4.32-9.629-9.629 0-5.31 4.319-9.629 9.629-9.629s9.629 4.32 9.629 9.629c.001 5.31-4.319 9.629-9.629 9.629zm-84.377-218.529h99.012c7.799 0 14.144 6.345 14.144 14.144v2.649h-127.301v-2.649c0-7.799 6.346-14.144 14.145-14.144zm-14.145 130.85v-99.057h187.085c8.352 0 15.147 6.794 15.147 15.146v83.911c0 8.352-6.794 15.146-15.147 15.146h-171.939c-8.351 0-15.146-6.795-15.146-15.146z"/><path d="m424.865 107.354h-67.694c-9.063 0-16.437 7.374-16.437 16.437v18.746c0 9.063 7.374 16.437 16.437 16.437h67.694c9.063 0 16.437-7.374 16.437-16.437v-18.747c0-9.063-7.374-16.436-16.437-16.436zm1.437 35.182c0 .792-.645 1.437-1.437 1.437h-67.694c-.792 0-1.437-.645-1.437-1.437v-18.746c0-.792.645-1.437 1.437-1.437h67.694c.792 0 1.437.645 1.437 1.437z"/><path d="m354.171 437.573h67.694c9.063 0 16.437-7.374 16.437-16.437v-18.746c0-9.063-7.374-16.437-16.437-16.437h-67.694c-9.063 0-16.437 7.374-16.437 16.437v18.746c0 9.064 7.373 16.437 16.437 16.437zm-1.437-35.182c0-.792.645-1.437 1.437-1.437h67.694c.792 0 1.437.645 1.437 1.437v18.746c0 .792-.645 1.437-1.437 1.437h-67.694c-.792 0-1.437-.645-1.437-1.437z"/></g></g></svg>