<svg id="Capa_1" enable-background="new 0 0 509.753 509.753" height="512" viewBox="0 0 509.753 509.753" width="512" xmlns="http://www.w3.org/2000/svg"><g><g><g><path d="m133.409 101.93 115.579-86.046c3.495-2.602 8.282-2.602 11.777 0l237.517 176.828c3.102 2.31 4.568 6.22 3.748 9.999l-31.887 285.366c-.983 4.535-4.996 7.771-9.637 7.771h-411.26c-4.64 0-8.653-3.236-9.637-7.771l-31.887-285.366c-.82-3.78.646-7.69 3.748-9.999z" fill="#bed9fd"/></g></g><g><g><path d="m498.282 192.711-237.517-176.828c-3.495-2.602-8.282-2.602-11.777 0l-10.455 7.784 229.749 171.045c3.102 2.31 4.568 6.22 3.748 9.999l-31.887 285.366c-.515 2.374-1.865 4.386-3.697 5.771h24.06c4.64 0 8.653-3.236 9.636-7.771l31.887-285.366c.821-3.78-.645-7.69-3.747-10z" fill="#9ec8fc"/></g></g><g><g><path d="m78.046 453.847-26.65-238.498 203.48-151.488 203.48 151.488-26.649 238.498z" fill="#fdfcfc"/></g></g><g><g><path d="m254.876 63.861-18.358 13.667 183.788 136.827c4.986 3.712 7.626 9.791 6.936 15.968l-24.976 223.524h29.441l26.649-238.498z" fill="#f1f1f1"/></g></g><g><g><ellipse cx="254.876" cy="371.578" fill="#9ec8fc" rx="21.775" ry="21.775" transform="matrix(.924 -.383 .383 .924 -122.796 125.821)"/></g></g><g><path d="m502.76 186.695-237.517-176.827c-6.2-4.617-14.533-4.617-20.733 0l-117.674 87.606c-3.323 2.473-4.011 7.172-1.538 10.495 2.473 3.322 7.172 4.01 10.495 1.537l117.673-87.606c.83-.617 1.989-.618 2.819 0l237.518 176.828c.74.551 1.093 1.491.897 2.393-.055.25-.096.503-.125.758l-31.828 284.851c-.316.95-1.222 1.617-2.24 1.617h-297.098c-4.142 0-7.5 3.358-7.5 7.5s3.358 7.5 7.5 7.5h297.097c8.112 0 15.247-5.754 16.967-13.681.054-.25.095-.502.123-.757l31.851-285.038c1.24-6.505-1.355-13.206-6.687-17.176z"/><path d="m133.409 488.347h-84.163c-1.018 0-1.924-.667-2.241-1.617l-31.83-284.852c-.028-.254-.07-.507-.124-.757-.196-.903.157-1.842.897-2.394l96.5-71.843c3.323-2.473 4.011-7.172 1.538-10.495-2.475-3.323-7.174-4.01-10.495-1.537l-96.5 71.844c-5.331 3.969-7.925 10.671-6.686 17.176l31.851 285.038c.028.254.07.507.124.757 1.719 7.927 8.854 13.681 16.966 13.681h84.163c4.142 0 7.5-3.358 7.5-7.5 0-4.143-3.358-7.501-7.5-7.501z"/><path d="m43.942 216.182 26.65 238.498c.424 3.796 3.634 6.667 7.454 6.667h353.661c3.82 0 7.029-2.871 7.453-6.667l26.649-238.498c.297-2.65-.836-5.257-2.975-6.849l-203.48-151.488c-2.658-1.979-6.3-1.979-8.957 0l-203.479 151.488c-2.139 1.592-3.271 4.2-2.976 6.849zm210.934-142.971 195.549 145.583-25.427 227.553h-340.244l-25.426-227.553z"/><path d="m254.876 302.211c-19.047 0-36.859 7.515-50.152 21.161-2.891 2.967-2.829 7.715.139 10.606 1.458 1.421 3.346 2.128 5.233 2.128 1.952 0 3.903-.758 5.372-2.266 10.446-10.723 24.441-16.628 39.408-16.628 14.694 0 28.51 5.722 38.899 16.113 2.93 2.929 7.678 2.929 10.608 0 2.929-2.929 2.929-7.677 0-10.607-13.224-13.224-30.806-20.507-49.507-20.507z"/><path d="m254.876 246.393c-34.4 0-66.521 13.62-90.446 38.35-2.88 2.977-2.802 7.725.175 10.605 1.457 1.409 3.336 2.11 5.214 2.11 1.961 0 3.92-.765 5.391-2.285 21.074-21.783 49.366-33.78 79.666-33.78 29.604 0 57.436 11.529 78.369 32.462 2.929 2.928 7.678 2.929 10.606 0 2.93-2.929 2.93-7.678.001-10.607-23.765-23.766-55.365-36.855-88.976-36.855z"/><path d="m138.275 259.716c30.821-31.935 72.23-49.522 116.6-49.522 44.373 0 85.784 17.589 116.607 49.527 1.472 1.525 3.433 2.292 5.397 2.292 1.875 0 3.752-.699 5.207-2.103 2.98-2.876 3.065-7.624.188-10.605-33.674-34.894-78.919-54.111-127.399-54.111-48.478 0-93.72 19.215-127.393 54.105-2.876 2.98-2.792 7.728.188 10.605 2.981 2.877 7.729 2.792 10.605-.188z"/><path d="m254.876 342.304c-16.142 0-29.275 13.133-29.275 29.275s13.133 29.275 29.275 29.275c16.143 0 29.275-13.133 29.275-29.275 0-16.143-13.133-29.275-29.275-29.275zm0 43.549c-7.871 0-14.275-6.404-14.275-14.275s6.404-14.275 14.275-14.275 14.275 6.404 14.275 14.275c0 7.872-6.404 14.275-14.275 14.275z"/></g></g></svg>