<svg id="Capa_1" enable-background="new 0 0 509.753 509.753" height="512" viewBox="0 0 509.753 509.753" width="512" xmlns="http://www.w3.org/2000/svg"><g><g><g><path d="m260.765 15.883 237.517 176.828c3.102 2.31 4.568 6.22 3.748 9.999l-31.887 285.366c-.984 4.535-4.996 7.771-9.637 7.771h-411.26c-4.64 0-8.653-3.236-9.637-7.771l-31.886-285.365c-.82-3.78.646-7.69 3.748-9.999l237.517-176.829c3.495-2.601 8.282-2.601 11.777 0z" fill="#bed9fd"/></g></g><g><g><path d="m498.282 192.711-237.517-176.828c-3.495-2.602-8.282-2.602-11.777 0l-9.112 6.783 228.406 170.044c3.102 2.31 4.568 6.22 3.748 9.999l-31.887 285.366c-.984 4.535-4.996 7.771-9.637 7.771h30c4.64 0 8.653-3.236 9.636-7.771l31.888-285.366c.82-3.778-.645-7.688-3.748-9.998z" fill="#9ec8fc"/></g></g><g><g><path d="m78.046 453.847-26.649-238.498 203.479-151.488 203.481 151.488-26.65 238.498z" fill="#fdfcfc"/></g></g><g><g><path d="m254.876 63.861-15 11.167 180.902 134.678c4.693 3.494 7.179 9.217 6.53 15.033l-25.6 229.108h30l26.649-238.498z" fill="#f1f1f1"/></g></g><g><g><path d="m363.76 412.842h-217.767c-9.36 0-16.948-7.588-16.948-16.948v-136.58c0-9.36 7.588-16.948 16.948-16.948h217.767c9.36 0 16.948 7.588 16.948 16.948v136.58c0 9.36-7.588 16.948-16.948 16.948z" fill="#e3a76f"/></g></g><g><g><path d="m363.76 242.366h-30c9.36 0 16.948 7.588 16.948 16.948v136.58c0 9.36-7.588 16.948-16.948 16.948h30c9.36 0 16.948-7.588 16.948-16.948v-136.58c0-9.36-7.588-16.948-16.948-16.948z" fill="#d6995c"/></g></g><g><g><path d="m325.466 337.653h-141.722c-10.467 0-18.953-8.485-18.953-18.953v-76.334h179.627v76.334c0 10.468-8.485 18.953-18.952 18.953z" fill="#c48958"/></g></g><g><g><path d="m314.418 242.366v76.334c0 10.467-8.485 18.953-18.953 18.953h30c10.467 0 18.953-8.485 18.953-18.953v-76.334z" fill="#ba8254"/></g></g><g><g><path d="m255.501 359.76h-1.792c-10.215 0-18.495-8.281-18.495-18.495v-7.222c0-10.215 8.281-18.495 18.495-18.495h1.792c10.215 0 18.495 8.281 18.495 18.495v7.222c0 10.214-8.28 18.495-18.495 18.495z" fill="#f2d1a5"/></g></g><g><path d="m502.761 186.695-237.517-176.828c-6.199-4.614-14.531-4.616-20.734 0l-237.519 176.829c-5.33 3.969-7.925 10.67-6.686 17.175l31.851 285.039c.029.254.07.507.124.757 1.72 7.928 8.854 13.681 16.967 13.681h411.26c8.112 0 15.247-5.754 16.967-13.681.054-.25.095-.502.124-.757l31.851-285.039c1.238-6.505-1.357-13.206-6.688-17.176zm-8.06 14.427c-.054.25-.095.502-.124.756l-31.83 284.852c-.316.951-1.222 1.618-2.24 1.618h-411.26c-1.019 0-1.924-.667-2.24-1.618l-31.83-284.852c-.029-.254-.07-.506-.124-.756-.196-.903.156-1.843.896-2.395l237.517-176.827c.844-.628 1.977-.628 2.82 0l237.517 176.827c.741.552 1.094 1.492.898 2.395z"/><path d="m462.836 209.333-203.482-151.488c-2.658-1.979-6.299-1.979-8.957 0l-203.479 151.488c-2.139 1.592-3.271 4.199-2.975 6.849l26.649 238.498c.425 3.796 3.634 6.667 7.454 6.667h64.073c4.143 0 7.5-3.358 7.5-7.5s-3.357-7.5-7.5-7.5h-57.364l-25.427-227.553 195.548-145.583 195.55 145.583-25.427 227.553h-252.879c-4.143 0-7.5 3.358-7.5 7.5s3.357 7.5 7.5 7.5h259.588c3.82 0 7.029-2.871 7.453-6.667l26.649-238.498c.297-2.65-.836-5.257-2.974-6.849z"/><path d="m289.825 195.194h-64.45c-13.215 0-23.967 10.751-23.967 23.966v15.706h-55.415c-13.48 0-24.448 10.967-24.448 24.448v136.58c0 13.481 10.968 24.448 24.448 24.448h107.314c4.143 0 7.5-3.358 7.5-7.5s-3.358-7.5-7.5-7.5h-107.314c-5.21 0-9.448-4.238-9.448-9.448v-136.58c0-5.21 4.238-9.448 9.448-9.448h11.299v68.834c0 14.586 11.866 26.453 26.452 26.453h44.261c1.883 12.496 12.691 22.106 25.703 22.106h1.792c13.012 0 23.822-9.611 25.704-22.106h44.261c14.586 0 26.453-11.867 26.453-26.453v-68.834h11.842c5.21 0 9.448 4.238 9.448 9.448v136.58c0 5.21-4.238 9.448-9.448 9.448h-80.453c-4.143 0-7.5 3.358-7.5 7.5s3.357 7.5 7.5 7.5h80.453c13.48 0 24.448-10.967 24.448-24.448v-136.58c0-13.481-10.968-24.448-24.448-24.448h-49.97v-15.706c.001-13.215-10.75-23.966-23.965-23.966zm-73.417 23.966c0-4.944 4.022-8.966 8.967-8.966h64.45c4.943 0 8.966 4.022 8.966 8.966v15.706h-82.383zm50.089 122.104c0 6.063-4.933 10.995-10.996 10.995h-1.792c-6.063 0-10.995-4.932-10.995-10.995v-7.222c0-6.063 4.933-10.995 10.995-10.995h1.792c6.063 0 10.996 4.932 10.996 10.995zm70.422-22.563c0 6.315-5.138 11.453-11.453 11.453h-44.261c-1.883-12.496-12.692-22.106-25.704-22.106h-1.792c-13.012 0-23.821 9.611-25.703 22.106h-44.261c-6.314 0-11.452-5.138-11.452-11.453v-68.834h36.616 97.383 30.628v68.834z"/></g></g></svg>